<svg width="46" height="31" viewBox="0 0 46 31" fill="none" xmlns="http://www.w3.org/2000/svg">
<path d="M42.7143 11.809V7.83396C42.7143 3.66968 39.7571 0.357178 36.225 0.357178H9.775C6.24286 0.357178 3.28571 3.76432 3.28571 7.83396V11.809C1.39643 12.2822 0 14.175 0 16.4465V25.9107C0 26.4786 0.328571 26.8572 0.821429 26.8572H1.64286V29.6965C1.64286 30.2643 1.97143 30.6429 2.46429 30.6429C2.95714 30.6429 3.28571 30.2643 3.28571 29.6965V26.8572H42.7143V29.6965C42.7143 30.2643 43.0429 30.6429 43.5357 30.6429C44.0286 30.6429 44.3571 30.2643 44.3571 29.6965V26.8572H45.1786C45.6714 26.8572 46 26.4786 46 25.9107V16.4465C46 14.175 44.6036 12.2822 42.7143 11.809ZM4.92857 7.83396C4.92857 4.71075 7.14643 2.25003 9.775 2.25003H36.1429C38.8536 2.25003 40.9893 4.80539 40.9893 7.83396V11.7143H37.6214C37.375 9.53753 35.7321 7.92861 33.8429 7.92861H30.0643C28.175 7.92861 26.5321 9.53753 26.2857 11.7143H19.6321C19.3857 9.53753 17.7429 7.92861 15.8536 7.92861H12.075C10.1857 7.92861 8.54286 9.53753 8.29643 11.7143H4.92857V7.83396ZM36.0607 11.7143H28.0107C28.2571 10.5786 29.1607 9.82146 30.1464 9.82146H33.925C34.9107 9.82146 35.8143 10.5786 36.0607 11.7143ZM17.9893 11.7143H9.93929C10.1857 10.5786 11.0893 9.82146 12.075 9.82146H15.8536C16.8393 9.82146 17.7429 10.5786 17.9893 11.7143ZM44.3571 24.9643H1.64286V16.4465C1.64286 14.8375 2.71071 13.6072 4.10714 13.6072H41.8929C43.2893 13.6072 44.3571 14.8375 44.3571 16.4465V24.9643Z" fill="black"/>
</svg>
