<svg width="40" height="32" viewBox="0 0 40 32" fill="none" xmlns="http://www.w3.org/2000/svg">
<path d="M39.2729 0.481445H1.02333C0.71752 0.481445 0.469727 0.729312 0.469727 1.03505V31.4464C0.469727 31.7521 0.71752 32 1.02333 32H39.2729C39.5787 32 39.8265 31.7521 39.8265 31.4464V1.03505C39.8265 0.729312 39.5787 0.481445 39.2729 0.481445ZM38.7193 8.08427H21.9795V1.58865H38.7193V8.08427ZM21.9795 16.7943H38.7193V23.2899H21.9795V16.7943ZM21.9795 15.6871V9.19148H38.7193V15.6871H21.9795ZM1.57693 1.58865H20.8723V30.8928H1.57693V1.58865ZM21.9795 30.8928V24.3971H38.7193V30.8928H21.9795Z" fill="#004D77"/>
<path d="M19.285 13.6941C18.9792 13.6941 18.7314 13.942 18.7314 14.2477V18.2336C18.7314 18.5394 18.9792 18.7872 19.285 18.7872C19.5909 18.7872 19.8387 18.5394 19.8387 18.2336V14.2477C19.8387 13.942 19.5909 13.6941 19.285 13.6941Z" fill="#004D77"/>
</svg>
