<svg width="31" height="31" viewBox="0 0 31 31" fill="none" xmlns="http://www.w3.org/2000/svg">
<path d="M15.2782 -8.15847e-09C6.84028 -3.65266e-09 -3.29843e-09 6.84028 -7.36727e-09 15.2782C-1.14361e-08 23.7162 6.84028 30.5564 15.2782 30.5564C23.7162 30.5564 30.5564 23.7162 30.5564 15.2782C30.5564 6.84028 23.7162 -1.26643e-08 15.2782 -8.15847e-09ZM19.5413 9.28094C19.5413 9.28094 18.1042 9.28094 17.5262 9.28094C16.8117 9.28094 16.6671 9.56996 16.6671 10.3086C16.6671 10.9187 16.6671 12.0829 16.6671 12.0829L19.5413 12.0829L19.2684 15.1979L16.6752 15.1979L16.6752 24.511L12.958 24.511L12.958 15.2381L11.0231 15.2381L11.0231 12.0829L12.958 12.0829C12.958 12.0829 12.958 11.6253 12.958 9.59405C12.958 7.25776 14.2024 6.04545 16.9722 6.04545C17.4218 6.04545 19.5494 6.04545 19.5494 6.04545L19.5494 9.28094L19.5413 9.28094Z" fill="white"/>
</svg>
