<svg width="24" height="24" viewBox="0 0 24 24" fill="none" xmlns="http://www.w3.org/2000/svg">
<path d="M22.8454 22.8447C23.1183 22.5715 23.1182 22.1205 22.8451 21.8473L17.5304 16.5327C18.9543 14.8795 19.8151 12.7301 19.8151 10.3826C19.8151 5.17818 15.582 0.95 10.3826 0.95C5.17818 0.95 0.95 5.18309 0.95 10.3826C0.95 15.5821 5.18308 19.8151 10.3826 19.8151C12.7301 19.8151 14.8795 18.9543 16.5327 17.5304L21.8473 22.8451C21.9835 22.9813 22.167 23.0549 22.3462 23.0549C22.5244 23.0549 22.7084 22.9868 22.8454 22.8447ZM22.8454 22.8447C22.8453 22.8449 22.8452 22.845 22.8451 22.8451L22.8097 22.8097L22.8457 22.8444C22.8456 22.8445 22.8455 22.8446 22.8454 22.8447ZM2.36249 10.3826C2.36249 5.96044 5.9604 2.36737 10.3777 2.36737C14.7998 2.36737 18.3929 5.96528 18.3929 10.3826C18.3929 14.7999 14.7998 18.4027 10.3777 18.4027C5.96044 18.4027 2.36249 14.8047 2.36249 10.3826Z" fill="white" stroke="white" stroke-width="0.1"/>
</svg>
