<svg width="31" height="31" viewBox="0 0 31 31" fill="none" xmlns="http://www.w3.org/2000/svg">
<path d="M15.2782 12.4843C13.7368 12.4843 12.4843 13.7367 12.4843 15.2782C12.4843 16.8197 13.7368 18.0721 15.2782 18.0721C16.8197 18.0721 18.0721 16.8197 18.0721 15.2782C18.0721 13.7367 16.8197 12.4843 15.2782 12.4843Z" fill="white"/>
<path d="M15.2782 0C6.84028 0 0 6.84028 0 15.2782C0 23.7162 6.84028 30.5564 15.2782 30.5564C23.7162 30.5564 30.5564 23.7162 30.5564 15.2782C30.5564 6.84028 23.7162 0 15.2782 0ZM23.6038 18.7305C23.5636 19.6216 23.4191 20.2318 23.2104 20.7617C22.9936 21.3156 22.7126 21.7813 22.247 22.247C21.7813 22.7126 21.3156 23.0016 20.7617 23.2104C20.2318 23.4191 19.6216 23.5556 18.7305 23.6038C17.8393 23.6439 17.5503 23.6519 15.2782 23.6519C13.0062 23.6519 12.7171 23.6439 11.826 23.6038C10.9348 23.5636 10.3246 23.4191 9.79476 23.2104C9.24079 22.9936 8.77514 22.7126 8.30949 22.247C7.84384 21.7813 7.55481 21.3156 7.34607 20.7617C7.13733 20.2318 7.00084 19.6216 6.95267 18.7305C6.91253 17.8393 6.9045 17.5503 6.9045 15.2782C6.9045 13.0062 6.91253 12.7171 6.95267 11.826C6.99282 10.9348 7.13733 10.3246 7.34607 9.79476C7.56284 9.24079 7.84384 8.77514 8.30949 8.30949C8.77514 7.84384 9.24079 7.55481 9.79476 7.34607C10.3246 7.13733 10.9348 7.00084 11.826 6.95267C12.7171 6.91253 13.0062 6.9045 15.2782 6.9045C17.5503 6.9045 17.8393 6.91253 18.7305 6.95267C19.6216 6.99282 20.2318 7.13733 20.7617 7.34607C21.3156 7.56284 21.7813 7.84384 22.247 8.30949C22.7126 8.77514 23.0016 9.24079 23.2104 9.79476C23.4191 10.3246 23.5556 10.9348 23.6038 11.826C23.6439 12.7171 23.6519 13.0062 23.6519 15.2782C23.6519 17.5503 23.6439 17.8393 23.6038 18.7305Z" fill="white"/>
<path d="M21.8054 10.3407C21.6528 9.94729 21.4682 9.67432 21.1792 9.37726C20.8901 9.08021 20.6091 8.90358 20.2157 8.75104C19.9187 8.63864 19.4771 8.50216 18.6582 8.46201C17.7751 8.42187 17.5101 8.41384 15.2702 8.41384C13.0302 8.41384 12.7653 8.42187 11.8822 8.46201C11.0633 8.50216 10.6217 8.63864 10.3246 8.75104C9.93125 8.90358 9.65828 9.08824 9.36123 9.37726C9.0722 9.67432 8.88755 9.94729 8.735 10.3407C8.62261 10.6377 8.48612 11.0793 8.44598 11.8982C8.40584 12.7813 8.39781 13.0463 8.39781 15.2862C8.39781 17.5262 8.40584 17.7911 8.44598 18.6743C8.48612 19.4932 8.62261 19.9347 8.735 20.2318C8.88755 20.6252 9.0722 20.8981 9.36123 21.1952C9.65828 21.4842 9.93125 21.6689 10.3246 21.8214C10.6217 21.9338 11.0633 22.0703 11.8822 22.1105C12.7653 22.1506 13.0302 22.1586 15.2702 22.1586C17.5101 22.1586 17.7751 22.1506 18.6582 22.1105C19.4771 22.0703 19.9187 21.9338 20.2157 21.8214C20.6091 21.6689 20.8821 21.4842 21.1792 21.1952C21.4762 20.8981 21.6528 20.6252 21.8054 20.2318C21.9178 19.9347 22.0543 19.4932 22.0944 18.6743C22.1346 17.7911 22.1426 17.5262 22.1426 15.2862C22.1426 13.0463 22.1346 12.7813 22.0944 11.8982C22.0623 11.0793 21.9258 10.6297 21.8054 10.3407ZM15.2782 19.5815C12.9018 19.5815 10.975 17.6546 10.975 15.2782C10.975 12.9018 12.9018 10.9749 15.2782 10.9749C17.6547 10.9749 19.5815 12.9018 19.5815 15.2782C19.5815 17.6546 17.6547 19.5815 15.2782 19.5815ZM19.7501 11.8099C19.1961 11.8099 18.7465 11.3603 18.7465 10.8063C18.7465 10.2524 19.1961 9.80277 19.7501 9.80277C20.3041 9.80277 20.7537 10.2524 20.7537 10.8063C20.7537 11.3603 20.3041 11.8099 19.7501 11.8099Z" fill="white"/>
</svg>
