<svg width="24" height="24" viewBox="0 0 24 24" fill="none" xmlns="http://www.w3.org/2000/svg">
<path d="M21.5903 14.9797L21.5898 14.9796L18.0092 14.584L17.9981 14.6834L18.0091 14.584L18.0091 14.584C17.4993 14.527 16.9929 14.7166 16.646 15.0942C16.2991 15.4718 16.1535 15.9922 16.254 16.4949L16.2539 16.4949L16.2547 16.4984C16.2868 16.6333 16.2373 16.7744 16.1281 16.8599C15.2464 17.4577 14.0423 17.5681 12.7632 17.2376C11.484 16.907 10.14 16.1374 8.99441 14.9929C7.84876 13.8484 7.078 12.5058 6.74686 11.2278C6.41575 9.9499 6.52616 8.74697 7.12507 7.86595C7.20986 7.75759 7.35004 7.70814 7.48434 7.73953L7.48433 7.73958L7.48744 7.74021C7.9906 7.84111 8.51175 7.69579 8.8899 7.34912C9.26805 7.00243 9.45768 6.49609 9.40015 5.98652L9.00203 2.40699L9.002 2.40676C8.89918 1.5015 8.09976 0.838846 7.19062 0.904478C5.5378 0.958945 3.9635 1.62224 2.77079 2.76676L2.77078 2.76674L2.76932 2.7682C1.05822 4.47918 0.56037 7.06703 1.11851 9.84814C1.67677 12.6299 3.29274 15.6177 5.8298 18.1522C8.06032 20.4685 10.9073 22.0994 14.035 22.8526L14.0373 22.8531C14.7668 23.0104 15.5106 23.0916 16.2568 23.0954C18.1008 23.1632 19.894 22.4837 21.229 21.2111L21.2291 21.2112L21.2322 21.208C22.3774 20.0162 23.0412 18.4435 23.0958 16.7923C23.1593 15.8834 22.4963 15.0851 21.5903 14.9797ZM6.70219 17.2863L6.70073 17.2848C4.38686 14.974 2.89192 12.2828 2.34244 9.80731C1.79275 7.33091 2.19114 5.08563 3.63869 3.63976C4.61946 2.7087 5.90973 2.17202 7.26215 2.13263H7.29928V2.13265L7.30114 2.13262C7.5447 2.12809 7.75241 2.30749 7.7833 2.5486L8.18128 6.12682C8.18129 6.12692 8.1813 6.12702 8.18131 6.12712C8.19367 6.24656 8.14847 6.36479 8.05947 6.4456C7.97055 6.52634 7.8485 6.5601 7.73065 6.53653C7.11212 6.40368 6.47401 6.6538 6.11095 7.17159L6.11094 7.17158L6.11017 7.17273C5.33252 8.3151 5.16961 9.82247 5.53194 11.3717C5.89444 12.9216 6.78397 14.5216 8.12468 15.861C9.46538 17.2004 11.0671 18.0891 12.6186 18.4512C14.1693 18.8131 15.6781 18.6501 16.8214 17.8725L16.8225 17.8717C17.3405 17.5087 17.5907 16.8712 17.4576 16.2532C17.4335 16.1354 17.4678 16.0133 17.5498 15.9251L17.5506 15.9243C17.6317 15.8349 17.7508 15.7895 17.8709 15.8023C17.871 15.8023 17.8711 15.8023 17.8712 15.8023L21.4518 16.1993C21.4521 16.1993 21.4523 16.1994 21.4526 16.1994C21.7064 16.2326 21.8895 16.4587 21.869 16.7134L21.8689 16.7134L21.8687 16.7186C21.8302 18.0708 21.2934 19.3612 20.3611 20.3423C18.9884 21.7128 16.8384 22.1872 14.2924 21.6507C11.3979 20.9478 8.76451 19.4336 6.70219 17.2863ZM17.4765 15.8571C17.5792 15.7439 17.7298 15.6866 17.8818 15.7029L17.4765 15.8571Z" fill="white" stroke="white" stroke-width="0.2"/>
</svg>
