<svg width="40" height="40" viewBox="0 0 40 40" fill="none" xmlns="http://www.w3.org/2000/svg">
<path d="M38.0645 9.67725H1.93547C0.850312 9.67725 0 10.5276 0 11.6127V13.3332C0 14.4183 0.850312 15.2687 1.93547 15.2687H38.0645C39.1497 15.2687 40 14.4183 40 13.3332V11.6127C40 10.5276 39.1497 9.67725 38.0645 9.67725ZM38.7097 13.3332C38.7097 13.7069 38.4383 13.9783 38.0645 13.9783H1.93547C1.56172 13.9783 1.29031 13.7069 1.29031 13.3332V11.6127C1.29031 11.239 1.56172 10.9676 1.93547 10.9676H38.0645C38.4383 10.9676 38.7097 11.239 38.7097 11.6127V13.3332Z" fill="black"/>
<path d="M7.18781 13.9849C6.83641 13.9367 6.50828 14.1798 6.45789 14.5324L4.38648 29.0323H3.4407V14.6237C3.4407 14.2671 3.15211 13.9785 2.79555 13.9785C2.43898 13.9785 2.15039 14.2671 2.15039 14.6237V29.6774C2.15039 30.0335 2.43898 30.3226 2.79555 30.3226H4.94609C5.26734 30.3226 5.53922 30.0865 5.58477 29.7686L7.73531 14.7148C7.78563 14.3622 7.54047 14.0352 7.18781 13.9849Z" fill="black"/>
<path d="M37.2041 13.9786C36.848 13.9786 36.559 14.2672 36.559 14.6237V29.0323H35.6132L33.5418 14.5326C33.491 14.1799 33.1615 13.9326 32.8119 13.9851C32.4592 14.0354 32.214 14.3622 32.2644 14.715L34.4149 29.7687C34.4605 30.0865 34.7327 30.3227 35.0536 30.3227H37.2041C37.5602 30.3227 37.8493 30.0336 37.8493 29.6776V14.6237C37.8493 14.2672 37.5602 13.9786 37.2041 13.9786Z" fill="black"/>
<path d="M32.9027 18.2795H7.09633C6.73977 18.2795 6.45117 18.5681 6.45117 18.9247C6.45117 19.2813 6.73977 19.5699 7.09633 19.5699H32.9028C33.2589 19.5699 33.548 19.2813 33.548 18.9247C33.548 18.5681 33.2589 18.2795 32.9027 18.2795Z" fill="black"/>
</svg>
