<svg width="24" height="24" viewBox="0 0 24 24" fill="none" xmlns="http://www.w3.org/2000/svg">
<path d="M0.949776 21.9883L0.94973 21.9883L0.948682 21.9913C0.844967 22.2842 0.912815 22.6105 1.1247 22.8378L1.19785 22.7696L1.1247 22.8378C1.33659 23.0651 1.65733 23.1557 1.95682 23.0728L1.95776 23.0725L6.63883 21.727C10.6922 23.9605 15.7081 23.4457 19.2237 20.4313C22.7498 17.408 24.0213 12.5092 22.4106 8.15261C20.7999 3.79602 16.6476 0.902482 12.0028 0.9L12.0027 0.9L11.9027 0.899947V0.900488C7.90435 0.937923 4.23121 3.12274 2.29116 6.625C0.343084 10.1418 0.447988 14.4354 2.5622 17.8518L0.949776 21.9883ZM12.0027 22.1719H12.0026C10.2233 22.174 8.47479 21.7074 6.93312 20.8191C6.82249 20.7553 6.69091 20.7386 6.56785 20.7726L6.56667 20.773L1.89704 22.1278L3.51783 17.9706C3.57244 17.8305 3.55628 17.6728 3.47442 17.5468L3.47438 17.5467C0.936831 13.6457 1.37043 8.52007 4.52724 5.10079C7.68405 1.68152 12.7588 0.840789 16.8496 3.05936C20.9405 5.27794 23.0038 9.9899 21.8599 14.5008C20.7159 19.0117 16.6564 22.1709 12.0027 22.1719Z" fill="white" stroke="white" stroke-width="0.2"/>
<path d="M15.7802 13.0575C15.4775 13.0237 15.1769 13.1362 14.9709 13.3604C14.7649 13.5846 14.6784 13.8936 14.7381 14.1921L14.738 14.1921L14.7388 14.1956C14.753 14.2552 14.7314 14.3174 14.6836 14.3556C14.1974 14.6845 13.5294 14.7479 12.8128 14.5627C12.096 14.3774 11.3409 13.9455 10.6964 13.3017C10.0519 12.6578 9.61935 11.9035 9.43381 11.1874C9.24831 10.4715 9.31166 9.80412 9.64121 9.31835C9.67896 9.27096 9.74077 9.2494 9.80002 9.26325L9.80001 9.2633L9.80312 9.26393C10.1019 9.32384 10.4113 9.23756 10.6358 9.03171C10.8603 8.82589 10.9729 8.5253 10.9388 8.22276C10.9388 8.2227 10.9388 8.22265 10.9388 8.22259L10.7132 6.19377L10.7131 6.19354C10.6523 5.65759 10.1792 5.26526 9.64113 5.30366C8.69393 5.33508 7.79177 5.71529 7.10822 6.37122L7.10821 6.37121L7.10675 6.37266C6.12341 7.35593 5.84104 8.83935 6.15922 10.4248C6.47752 12.0108 7.39809 13.7116 8.84116 15.1534C10.1111 16.4721 11.732 17.4005 13.5127 17.8294L13.5127 17.8294L13.515 17.8299C13.9312 17.9196 14.3555 17.966 14.7813 17.9682C15.8379 18.0068 16.8653 17.6174 17.6303 16.8882L17.6304 16.8883L17.6334 16.8851C18.2898 16.2021 18.6703 15.3008 18.7018 14.3545C18.739 13.8165 18.3464 13.3442 17.8102 13.2818L17.8097 13.2817L15.7802 13.0575ZM15.7802 13.0575L15.7691 13.1569M15.7802 13.0575L15.7801 13.0575L15.7691 13.1569M15.7691 13.1569L17.7987 13.3811L9.56037 9.25938C8.85568 10.2937 9.3143 12.0623 10.6257 13.3724C11.9372 14.6825 13.7075 15.1398 14.7425 14.4364C14.8229 14.3745 14.8596 14.2712 14.8361 14.1725C14.7827 13.9054 14.8601 13.6288 15.0445 13.4281C15.2289 13.2273 15.4981 13.1266 15.7691 13.1569ZM9.70499 5.98637H9.68312C8.90208 6.00891 8.15689 6.31885 7.5906 6.85669M9.70499 5.98637L9.32567 14.6715C6.68968 12.039 5.9118 8.53266 7.5906 6.85669M9.70499 5.98637C9.87208 5.98327 10.0146 6.10648 10.0356 6.27211L9.70499 5.98637ZM7.5906 6.85669L7.65947 6.9292C7.65977 6.92891 7.66007 6.92862 7.66037 6.92834M7.5906 6.85669L7.66125 6.92746C7.66096 6.92775 7.66067 6.92804 7.66037 6.92834M7.66037 6.92834C8.20834 6.40833 8.92908 6.10853 9.68457 6.08637H9.70499V6.08639L9.70685 6.08635C9.82271 6.0842 9.92147 6.16945 9.93632 6.28399L10.1618 8.31147C10.1618 8.31157 10.1618 8.31166 10.1619 8.31175C10.1674 8.36569 10.147 8.41908 10.1067 8.45559C10.0666 8.49205 10.0115 8.50734 9.95826 8.49678C9.59077 8.41798 9.21169 8.56663 8.99597 8.87429L8.99596 8.87428L8.99518 8.87543C8.54576 9.53562 8.45377 10.4033 8.66107 11.2897C8.86853 12.1767 9.37708 13.0906 10.1422 13.855C10.9073 14.6194 11.8222 15.1275 12.7101 15.3347C13.5973 15.5417 14.4658 15.4497 15.1265 15.0003L15.1265 15.0003L15.1276 14.9995C15.4354 14.7838 15.5842 14.405 15.5052 14.0377C15.4944 13.9848 15.5099 13.9299 15.5467 13.8902L15.5475 13.8893C15.5842 13.8489 15.638 13.8284 15.6924 13.8342C15.6925 13.8342 15.6925 13.8342 15.6926 13.8342L17.722 14.0592C17.8427 14.0752 17.9297 14.1828 17.92 14.304L17.9199 14.304L17.9197 14.3092C17.8982 15.0648 17.5983 15.7858 17.0775 16.3341C16.3132 17.097 15.1117 17.3656 13.6783 17.0637C12.0459 16.6672 10.5609 15.8132 9.39779 14.6022L9.39781 14.6022L9.39633 14.6007C8.08978 13.2959 7.24712 11.7776 6.93771 10.3837C6.6281 8.98887 6.85434 7.73375 7.66037 6.92834Z" fill="white" stroke="white" stroke-width="0.2"/>
</svg>
