<svg width="31" height="31" viewBox="0 0 31 31" fill="none" xmlns="http://www.w3.org/2000/svg">
<path d="M15.2782 -8.15847e-09C6.84028 -3.65266e-09 -3.29843e-09 6.84028 -7.36727e-09 15.2782C-1.14361e-08 23.7162 6.84028 30.5564 15.2782 30.5564C23.7162 30.5564 30.5564 23.7162 30.5564 15.2782C30.5564 6.84028 23.7162 -1.26643e-08 15.2782 -8.15847e-09ZM24.1738 19.7742C23.957 20.577 23.3308 21.2113 22.536 21.428C21.0908 21.8214 15.2862 21.8214 15.2862 21.8214C15.2862 21.8214 9.48165 21.8214 8.03652 21.428C7.22564 21.2113 6.59942 20.577 6.38265 19.7742C5.99728 18.321 5.99728 15.2782 5.99728 15.2782C5.99728 15.2782 5.99728 12.2354 6.38265 10.7823C6.59942 9.97942 7.22564 9.34516 8.02046 9.1284C9.46559 8.735 15.2702 8.735 15.2702 8.735C15.2702 8.735 21.0748 8.735 22.5199 9.1284C23.3147 9.34516 23.949 9.97942 24.1577 10.7823C24.5431 12.2354 24.5431 15.2782 24.5431 15.2782C24.5431 15.2782 24.5592 18.321 24.1738 19.7742Z" fill="white"/>
<path d="M12.7814 18.9151L19.1721 15.2782L12.7814 11.6413L12.7814 18.9151Z" fill="white"/>
</svg>
