<svg width="38" height="38" viewBox="0 0 38 38" fill="none" xmlns="http://www.w3.org/2000/svg">
<g clip-path="url(#clip0)">
<path d="M8.86639 25.3089C8.86639 23.9098 7.73224 22.7756 6.3331 22.7756C4.93396 22.7756 3.7998 23.9098 3.7998 25.3089C3.7998 26.7081 4.93396 27.8422 6.3331 27.8422C7.73166 27.8408 8.86494 26.7075 8.86639 25.3089ZM5.06645 25.3089C5.06645 24.6094 5.63353 24.0423 6.3331 24.0423C7.03267 24.0423 7.59975 24.6094 7.59975 25.3089C7.59975 26.0085 7.03267 26.5756 6.3331 26.5756C5.63382 26.575 5.06703 26.0082 5.06645 25.3089Z" fill="black"/>
<path d="M37.3667 15.1753H24.8035C26.0434 12.3396 25.0511 9.02328 22.4578 7.33452C19.8642 5.64547 16.4298 6.07948 14.3378 8.36024L14.3346 8.36256L1.84853 20.8344C1.84041 20.8429 1.8378 20.8539 1.82997 20.8623C0.0333666 22.6783 -0.49544 25.396 0.489404 27.753C1.47396 30.11 3.77908 31.644 6.33353 31.6419H22.1667C22.5166 31.6419 22.8002 31.3584 22.8002 31.0088C22.8002 30.6588 22.5166 30.3753 22.1667 30.3753H21.1624L22.4291 29.1086H24.7C25.0499 29.1086 25.3334 28.8251 25.3334 28.4755C25.3334 28.1255 25.0499 27.842 24.7 27.842H23.6957L24.9624 26.5754H27.2333C27.5832 26.5754 27.8667 26.2918 27.8667 25.9422C27.8667 25.5923 27.5832 25.3087 27.2333 25.3087H26.229L27.4956 24.0421H29.7668C30.1165 24.0421 30.4 23.7585 30.4 23.4086C30.4 23.059 30.1165 22.7754 29.7668 22.7754H28.7623L30.0289 21.5088H32.3001C32.6498 21.5088 32.9333 21.2253 32.9333 20.8753C32.9333 20.5257 32.6498 20.2422 32.3001 20.2422H31.2956L32.5622 18.9755H34.8334C35.183 18.9755 35.4666 18.692 35.4666 18.342C35.4666 17.9924 35.183 17.7089 34.8334 17.7089H33.8288L35.0958 16.4422H37.3667C37.7166 16.4422 38.0002 16.1587 38.0002 15.8088C38.0002 15.4591 37.7166 15.1753 37.3667 15.1753ZM24.0668 12.642C24.0717 13.9858 23.5368 15.275 22.5819 16.2204L22.5813 16.2213L22.5801 16.2219L12.5951 26.2095C12.8966 24.2323 12.2391 22.2295 10.8246 20.8156C9.40982 19.4017 7.40679 18.745 5.42986 19.0474L15.2296 9.25869C15.2334 9.25492 15.2345 9.24942 15.2383 9.24565C15.2421 9.24159 15.2476 9.23985 15.2516 9.23579C16.6589 7.6859 18.8744 7.16144 20.8273 7.9158C22.7799 8.67045 24.0674 10.5485 24.0668 12.642ZM1.26696 25.3087C1.26696 22.5105 3.53526 20.2422 6.33353 20.2422C9.13179 20.2422 11.4001 22.5105 11.4001 25.3087C11.4001 28.107 9.13179 30.3753 6.33353 30.3753C3.53671 30.3721 1.27015 28.1055 1.26696 25.3087ZM10.7342 29.8537C10.7426 29.8462 10.753 29.8439 10.7611 29.8358L23.4757 17.1177L23.4762 17.1171C23.6859 16.9055 23.8804 16.6794 24.0584 16.4405L24.0668 16.4422H33.3044L21.7188 28.0278L19.371 30.3753H10.1175C10.3338 30.2147 10.5396 30.0404 10.7342 29.8537Z" fill="black"/>
</g>
<defs>
<clipPath id="clip0">
<rect width="38" height="38" fill="white"/>
</clipPath>
</defs>
</svg>
