<svg width="37" height="39" viewBox="0 0 37 39" fill="none" xmlns="http://www.w3.org/2000/svg">
<path d="M35.9932 12.6877H33.5724V4.06903C33.5724 1.81548 31.707 9.4559e-06 29.4531 9.4559e-06H7.67177C6.59173 -0.00231893 5.55493 0.425439 4.79056 1.18915C4.02651 1.95253 3.59742 2.98899 3.59876 4.06903V12.6877H1.00793C0.831637 12.6877 0.662995 12.7596 0.541254 12.887C0.419513 13.0143 0.354983 13.186 0.362966 13.3619V31.227C0.362966 31.6032 0.631728 31.9325 1.00793 31.9325H1.5551V38.3369C1.55876 38.5168 1.63393 38.6881 1.76399 38.8125C1.89405 38.9369 2.06867 39.0044 2.24863 38.9998H7.9555C8.13279 39.0034 8.30376 38.9349 8.42982 38.8099C8.55555 38.6848 8.62507 38.5142 8.62274 38.3369V31.9321H28.2078V38.3369C28.2078 38.7131 28.5454 38.9998 28.9216 38.9998H34.6285C34.8038 39.0025 34.9724 38.9329 35.0948 38.8075C35.2172 38.6821 35.2824 38.5118 35.2754 38.3369V31.9321H35.9932C36.3694 31.9321 36.6379 31.6032 36.6379 31.2266V13.3619C36.6458 13.1857 36.5813 13.0143 36.4596 12.887C36.3378 12.7596 36.1692 12.6877 35.9932 12.6877ZM4.96119 4.06903C4.95953 3.35022 5.24459 2.66002 5.75351 2.1521C6.26243 1.64385 6.95296 1.35979 7.67177 1.36245H29.4531C30.9556 1.36245 32.2099 2.56655 32.2099 4.06903V12.6877H28.9216C28.5454 12.6877 28.2078 12.9857 28.2078 13.3619V24.1833H8.79305V13.3619C8.79305 12.9857 8.45577 12.6877 8.07957 12.6877H4.96119V4.06903ZM7.26031 37.6374H2.91754V31.9321H7.26031V37.6374ZM33.913 37.6374H29.5702V31.9321H33.913V37.6374ZM35.2754 30.5697H1.7254V14.0501H7.43061V24.8998C7.42462 25.0734 7.49115 25.2414 7.61422 25.3641C7.73729 25.4865 7.90593 25.5524 8.07957 25.5457H28.9216C29.0952 25.5524 29.2639 25.4865 29.3869 25.3641C29.5097 25.2414 29.5762 25.0734 29.5702 24.8998V14.0501H35.2754V30.5697Z" fill="black"/>
</svg>
