<svg width="28" height="21" viewBox="0 0 28 21" fill="none" xmlns="http://www.w3.org/2000/svg">
<path d="M25.7091 4.8422C24.8034 3.73761 23.5159 3.13394 22.0861 3.13394H18.3547V0.770642C18.3547 0.346789 18.0471 0 17.6711 0H0.683602C0.307621 0 0 0.346789 0 0.770642V17.7183C0 18.1422 0.307621 18.489 0.683602 18.489H3.40662C3.62879 19.9147 4.72825 21 6.05558 21C7.38291 21 8.48237 19.9147 8.70454 18.489H17.6711H19.1693C19.3915 19.9147 20.491 21 21.8183 21C23.1456 21 24.2451 19.9147 24.4673 18.489H26.5067C26.8827 18.489 27.1903 18.1422 27.1903 17.7183V9.75505C27.1846 7.71927 26.6776 6.01743 25.7091 4.8422ZM1.3672 1.54128H16.9875V3.90459V16.9541H8.58491C8.21462 15.7853 7.2177 14.944 6.05558 14.944C4.89345 14.944 3.89653 15.7853 3.52625 16.9541H1.3672V1.54128ZM6.05558 19.4587C5.3264 19.4587 4.73395 18.7908 4.73395 17.9688C4.73395 17.1468 5.3264 16.4789 6.05558 16.4789C6.78475 16.4789 7.37721 17.1468 7.37721 17.9688C7.37721 18.7908 6.78475 19.4587 6.05558 19.4587ZM21.8183 19.4587C21.0891 19.4587 20.4967 18.7908 20.4967 17.9688C20.4967 17.1468 21.0891 16.4789 21.8183 16.4789C22.5475 16.4789 23.1399 17.1468 23.1399 17.9688C23.1399 18.7908 22.5475 19.4587 21.8183 19.4587ZM25.8174 16.9477H24.3476C23.9774 15.7789 22.9804 14.9376 21.8183 14.9376C20.6562 14.9376 19.6593 15.7789 19.289 16.9477H18.3604V4.67523H22.0917C24.3932 4.67523 25.8231 6.6211 25.8231 9.75505V16.9477H25.8174Z" fill="black"/>
</svg>
