<svg width="38" height="39" viewBox="0 0 38 39" fill="none" xmlns="http://www.w3.org/2000/svg">
<path d="M34.9426 19.5765H34.8651L35.549 8.07635C35.5678 7.76115 35.2584 7.49371 34.858 7.47901C34.4576 7.46385 34.1178 7.70783 34.0991 8.02295L33.4119 19.5765H4.40158L3.7144 8.02295C3.46463 3.82276 3.47895 4.09462 3.47895 3.99598C3.47895 2.42265 5.10696 1.14258 7.10803 1.14258H30.7053C32.7063 1.14258 34.3344 2.42265 34.3344 3.99598C34.3344 4.08944 34.1808 6.64869 34.0769 8.3966C34.0581 8.71173 34.3675 8.97917 34.7679 8.99394C35.1682 9.00925 35.508 8.7652 35.5268 8.45C35.6305 6.70704 35.7859 4.12486 35.7859 3.99598C35.7859 1.79255 33.5068 0 30.7053 0H7.10813C4.30665 0 2.02746 1.79255 2.02746 3.99598C2.02746 4.13126 2.01236 3.83685 2.26455 8.07635L2.94854 19.5765H2.87103C1.5103 19.5765 0.40332 20.4478 0.40332 21.5189V24.3515C0.40332 25.4226 1.5103 26.2939 2.87103 26.2939H3.37047V32.825C3.37047 33.1405 3.69543 33.3963 4.09627 33.3963C4.4971 33.3963 4.82206 33.1405 4.82206 32.825V26.2939H7.0009L5.99534 37.4279C5.97356 37.6687 5.71624 37.8574 5.40938 37.8574C5.08548 37.8574 4.82206 37.65 4.82206 37.3951V32.5781C4.82206 32.2626 4.4971 32.0068 4.09627 32.0068C3.69543 32.0068 3.37047 32.2626 3.37047 32.5781V37.3951C3.37047 38.2801 4.28517 39 5.40938 39C6.47436 39 7.36767 38.345 7.44325 37.5089L8.45617 26.2939H29.3577L30.3706 37.5089C30.4459 38.345 31.3393 39 32.4042 39C33.5285 39 34.4431 38.28 34.4431 37.3951V26.2939H34.9426C36.3033 26.2939 37.4103 25.4226 37.4103 24.3515V21.5189C37.4103 20.4478 36.3033 19.5765 34.9426 19.5765ZM32.9915 37.3951C32.9915 37.6501 32.728 37.8574 32.4042 37.8574C32.0975 37.8574 31.84 37.6687 31.8183 37.4279L30.8127 26.2939H32.9915V37.3951ZM35.9587 24.3515C35.9587 24.7926 35.5029 25.1513 34.9426 25.1513C32.6978 25.1513 5.09564 25.1513 2.87083 25.1513C2.31052 25.1513 1.85472 24.7926 1.85472 24.3515V21.5189C1.85472 21.0778 2.31052 20.7191 2.87083 20.7191H34.9426C35.5029 20.7191 35.9587 21.0778 35.9587 21.5189V24.3515Z" fill="black"/>
</svg>
