<svg width="12" height="12" viewBox="0 0 12 12" fill="none" xmlns="http://www.w3.org/2000/svg">
<path d="M4.38985 5.92306C4.57841 6.19592 4.52204 5.96856 4.52204 11.4074C4.52204 11.8941 5.07732 12.1726 5.46868 11.8815C7.14102 10.6206 7.47514 10.5114 7.47514 9.92169C7.47514 5.95831 7.42895 6.1812 7.60733 5.92306L10.323 2.22655H1.67419L4.38985 5.92306Z" fill="white"/>
<path d="M11.3489 0.301406C11.2519 0.115547 11.0616 0 10.8521 0H1.1453C0.692838 0 0.426611 0.510398 0.686158 0.88125C0.688291 0.884812 0.656697 0.84157 1.15772 1.52344H10.8396C11.2666 0.942352 11.552 0.691289 11.3489 0.301406Z" fill="white"/>
</svg>
