<svg width="57" height="57" viewBox="0 0 57 57" fill="none" xmlns="http://www.w3.org/2000/svg">
<g clip-path="url(#clip0)">
<path d="M28.0456 54.8539C42.8514 54.8539 54.8539 42.8514 54.8539 28.0456C54.8539 13.2398 42.8514 1.2373 28.0456 1.2373C13.2398 1.2373 1.2373 13.2398 1.2373 28.0456C1.2373 42.8514 13.2398 54.8539 28.0456 54.8539Z" stroke="black" stroke-width="2.47461" stroke-miterlimit="10"/>
<path d="M29.5719 7.83618C29.5719 7.83618 20.7994 11.8615 15.4666 18.3533C9.86162 25.175 7.86544 34.5496 15.4666 37.7377C19.5786 39.4617 20.8077 38.9833 25.3651 36.9129C25.3651 36.9129 25.4269 42.225 29.5719 43.0499C33.7169 43.8748 41.5861 40.1505 41.5861 31.8647C41.5861 23.5788 29.077 22.0652 29.5719 7.83618Z" stroke="black" stroke-width="2.06218" stroke-miterlimit="10"/>
<path d="M28.2516 10.1045C26.5317 12.7482 28.2186 19.31 28.6104 22.9807C28.928 25.9626 28.7548 29.5384 27.0844 32.6936C23.356 39.738 17.0499 48.9683 20.205 53.6742" stroke="black" stroke-width="2.06218" stroke-miterlimit="10" stroke-linecap="round"/>
<path d="M28.8457 30.7883L38.3565 28.5776" stroke="black" stroke-width="2.06218" stroke-miterlimit="10" stroke-linecap="round"/>
<path d="M29.0771 25.3647L35.6761 22.8901" stroke="black" stroke-width="2.06218" stroke-miterlimit="10" stroke-linecap="round"/>
<path d="M25.1338 36.9748L40.8311 34.6445" stroke="black" stroke-width="2.06218" stroke-miterlimit="10" stroke-linecap="round"/>
</g>
<defs>
<clipPath id="clip0">
<rect width="56.0912" height="56.0912" fill="white"/>
</clipPath>
</defs>
</svg>
