<svg width="57" height="57" viewBox="0 0 57 57" fill="none" xmlns="http://www.w3.org/2000/svg">
<path d="M28.8083 55.6166C43.6141 55.6166 55.6166 43.6141 55.6166 28.8083C55.6166 14.0025 43.6141 2 28.8083 2C14.0025 2 2 14.0025 2 28.8083C2 43.6141 14.0025 55.6166 28.8083 55.6166Z" stroke="black" stroke-width="2.47461" stroke-miterlimit="10"/>
<path d="M29 46C38.3888 46 46 38.3888 46 29C46 19.6112 38.3888 12 29 12C19.6112 12 12 19.6112 12 29C12 38.3888 19.6112 46 29 46Z" stroke="black" stroke-width="2" stroke-miterlimit="10"/>
<path d="M29.5 8.5V22" stroke="black" stroke-width="3" stroke-linejoin="bevel"/>
<path d="M8 29L21.5 29" stroke="black" stroke-width="3" stroke-linejoin="bevel"/>
<path d="M29.5 37V50.5" stroke="black" stroke-width="3" stroke-linejoin="bevel"/>
<path d="M36.5 29L50 29" stroke="black" stroke-width="3" stroke-linejoin="bevel"/>
</svg>
