<svg width="57" height="57" viewBox="0 0 57 57" fill="none" xmlns="http://www.w3.org/2000/svg">
<g clip-path="url(#clip0)">
<path d="M28.0456 54.8539C42.8514 54.8539 54.8539 42.8514 54.8539 28.0456C54.8539 13.2398 42.8514 1.2373 28.0456 1.2373C13.2398 1.2373 1.2373 13.2398 1.2373 28.0456C1.2373 42.8514 13.2398 54.8539 28.0456 54.8539Z" stroke="black" stroke-width="2.47461" stroke-miterlimit="10"/>
<path d="M37.2266 25.303C36.9255 24.8905 36.4512 24.6472 35.9398 24.6472H31.0689L29.5553 20.0114C29.279 19.1783 28.3799 18.7205 27.5468 18.9968C27.0683 19.1536 26.6889 19.533 26.5322 20.0114L25.0226 24.6472H20.1477C19.2692 24.6472 18.5557 25.3607 18.5557 26.2392C18.5557 26.7465 18.799 27.229 19.2114 27.526L23.1543 30.3924L21.6489 35.0282C21.3767 35.8654 21.8345 36.7604 22.6718 37.0326C23.1584 37.1894 23.6864 37.1069 24.0988 36.8058L28.0458 33.9435L31.9887 36.8099C32.5455 37.2224 33.3043 37.2224 33.8611 36.8099C34.4262 36.4099 34.6613 35.6881 34.4385 35.0323L32.9332 30.3924L36.876 27.526C37.5854 27.0105 37.7463 26.0165 37.2266 25.303ZM31.5309 29.4438C31.2504 29.6459 31.1349 30.0047 31.2422 30.3347L32.929 35.5231L28.516 32.3185C28.2355 32.1164 27.8602 32.1164 27.5797 32.3185L23.1667 35.5231L24.8494 30.3347C24.9567 30.0089 24.8412 29.6459 24.5607 29.4438L20.1477 26.2392H25.6001C25.9465 26.2392 26.2517 26.0165 26.3548 25.6907L28.0458 20.5022L29.7327 25.6865C29.8399 26.0124 30.1451 26.2351 30.4874 26.2351H35.9398L31.5309 29.4438Z" fill="black"/>
<path d="M46.11 29.1469C43.3715 27.2745 42.526 23.5543 44.1757 20.6755C45.1697 18.9474 44.65 17.2399 43.8375 16.2171C43.0209 15.1943 41.4701 14.3116 39.5647 14.8932C36.3931 15.8624 32.9533 14.2085 31.7367 11.1235C31.0025 9.26756 29.3487 8.60767 28.0412 8.60767C26.7338 8.60767 25.0758 9.26756 24.3458 11.1235C23.1291 14.2085 19.6894 15.8624 16.5178 14.8932C14.6123 14.3116 13.0616 15.1943 12.245 16.2171C11.4283 17.2399 10.9128 18.9474 11.9068 20.6755C13.5606 23.5502 12.711 27.2704 9.97245 29.1469C8.32683 30.2729 8.0505 32.0381 8.34333 33.3125C8.63203 34.587 9.64663 36.0552 11.6181 36.3563C14.8969 36.8554 17.2767 39.8414 17.0333 43.1491C16.889 45.1371 18.0933 46.4527 19.2729 47.0178C20.4524 47.5869 22.23 47.7106 23.6942 46.3579C24.9109 45.2319 26.474 44.671 28.0371 44.671C29.6002 44.671 31.1634 45.2319 32.3801 46.3579C33.8442 47.7106 35.6259 47.5869 36.8014 47.0178C37.9809 46.4486 39.1852 45.1371 39.0409 43.1491C38.8017 39.8414 41.1773 36.8595 44.4562 36.3563C46.4276 36.0552 47.4381 34.587 47.7309 33.3125C48.032 32.0381 47.7556 30.277 46.11 29.1469ZM28.0454 41.8128C20.8731 41.8128 15.0372 35.9769 15.0372 28.8046C15.0372 21.6324 20.8731 15.7964 28.0454 15.7964C35.2176 15.7964 41.0536 21.6324 41.0536 28.8046C41.0494 35.9769 35.2176 41.8128 28.0454 41.8128Z" stroke="black" stroke-width="1.64974" stroke-miterlimit="10"/>
</g>
<defs>
<clipPath id="clip0">
<rect width="56.0912" height="56.0912" fill="white"/>
</clipPath>
</defs>
</svg>
