<svg width="190" height="47" viewBox="0 0 190 47" fill="none" xmlns="http://www.w3.org/2000/svg">
<g clip-path="url(#clip0)">
<path fill-rule="evenodd" clip-rule="evenodd" d="M57.8096 39.7932C57.8096 40.4198 57.8879 40.9682 58.1229 41.4382C58.3579 41.9082 58.5929 42.3782 58.9846 42.7698C59.3762 43.1615 59.7679 43.3965 60.3162 43.6315C60.8646 43.8665 61.4129 43.9448 62.0396 43.9448C62.4312 43.9448 62.8229 43.8665 63.1362 43.7882C63.4496 43.7098 63.7629 43.6315 63.9979 43.4748C64.2329 43.3182 64.4679 43.2398 64.6246 43.0832C64.7812 42.9265 64.9379 42.8482 65.0162 42.7698C65.0946 42.6915 65.1729 42.6132 65.1729 42.6132L64.5462 41.5165C64.5462 41.5165 64.5462 41.5165 64.4679 41.5948C64.3896 41.6732 64.3112 41.7515 64.1546 41.8298C63.9979 41.9082 63.8412 42.0648 63.6846 42.1432C63.4496 42.2215 63.2929 42.2998 62.9796 42.3782C62.7446 42.4565 62.4312 42.4565 62.1962 42.4565C61.8046 42.4565 61.4129 42.3782 61.0996 42.2215C60.7862 42.0648 60.4729 41.9082 60.2379 41.5948C60.0029 41.3598 59.7679 41.0465 59.6896 40.7332C59.5329 40.4198 59.4546 40.0282 59.4546 39.6365C59.4546 39.2448 59.5329 38.8532 59.6896 38.5398C59.8462 38.2265 60.0029 37.9132 60.2379 37.6782C60.4729 37.4432 60.7862 37.2082 61.0996 37.1298C61.4129 36.9732 61.8046 36.8948 62.1962 36.8948C62.4312 36.8948 62.7446 36.8948 62.9012 36.9732C63.1362 37.0515 63.2929 37.1298 63.5279 37.2082C63.6846 37.2865 63.8412 37.3648 63.9979 37.4432C64.1546 37.5215 64.2329 37.5998 64.3112 37.6782C64.3896 37.7565 64.3896 37.7565 64.3896 37.7565L65.0946 36.7382C65.0946 36.7382 65.0946 36.6598 65.0162 36.5815C64.9379 36.5032 64.7812 36.4248 64.6246 36.2682C64.4679 36.1898 64.3112 36.0332 63.9979 35.9548C63.7629 35.8765 63.5279 35.7198 63.1362 35.6415C62.8229 35.5632 62.4312 35.5632 62.0396 35.4848C61.4129 35.4848 60.8646 35.5632 60.3162 35.7982C59.7679 36.0332 59.3762 36.2682 58.9846 36.6598C58.5929 37.0515 58.3579 37.4432 58.1229 37.9915C57.9662 38.6965 57.8096 39.2448 57.8096 39.7932ZM70.2646 43.7098H71.7529V37.0515H74.3379V35.8765H67.6796V37.0515H70.2646V43.7098ZM76.3746 46.5298C76.3746 46.5298 76.3746 46.5298 76.4529 46.6082C76.5312 46.6865 76.6096 46.6865 76.7662 46.7648C76.9229 46.8432 77.0796 46.9215 77.2362 46.9215C77.3929 46.9998 77.6279 46.9998 77.8629 46.9998C78.2546 46.9998 78.5679 46.9215 78.8812 46.7648C79.1946 46.6082 79.5079 46.4515 79.7429 46.1382C79.9779 45.9032 80.2129 45.5115 80.3696 45.1198L84.0512 35.8765H82.4062L80.5262 41.0465C80.4479 41.2032 80.4479 41.3598 80.3696 41.4382C80.2912 41.5948 80.2912 41.6732 80.2912 41.8298C80.2912 41.9082 80.2912 41.9865 80.2912 41.9865C80.2912 41.9865 80.2912 41.9082 80.2129 41.8298C80.2129 41.7515 80.1346 41.5948 80.1346 41.4382C80.0562 41.2815 80.0562 41.1248 79.9779 41.0465L78.0196 35.9548H76.2962L79.5862 43.7098L79.1946 44.5715C79.0379 44.9632 78.8812 45.1982 78.5679 45.4332C78.3329 45.6682 78.0196 45.7465 77.7846 45.7465C77.6279 45.7465 77.4712 45.7465 77.3146 45.6682C77.1579 45.5898 77.0796 45.5898 77.0012 45.5115C76.9229 45.4332 76.8446 45.4332 76.8446 45.4332L76.3746 46.5298ZM87.4979 43.7098H93.0596V45.1982H94.5479V42.4565H93.5296V35.7982H88.2812L87.5762 40.4982C87.4979 40.8115 87.4979 41.1248 87.4196 41.3598C87.3412 41.5948 87.3412 41.8298 87.1846 41.9865C87.1062 42.1432 86.9496 42.2998 86.7929 42.3782C86.6362 42.4565 86.4012 42.5348 86.0879 42.5348H85.8529V45.2765H87.3412V43.7098H87.4979ZM89.6129 37.2082H92.0412V42.5348H88.5162C88.5946 42.2998 88.7512 41.9865 88.8296 41.6732C88.9079 41.3598 88.9862 40.9682 89.0646 40.4982L89.6129 37.2082ZM104.888 35.8765H103.4L99.4829 41.5165L99.5612 35.8765H97.9946V43.7098H99.4829L103.4 38.0698L103.321 43.7098H104.888V35.8765ZM115.776 35.8765H112.721C112.33 35.8765 112.095 35.8765 111.86 35.8765C111.625 35.8765 111.39 35.8765 111.233 35.9548C111.076 35.9548 110.92 36.0332 110.841 36.0332C110.45 36.1115 110.215 36.2682 109.901 36.5032C109.666 36.7382 109.431 36.9732 109.275 37.2082C109.118 37.5215 109.04 37.8348 109.04 38.1482C109.04 38.5398 109.118 38.8532 109.275 39.1665C109.431 39.4798 109.666 39.7148 109.901 39.9498C110.136 40.1848 110.528 40.3415 110.841 40.4198C110.841 40.4198 110.841 40.4198 110.763 40.4982C110.685 40.5765 110.606 40.6548 110.528 40.7332L108.335 43.6315H109.98L112.173 40.6548H114.21V43.6315H115.698V35.8765H115.776ZM112.016 39.5582C111.703 39.5582 111.468 39.5582 111.233 39.4015C110.998 39.3232 110.841 39.1665 110.685 39.0098C110.528 38.8532 110.45 38.5398 110.45 38.2265C110.45 37.9915 110.528 37.8348 110.606 37.6782C110.685 37.5215 110.841 37.4432 110.92 37.2865C111.076 37.2082 111.233 37.1298 111.39 37.1298C111.546 37.0515 111.781 37.0515 111.938 37.0515H114.131V39.4798H112.016V39.5582ZM125.881 43.7098H127.448L128.153 38.3048L129.955 43.7098H131.286L133.166 38.3048L133.871 43.7098H135.36L134.341 35.8765H132.54L130.581 41.8298L128.623 35.8765H126.9L125.881 43.7098ZM138.493 39.7932C138.493 40.3415 138.571 40.8898 138.806 41.4382C139.041 41.9082 139.276 42.3782 139.668 42.7698C140.06 43.1615 140.451 43.3965 141 43.6315C141.47 43.8665 142.096 43.9448 142.723 43.9448C143.115 43.9448 143.428 43.8665 143.741 43.8665C144.055 43.7882 144.368 43.7098 144.603 43.5532C144.838 43.4748 145.073 43.3182 145.23 43.2398C145.386 43.1615 145.543 43.0048 145.621 42.9265C145.7 42.8482 145.778 42.8482 145.778 42.8482L145.151 41.7515C145.151 41.7515 145.151 41.7515 145.073 41.8298C144.995 41.9082 144.916 41.9865 144.76 42.0648C144.603 42.1432 144.446 42.2215 144.29 42.2998C144.133 42.3782 143.898 42.4565 143.663 42.5348C143.428 42.6132 143.193 42.6132 142.88 42.6132C142.566 42.6132 142.175 42.5348 141.861 42.4565C141.548 42.3782 141.235 42.2215 141 41.9865C140.765 41.7515 140.53 41.5165 140.373 41.2032C140.216 40.8898 140.138 40.4982 140.138 40.1065H145.856C145.856 40.1065 145.856 40.0282 145.856 39.9498C145.856 39.8715 145.856 39.7932 145.856 39.7148C145.856 39.6365 145.856 39.5582 145.856 39.4798C145.856 38.9315 145.778 38.4615 145.621 38.0698C145.465 37.5998 145.23 37.2082 144.995 36.8948C144.681 36.5815 144.368 36.2682 143.898 36.1115C143.506 35.9548 142.958 35.7982 142.41 35.7982C141.861 35.7982 141.313 35.8765 140.843 36.1115C140.373 36.2682 139.981 36.5815 139.59 36.9732C139.198 37.3648 138.963 37.7565 138.728 38.3048C138.571 38.6182 138.493 39.1665 138.493 39.7932ZM140.06 38.9315C140.138 38.5398 140.295 38.1482 140.53 37.8348C140.765 37.5215 141 37.2865 141.313 37.1298C141.626 36.9732 142.018 36.8948 142.331 36.8948C142.645 36.8948 142.958 36.9732 143.271 37.1298C143.585 37.2865 143.741 37.5215 143.976 37.7565C144.133 38.0698 144.211 38.4615 144.29 38.8532H140.06V38.9315ZM155.883 32.7432C155.648 32.8215 155.491 32.8998 155.335 32.9782C155.178 33.0565 155.021 33.0565 154.865 33.0565C154.708 33.0565 154.551 33.0565 154.395 33.0565C154.238 33.0565 154.081 33.0565 153.846 32.9782C153.611 32.9782 153.376 32.9782 153.063 32.9782C152.593 32.9782 152.123 33.0565 151.731 33.1348C151.261 33.2915 150.87 33.4482 150.556 33.7615C150.165 34.0748 149.851 34.4665 149.616 34.9365C149.381 35.4065 149.146 36.0332 148.99 36.7382C148.833 37.4432 148.833 38.3048 148.833 39.2448C148.833 39.9498 148.99 40.5765 149.146 41.1248C149.303 41.6732 149.538 42.0648 149.773 42.4565C150.008 42.8482 150.321 43.0832 150.635 43.3182C150.948 43.5532 151.261 43.7098 151.653 43.7882C152.045 43.8665 152.358 43.9448 152.75 43.9448C153.141 43.9448 153.533 43.8665 153.846 43.7882C154.238 43.7098 154.551 43.5532 154.943 43.3182C155.256 43.0832 155.57 42.8482 155.805 42.5348C156.04 42.2215 156.275 41.9082 156.431 41.4382C156.588 41.0465 156.666 40.5765 156.666 40.1065C156.666 39.4015 156.588 38.8532 156.353 38.3048C156.118 37.8348 155.883 37.3648 155.491 37.0515C155.1 36.7382 154.708 36.5032 154.238 36.3465C153.768 36.1898 153.22 36.1115 152.671 36.1115C152.358 36.1115 152.123 36.1898 151.81 36.2682C151.496 36.3465 151.261 36.5032 151.026 36.6598C150.791 36.8165 150.635 36.9732 150.478 37.1298C150.321 37.2865 150.243 37.4432 150.243 37.5215C150.243 36.8948 150.321 36.4248 150.478 36.0332C150.635 35.6415 150.791 35.2498 151.026 35.0148C151.261 34.7798 151.575 34.5448 151.888 34.4665C152.201 34.3098 152.593 34.3098 152.906 34.3098C153.141 34.3098 153.298 34.3098 153.533 34.3882C153.69 34.3882 153.925 34.4665 154.081 34.4665C154.238 34.4665 154.473 34.4665 154.708 34.4665C154.943 34.4665 155.256 34.3882 155.57 34.2315L155.883 32.7432ZM152.828 37.4432C153.141 37.4432 153.455 37.5215 153.768 37.5998C154.081 37.6782 154.316 37.9132 154.551 38.0698C154.786 38.3048 154.943 38.5398 155.1 38.9315C155.256 39.2448 155.256 39.6365 155.256 40.1065C155.256 40.4982 155.178 40.8898 155.021 41.2032C154.865 41.5165 154.708 41.7515 154.473 41.9865C154.238 42.2215 154.003 42.3782 153.69 42.4565C153.376 42.5348 153.141 42.6132 152.828 42.6132C152.593 42.6132 152.28 42.5348 152.045 42.4565C151.81 42.3782 151.496 42.2215 151.261 41.9865C151.026 41.7515 150.87 41.5165 150.713 41.2032C150.556 40.8898 150.478 40.4982 150.478 40.0282C150.478 39.6365 150.478 39.2448 150.635 38.9315C150.791 38.6182 150.87 38.3832 151.105 38.1482C151.261 37.9132 151.496 37.7565 151.731 37.6782C151.966 37.5215 152.201 37.4432 152.358 37.4432C152.515 37.4432 152.671 37.4432 152.828 37.4432ZM159.8 39.7932C159.8 40.3415 159.878 40.8898 160.113 41.4382C160.348 41.9082 160.583 42.3782 160.975 42.7698C161.366 43.1615 161.758 43.3965 162.306 43.6315C162.776 43.8665 163.403 43.9448 164.03 43.9448C164.421 43.9448 164.735 43.8665 165.048 43.8665C165.361 43.7882 165.675 43.7098 165.91 43.5532C166.145 43.4748 166.38 43.3182 166.536 43.2398C166.693 43.1615 166.85 43.0048 166.928 42.9265C167.006 42.8482 167.085 42.8482 167.085 42.8482L166.458 41.7515C166.458 41.7515 166.458 41.7515 166.38 41.8298C166.301 41.9082 166.223 41.9865 166.066 42.0648C165.91 42.1432 165.753 42.2215 165.596 42.2998C165.44 42.3782 165.205 42.4565 164.97 42.5348C164.735 42.6132 164.5 42.6132 164.186 42.6132C163.873 42.6132 163.481 42.5348 163.168 42.4565C162.855 42.3782 162.541 42.2215 162.306 41.9865C162.071 41.7515 161.836 41.5165 161.68 41.2032C161.523 40.8898 161.445 40.4982 161.445 40.1065H167.163C167.163 40.1065 167.163 40.0282 167.163 39.9498C167.163 39.8715 167.163 39.7932 167.163 39.7148C167.163 39.6365 167.163 39.5582 167.163 39.4798C167.163 38.9315 167.085 38.4615 166.928 38.0698C166.771 37.5998 166.536 37.2082 166.301 36.8948C165.988 36.5815 165.675 36.2682 165.205 36.1115C164.813 35.9548 164.265 35.7982 163.716 35.7982C163.168 35.7982 162.62 35.8765 162.15 36.1115C161.68 36.2682 161.288 36.5815 160.896 36.9732C160.505 37.3648 160.27 37.7565 160.035 38.3048C159.878 38.6182 159.8 39.1665 159.8 39.7932ZM161.366 38.9315C161.445 38.5398 161.601 38.1482 161.836 37.8348C162.071 37.5215 162.306 37.2865 162.62 37.1298C162.933 36.9732 163.325 36.8948 163.638 36.8948C163.951 36.8948 164.265 36.9732 164.578 37.1298C164.891 37.2865 165.048 37.5215 165.283 37.7565C165.44 38.0698 165.518 38.4615 165.596 38.8532H161.366V38.9315ZM173.195 37.2082H175.623V43.7882H177.19V35.8765H171.941L171.236 40.5765C171.158 40.8898 171.158 41.2032 171.08 41.4382C171.001 41.6732 170.923 41.9082 170.845 42.0648C170.766 42.2215 170.61 42.3782 170.453 42.4565C170.296 42.5348 170.061 42.6132 169.748 42.6132C169.748 42.6132 169.748 42.6915 169.748 42.7698C169.748 42.8482 169.748 43.0048 169.748 43.0832C169.748 43.2398 169.748 43.3182 169.748 43.4748C169.748 43.6315 169.748 43.7098 169.748 43.7882C169.748 43.8665 169.748 43.9448 169.748 43.9448C170.14 43.9448 170.531 43.9448 170.845 43.8665C171.158 43.7882 171.393 43.7098 171.628 43.5532C171.863 43.3965 172.02 43.2398 172.176 42.9265C172.333 42.6915 172.411 42.3782 172.568 41.9865C172.646 41.5948 172.725 41.1248 172.881 40.6548L173.195 37.2082ZM188.235 35.8765H186.746L182.83 41.5165L182.908 35.8765H181.341V43.7098H182.83L186.746 38.0698L186.668 43.7098H188.235V35.8765Z" fill="#004D77"/>
<path fill-rule="evenodd" clip-rule="evenodd" d="M25.8494 5.01311V40.5764L45.8244 26.8681L25.8494 5.01311ZM24.1261 40.5764V5.01311L4.1511 26.8681L24.1261 40.5764ZM49.2711 28.5131L25.9278 44.4931C25.3794 44.8848 24.5961 44.8848 24.0478 44.4931L0.70443 28.5131C0.626096 28.4348 0.547763 28.4348 0.547763 28.3564C-0.157237 27.7298 -0.157237 26.7114 0.46943 26.0064L23.7344 0.548107L23.8128 0.469774C24.5178 -0.156893 25.5361 -0.0785595 26.1628 0.548107L49.4278 25.9281C49.5061 26.0064 49.5844 26.0848 49.6628 26.1631C50.2111 27.0248 50.0544 28.0431 49.2711 28.5131Z" fill="#004D77"/>
<path fill-rule="evenodd" clip-rule="evenodd" d="M173.586 16.6067H185.101C185.101 14.8834 184.553 13.6301 183.535 12.6901C182.438 11.7501 181.185 11.3584 179.618 11.3584C178.051 11.3584 176.641 11.8284 175.466 12.7684C174.291 13.7084 173.586 15.0401 173.586 16.6067ZM189.331 19.9751H173.586C173.665 21.4634 174.37 22.6384 175.623 23.5001C176.876 24.3617 178.286 24.8317 179.853 24.8317C182.36 24.8317 184.318 24.0484 185.571 22.4817L188 25.0667C185.806 27.3384 182.986 28.4351 179.54 28.4351C176.72 28.4351 174.291 27.4951 172.333 25.6151C170.375 23.7351 169.356 21.2284 169.356 18.0167C169.356 14.8834 170.375 12.2984 172.411 10.4967C174.448 8.61674 176.798 7.67674 179.54 7.67674C182.281 7.67674 184.631 8.5384 186.511 10.1834C188.391 11.8284 189.41 14.1001 189.41 16.9984V19.9751H189.331ZM165.831 22.1684C165.831 24.0484 165.126 25.6151 163.716 26.7901C162.306 27.9651 160.583 28.5134 158.39 28.5134C156.901 28.5134 155.413 28.2784 153.846 27.7301C152.28 27.1817 150.87 26.4767 149.695 25.5367L151.731 22.2467C154.081 24.0484 156.353 24.9101 158.546 24.9101C159.486 24.9101 160.27 24.6751 160.818 24.2834C161.366 23.8134 161.68 23.2651 161.68 22.6384C161.68 21.6201 160.348 20.7584 157.685 19.8967C157.45 19.8184 157.293 19.7401 157.215 19.7401C153.063 18.6434 150.948 16.6851 150.948 14.1001C150.948 12.2201 151.653 10.7317 153.141 9.63507C154.63 8.5384 156.51 7.99007 158.781 7.99007C161.131 7.99007 163.325 8.69507 165.361 10.0267L163.795 13.1601C162.15 12.0634 160.348 11.5151 158.468 11.5151C157.45 11.5151 156.666 11.6717 156.04 12.0634C155.413 12.4551 155.1 13.0034 155.1 13.7084C155.1 14.3351 155.413 14.8051 156.118 15.1184C156.588 15.3534 157.215 15.5884 157.998 15.7451C158.781 15.9801 159.565 16.1367 160.191 16.3717C160.818 16.6067 161.445 16.7634 161.993 17.0767C162.62 17.3117 163.246 17.7034 163.873 18.1734C165.126 18.8001 165.831 20.2101 165.831 22.1684ZM141.156 18.9567V8.06841H145.386V28.2001H141.156V24.5184C140.451 25.7717 139.511 26.7117 138.336 27.4167C137.161 28.1217 135.83 28.5134 134.498 28.5134C132.226 28.5134 130.425 27.8084 129.015 26.3984C127.605 24.9884 126.9 23.0301 126.9 20.3667V8.06841H131.13V19.1134C131.13 22.7951 132.696 24.6751 135.751 24.6751C137.24 24.6751 138.493 24.2051 139.59 23.1867C140.608 22.2467 141.156 20.7584 141.156 18.9567ZM119.223 25.4584C117.186 27.4951 114.68 28.4351 111.625 28.4351C108.57 28.4351 106.063 27.4167 104.026 25.4584C101.99 23.4217 100.971 20.9934 100.971 18.0951C100.971 15.1967 101.99 12.7684 104.026 10.7317C106.063 8.69507 108.57 7.75507 111.625 7.75507C114.68 7.75507 117.186 8.77341 119.223 10.7317C121.26 12.7684 122.278 15.1967 122.278 18.0951C122.278 20.9934 121.26 23.4217 119.223 25.4584ZM107.081 22.8734C108.256 24.1267 109.823 24.6751 111.625 24.6751C113.426 24.6751 114.993 24.0484 116.168 22.8734C117.343 21.6201 117.97 20.0534 117.97 18.0951C117.97 16.1367 117.343 14.5701 116.168 13.3167C114.993 12.0634 113.426 11.5151 111.625 11.5151C109.823 11.5151 108.256 12.1417 107.081 13.3167C105.906 14.5701 105.28 16.1367 105.28 18.0951C105.28 20.0534 105.906 21.6201 107.081 22.8734ZM82.1712 17.2334V28.1217H77.9412V0.156738H82.1712V11.7501C82.7979 10.4967 83.6596 9.55674 84.9129 8.85174C86.1662 8.14674 87.4196 7.75507 88.8296 7.75507C91.1012 7.75507 92.9029 8.46007 94.3129 9.87007C95.7229 11.2801 96.4279 13.2384 96.4279 15.9017V28.2001H92.1979V17.0767C92.1979 13.3951 90.6312 11.5151 87.5762 11.5151C86.0879 11.5151 84.8346 11.9851 83.7379 13.0034C82.7196 13.9434 82.1712 15.4317 82.1712 17.2334ZM67.9929 0.156738H71.2829V8.38174H67.9146V0.156738H67.9929ZM57.8096 0.156738H62.2746V28.2001H57.8096V0.156738Z" fill="#004D77"/>
</g>
<defs>
<clipPath id="clip0">
<rect width="189.332" height="47" fill="white"/>
</clipPath>
</defs>
</svg>
