<svg width="339" height="94" viewBox="0 0 339 94" fill="none" xmlns="http://www.w3.org/2000/svg">
<path d="M211.095 81.7618H216.814V93.4792H218.894V81.7618H224.614V79.9391H210.835V81.7618H211.095ZM204.596 93.4792H206.676V79.6787H204.596V93.4792ZM197.317 89.313L187.698 79.6787H186.658V93.4792H188.738V83.8449L198.357 93.4792H199.396V79.6787H197.317V89.313ZM206.416 0.260388H197.057V43.7451L157.801 0.260388H152.862V61.9723H162.481V18.7479L201.476 61.9723H206.416V0.260388ZM237.092 11.7175L227.473 0H227.213V61.7119L237.092 49.9945V11.7175ZM266.469 87.2299H273.488V85.1468H266.469V81.7618H277.127V79.6787H264.389V93.4792H277.907V91.3961H266.729V87.2299H266.469ZM313.263 0.260388H301.564L281.807 23.9557L262.049 0.260388H250.35L275.827 30.9861L249.831 61.9723H261.269L281.807 37.7562L302.084 61.9723H313.783L287.786 30.7258L313.263 0.260388ZM248.011 85.4072V81.7618H255.29C256.07 81.7618 256.59 82.0222 256.85 82.2825C257.11 82.5429 257.37 83.0637 257.37 83.5845C257.37 84.1053 257.11 84.626 256.85 84.8864C256.59 85.1468 255.81 85.4072 255.29 85.4072H248.011ZM258.929 86.1884C259.449 85.4072 259.969 84.626 259.969 83.5845C259.969 82.2825 259.449 81.5014 258.669 80.7202C257.89 79.9391 256.85 79.6787 255.29 79.6787H245.931V93.4792H248.011V87.4903H253.99L257.89 93.4792H260.229L256.33 87.4903C257.63 87.2299 258.41 86.9695 258.929 86.1884ZM239.952 88.5319C239.952 89.8338 239.692 90.615 238.912 91.1357C238.392 91.6565 237.092 91.9169 235.272 91.9169C233.452 91.9169 232.153 91.6565 231.633 91.1357C231.113 90.615 230.593 89.8338 230.593 88.5319V79.6787H228.513V89.0526C228.513 90.8753 229.033 91.9169 230.073 92.6981C231.113 93.4792 232.933 93.7396 235.272 93.7396C237.612 93.7396 239.432 93.4792 240.472 92.6981C241.512 91.9169 242.031 90.615 242.031 89.0526V79.6787H239.952V88.5319ZM170.02 85.4072V81.7618H177.299C178.079 81.7618 178.599 82.0222 178.859 82.2825C179.119 82.5429 179.379 83.0637 179.379 83.5845C179.379 84.1053 179.119 84.626 178.859 84.8864C178.599 85.1468 177.819 85.4072 177.299 85.4072H170.02ZM180.679 86.1884C181.199 85.4072 181.719 84.626 181.719 83.5845C181.719 82.2825 181.459 81.5014 180.419 80.7202C179.639 79.9391 178.599 79.6787 177.039 79.6787H167.68V93.4792H169.76V87.4903H175.739L179.639 93.4792H181.979L178.079 87.4903C179.379 87.2299 180.159 86.9695 180.679 86.1884ZM104.508 87.2299H111.527V85.1468H104.508V81.7618H115.166V79.6787H102.428V93.4792H115.946V91.3961H104.768V87.2299H104.508ZM161.441 88.5319C161.441 89.8338 161.181 90.615 160.401 91.1357C159.881 91.6565 158.581 91.9169 156.762 91.9169C154.942 91.9169 153.642 91.6565 153.122 91.1357C152.602 90.615 152.082 89.8338 152.082 88.5319V79.6787H150.002V89.0526C150.002 90.8753 150.522 91.9169 151.562 92.6981C152.602 93.4792 154.422 93.7396 156.762 93.7396C159.101 93.7396 160.921 93.4792 161.961 92.6981C163.001 91.9169 163.521 90.615 163.521 89.0526V79.6787H161.441V88.5319ZM52.5138 81.5014H58.2331V93.2188H60.3129V81.5014H66.0322V79.6787H52.2538V81.5014H52.5138ZM9.61887 32.8089H40.8152C44.1948 32.8089 46.7945 33.59 48.6143 35.4127C50.4341 37.2355 51.4739 39.5789 51.4739 42.964C51.4739 46.0886 50.4341 48.6925 48.6143 50.5152C46.7945 52.3379 44.1948 53.1191 40.8152 53.1191H9.61887V32.8089ZM9.61887 9.11357H37.4356C40.5552 9.11357 42.8949 9.63435 44.4548 10.9363C46.0146 12.2382 46.7945 14.0609 46.7945 16.4044C46.7945 18.7479 46.0146 20.5706 44.4548 21.8726C42.8949 23.1745 40.5552 23.6953 37.4356 23.6953H9.61887V9.11357ZM55.6334 57.0249C59.533 53.6399 61.3528 49.2133 61.3528 43.4848C61.3528 40.0997 60.5729 36.9751 58.7531 34.1108C56.9333 31.2465 54.3336 28.903 50.954 27.0803C52.7738 25.7784 54.3336 24.2161 55.3735 22.3934C56.4133 20.5706 56.9333 18.2271 56.9333 15.6233C56.9333 10.6759 55.3735 6.77008 51.9939 4.1662C48.8742 1.56233 43.9348 0.260388 37.6956 0.260388H0V61.9723H39.7753C46.5345 61.9723 51.7339 60.1496 55.6334 57.0249ZM137.524 53.1191H86.8298V33.59H118.546V24.4765H86.8298V9.11357H134.924V0.260388H77.2109V61.9723H137.784V53.1191H137.524ZM47.8344 85.928C46.7945 85.1468 44.9747 84.8864 42.8949 84.8864C41.3351 84.8864 40.2952 84.626 39.5153 84.626C38.9954 84.3656 38.4755 83.8449 38.4755 83.3241C38.4755 82.8033 38.7354 82.2825 39.5153 82.0222C40.0353 81.7618 41.0752 81.5014 42.115 81.5014C42.8949 81.5014 43.9348 81.7618 44.9747 82.0222C46.0146 82.2825 46.7945 82.8033 47.8344 83.3241L48.8742 81.5014C47.8344 80.7202 46.7945 80.4598 45.7546 79.9391C44.7147 79.6787 43.4149 79.4183 42.375 79.4183C40.5552 79.4183 39.2554 79.6787 38.2155 80.4598C36.9156 81.241 36.3957 82.0222 36.3957 83.3241C36.3957 84.626 36.9156 85.4072 37.6956 85.928C38.7354 86.4488 40.2952 86.7091 42.8949 86.7091C44.4548 86.7091 45.4946 86.9695 46.0146 87.2299C46.7945 87.4903 47.0545 88.2715 47.0545 89.0526C47.0545 89.8338 46.7945 90.3546 46.0146 90.8753C45.2347 91.3961 44.1948 91.6565 43.1549 91.6565C42.115 91.6565 41.0752 91.3961 40.0353 91.1357C38.9954 90.8753 37.9555 90.3546 36.9156 89.5734L35.8758 91.3961C36.9156 92.1773 38.2155 92.6981 39.5153 92.9585C40.8152 93.2188 42.115 93.4792 43.4149 93.4792C45.2347 93.4792 46.7945 92.9585 47.8344 92.1773C48.8742 91.3961 49.3942 90.3546 49.3942 89.0526C49.3942 87.7507 48.8742 86.7091 47.8344 85.928ZM133.364 93.4792H135.444V87.2299H142.203V85.1468H135.444V81.7618H145.843V79.6787H133.104V93.4792H133.364ZM76.431 84.626L72.0115 79.6787H69.1518L75.3911 86.4488V93.4792H77.4709V86.4488L83.7101 79.6787H80.8505L76.431 84.626ZM88.9095 79.6787H86.8298V93.4792H99.0483V91.3961H88.9095V79.6787ZM328.081 8.5928V5.72853H331.981C332.501 5.72853 332.761 5.72853 333.021 5.98892C333.281 6.24931 333.541 6.5097 333.541 7.03047C333.541 7.55125 333.281 7.81163 333.021 8.07202C332.761 8.33241 332.241 8.33241 331.721 8.33241H328.081V8.5928ZM333.801 8.5928C334.061 8.07202 334.321 7.55125 334.321 7.03047C334.321 6.24931 334.061 5.72853 333.541 5.20776C333.021 4.68698 332.501 4.68698 331.721 4.68698H326.781V13.0194H327.821V9.63435H331.201L333.281 13.2798H334.321L332.241 9.63435C333.021 9.37396 333.541 9.11357 333.801 8.5928ZM330.161 16.6648C325.742 16.6648 322.362 13.0194 322.362 8.85319C322.362 4.42659 326.002 1.04155 330.161 1.04155C334.581 1.04155 337.96 4.68698 337.96 8.85319C338.22 13.0194 334.581 16.6648 330.161 16.6648ZM330.161 0C325.222 0 321.322 3.90582 321.322 8.85319C321.322 13.8006 325.222 17.7064 330.161 17.7064C335.1 17.7064 339 13.8006 339 8.85319C339 3.90582 335.1 0 330.161 0Z" fill="#747474"/>
</svg>
