<svg width="417" height="76" viewBox="0 0 417 76" fill="none" xmlns="http://www.w3.org/2000/svg">
<path d="M248.9 73.5567C240.1 76.5567 236.8 73.2567 234.7 66.1567C231.1 53.5567 226.7 41.2567 221.9 26.8567C214.3 44.2567 207.5 59.6567 200.8 75.0567C200 75.1567 199.2 75.1567 198.4 75.2567C191.6 59.7567 184.7 44.3567 177.1 27.0567C172.2 41.7567 167.5 54.2567 164 67.1567C162.1 74.1567 158.6 75.9567 150.4 73.6567C158.5 49.3567 166.6 25.1567 174.6 0.956738C175.3 0.856738 176.1 0.856738 176.8 0.756738C184.1 17.7567 191.4 34.7567 199.5 53.5567C207.5 35.0567 214.9 17.9567 222.2 0.956738C222.9 0.856738 223.6 0.756738 224.3 0.656738C232.5 24.8567 240.6 49.0567 248.9 73.5567Z" fill="#747474"/>
<path d="M405.6 48.0567C402 48.0567 398.8 48.3567 395.8 48.1567C394.1 48.0567 394.8 48.3567 394.5 43.5567C394.9 39.2567 393.7 39.0567 396 38.9567C402.6 38.7567 409.1 38.7567 416.9 38.7567C416.9 47.2567 417.1 54.9567 416.8 62.5567C416.7 64.2567 415.4 66.3567 414.1 67.5567C402.6 78.3567 377.3 77.3567 365.5 65.7567C351.8 52.3567 351.2 25.6567 364.2 11.0567C375.5 -1.64328 399.5 -3.84328 412.4 6.75673C413.5 7.65673 414.3 8.85672 415.3 9.85672C412.7 17.3567 408.9 16.0567 403.4 12.9567C392.7 7.15672 380.2 9.15672 373.1 17.1567C364.7 26.4567 363.4 43.3567 370.1 54.4567C375.7 63.7567 386.9 67.9567 397.9 64.8567C407 62.1567 407.2 61.6567 405.6 48.0567Z" fill="#747474"/>
<path d="M289.3 43.2568C289.3 50.7568 289.3 57.1568 289.3 64.8568C301.4 64.8568 313.4 64.8568 325.9 64.8568C326.2 68.3568 326.3 70.7568 326.6 73.9568C310.6 73.9568 295.3 73.9568 279.2 73.9568C279.2 50.2568 279.2 26.4568 279.2 2.25684C294.7 2.25684 309.9 2.25684 325.9 2.25684C326.1 4.55684 326.4 6.95684 326.8 10.4568C314.2 10.4568 302.3 10.4568 289.6 10.4568C289.6 18.4568 289.6 25.4568 289.6 33.6568C296.8 33.6568 309.6 33.5568 316.7 33.5568C316.7 33.5568 317.4 35.3568 317 43.3568C308 43.2568 298.9 43.2568 289.3 43.2568Z" fill="#747474"/>
<path d="M127.6 73.6568C119.3 76.3568 115.5 73.7568 112.9 66.6568C107.6 52.0568 101.5 37.7568 95.1 21.8568C88.5 37.8568 82.3 52.3568 76.8 67.1568C74.3 74.0568 70.5 76.1568 62.5 73.3568C73 48.9568 83.4 24.6568 93.7 0.256836C94.5 0.356836 95.4 0.356836 96.2 0.456836C106.6 24.6568 117 48.8568 127.6 73.6568Z" fill="#747474"/>
<path d="M47 2.25684C47 4.95684 47 7.15684 47 10.4568C35 10.4568 23.1 10.4568 10.5 10.4568C10.5 18.5568 10.5 25.5568 10.5 33.5568C19.9 33.5568 29 33.5568 38 33.5568C40.5 40.5568 39.2 43.6568 32 43.3568C25 42.9568 18.1 43.2568 10 43.2568C10 53.7568 10 63.6568 10 74.1568C6.1 74.1568 3.4 74.1568 0 74.1568C0 50.2568 0 26.5568 0 2.25684C15.7 2.25684 31.1 2.25684 47 2.25684Z" fill="#747474"/>
</svg>
