<svg width="320" height="79" viewBox="0 0 320 79" fill="none" xmlns="http://www.w3.org/2000/svg">
<path d="M60.1571 20.6009C56.9248 17.0181 50.9989 10.5692 39.6857 10.5692C23.8833 10.5692 11.6723 23.6463 11.6723 39.5896C11.8519 56.4286 25.1403 68.0726 39.5062 68.0726C43.4568 68.0726 59.0797 66.2812 62.312 49.9796H38.4287V39.7687H75.78C75.78 65.7438 58.7205 79 39.3266 79C16.8799 79 0 61.0862 0 39.7687C0 17.7347 17.0595 0 38.9675 0C49.9214 0 61.4141 4.83674 69.1358 14.5102L60.1571 20.6009Z" fill="#747474"/>
<path d="M108.283 28.8414C94.995 28.8414 88.71 40.3062 88.71 49.2631C88.71 59.474 96.7908 69.3266 108.283 69.3266C119.597 69.3266 128.216 60.1906 128.216 49.2631C128.037 37.0817 119.237 28.8414 108.283 28.8414ZM127.857 77.567V68.7892H127.677C123.547 75.7756 116.005 79.0001 108.283 79.0001C89.0691 79.0001 77.9355 64.3108 77.9355 49.2631C77.9355 35.2904 87.8121 18.9888 108.283 18.9888C116.185 18.9888 123.547 22.2133 127.677 28.4831H127.857V20.7802H137.554V77.3879H127.857V77.567Z" fill="#747474"/>
<path d="M175.803 69.3263C186.039 69.3263 195.377 60.5485 195.377 49.0837C195.377 38.3354 187.116 28.841 175.803 28.841C164.131 28.841 156.23 38.8728 156.23 48.9045C156.23 61.8025 166.106 69.3263 175.803 69.3263ZM145.814 77.5667V1.43286H156.589V28.4827H156.768C161.437 22.0338 168.62 18.9884 176.342 18.9884C191.426 18.9884 205.972 31.5281 205.972 49.0837C205.972 65.5644 193.222 78.9998 176.522 78.9998C171.314 78.9998 162.515 77.2084 156.589 69.3263H156.409V77.5667H145.814Z" fill="#747474"/>
<path d="M258.047 45.5012C257.508 37.0817 249.966 28.8414 239.551 28.8414C229.315 28.8414 221.593 37.2609 221.055 45.5012H258.047ZM264.511 64.669C258.226 75.4173 247.272 79.0001 239.371 79.0001C223.21 79.0001 210.28 65.0273 210.28 48.9049C210.28 31.8867 223.569 18.9888 239.551 18.9888C254.994 18.9888 268.462 31.5284 268.642 48.1883C268.642 49.9797 268.462 52.8459 268.282 53.5625H220.875C223.569 64.4899 232.368 69.1475 239.73 69.1475C247.632 69.1475 253.378 64.4899 256.072 59.6532L264.511 64.669Z" fill="#747474"/>
<path d="M273.132 77.5668V20.9591H283.188V25.7958H283.368C287.857 19.3469 295.219 19.1677 297.913 19.1677V30.0952C296.297 30.0952 292.705 30.8117 290.191 32.0657C286.779 33.8571 283.906 38.1564 283.906 46.3968V77.5668H273.132Z" fill="#747474"/>
<path d="M308.508 24.0043H310.842C312.099 24.0043 313.356 24.1834 313.356 25.6165C313.356 27.4079 311.92 27.4079 310.483 27.4079H308.687V24.0043H308.508ZM306.712 33.6777H308.508V28.841H310.304L313.356 33.6777H315.152L311.92 28.841C313.536 28.6619 314.793 27.7662 314.793 25.7957C314.793 23.646 313.536 22.5712 310.842 22.5712H306.533V33.6777H306.712ZM302.582 28.1245C302.582 23.646 305.994 20.0632 310.483 20.0632C314.793 20.0632 318.205 23.646 318.205 28.1245C318.205 32.7821 314.793 36.1857 310.483 36.1857C305.994 36.1857 302.582 32.7821 302.582 28.1245ZM300.966 28.1245C300.966 33.4986 305.276 37.6188 310.483 37.6188C315.691 37.6188 320.001 33.4986 320.001 28.1245C320.001 22.7503 315.691 18.6301 310.483 18.6301C305.276 18.6301 300.966 22.7503 300.966 28.1245Z" fill="#747474"/>
</svg>
