<svg width="175" height="54" viewBox="0 0 175 54" fill="none" xmlns="http://www.w3.org/2000/svg">
<path d="M4.584 3.6C5.672 3.6 6.528 3.86 7.152 4.38C7.776 4.9 8.088 5.616 8.088 6.528C8.088 7.44 7.776 8.156 7.152 8.676C6.528 9.196 5.672 9.456 4.584 9.456H2.508V12H1.308V3.6H4.584ZM4.548 8.412C5.308 8.412 5.888 8.252 6.288 7.932C6.688 7.604 6.888 7.136 6.888 6.528C6.888 5.92 6.688 5.456 6.288 5.136C5.888 4.808 5.308 4.644 4.548 4.644H2.508V8.412H4.548ZM11.7746 5.58C12.6546 5.58 13.3266 5.796 13.7906 6.228C14.2626 6.66 14.4986 7.304 14.4986 8.16V12H13.4066V11.16C13.2146 11.456 12.9386 11.684 12.5786 11.844C12.2266 11.996 11.8066 12.072 11.3186 12.072C10.6066 12.072 10.0346 11.9 9.60263 11.556C9.17863 11.212 8.96663 10.76 8.96663 10.2C8.96663 9.64 9.17063 9.192 9.57863 8.856C9.98663 8.512 10.6346 8.34 11.5226 8.34H13.3466V8.112C13.3466 7.616 13.2026 7.236 12.9146 6.972C12.6266 6.708 12.2026 6.576 11.6426 6.576C11.2666 6.576 10.8986 6.64 10.5386 6.768C10.1786 6.888 9.87463 7.052 9.62663 7.26L9.14663 6.396C9.47463 6.132 9.86663 5.932 10.3226 5.796C10.7786 5.652 11.2626 5.58 11.7746 5.58ZM11.5106 11.184C11.9506 11.184 12.3306 11.088 12.6506 10.896C12.9706 10.696 13.2026 10.416 13.3466 10.056V9.168H11.5706C10.5946 9.168 10.1066 9.496 10.1066 10.152C10.1066 10.472 10.2306 10.724 10.4786 10.908C10.7266 11.092 11.0706 11.184 11.5106 11.184ZM19.9116 8.688C20.3356 8.8 20.6636 8.98 20.8956 9.228C21.1276 9.476 21.2436 9.784 21.2436 10.152C21.2436 10.528 21.1156 10.864 20.8596 11.16C20.6036 11.448 20.2476 11.676 19.7916 11.844C19.3436 12.004 18.8396 12.084 18.2796 12.084C17.8076 12.084 17.3436 12.024 16.8876 11.904C16.4396 11.776 16.0396 11.596 15.6876 11.364L16.0356 10.488C16.3396 10.68 16.6876 10.832 17.0796 10.944C17.4716 11.048 17.8676 11.1 18.2676 11.1C18.8116 11.1 19.2436 11.008 19.5636 10.824C19.8916 10.632 20.0556 10.376 20.0556 10.056C20.0556 9.76 19.9236 9.532 19.6596 9.372C19.4036 9.212 19.0396 9.132 18.5676 9.132H17.4036V8.304H18.4836C18.9156 8.304 19.2556 8.228 19.5036 8.076C19.7516 7.924 19.8756 7.716 19.8756 7.452C19.8756 7.164 19.7276 6.94 19.4316 6.78C19.1436 6.62 18.7516 6.54 18.2556 6.54C17.6236 6.54 16.9556 6.704 16.2516 7.032L15.9396 6.144C16.7156 5.752 17.5276 5.556 18.3756 5.556C18.8876 5.556 19.3476 5.628 19.7556 5.772C20.1636 5.916 20.4836 6.12 20.7156 6.384C20.9476 6.648 21.0636 6.948 21.0636 7.284C21.0636 7.596 20.9596 7.876 20.7516 8.124C20.5436 8.372 20.2636 8.56 19.9116 8.688ZM26.3669 5.58C26.9829 5.58 27.5349 5.716 28.0229 5.988C28.5109 6.26 28.8909 6.64 29.1629 7.128C29.4429 7.616 29.5829 8.18 29.5829 8.82C29.5829 9.46 29.4429 10.028 29.1629 10.524C28.8909 11.012 28.5109 11.392 28.0229 11.664C27.5349 11.936 26.9829 12.072 26.3669 12.072C25.9109 12.072 25.4909 11.984 25.1069 11.808C24.7309 11.632 24.4109 11.376 24.1469 11.04V14.328H22.9949V5.64H24.0989V6.648C24.3549 6.296 24.6789 6.032 25.0709 5.856C25.4629 5.672 25.8949 5.58 26.3669 5.58ZM26.2709 11.064C26.6789 11.064 27.0429 10.972 27.3629 10.788C27.6909 10.596 27.9469 10.332 28.1309 9.996C28.3229 9.652 28.4189 9.26 28.4189 8.82C28.4189 8.38 28.3229 7.992 28.1309 7.656C27.9469 7.312 27.6909 7.048 27.3629 6.864C27.0429 6.68 26.6789 6.588 26.2709 6.588C25.8709 6.588 25.5069 6.684 25.1789 6.876C24.8589 7.06 24.6029 7.32 24.4109 7.656C24.2269 7.992 24.1349 8.38 24.1349 8.82C24.1349 9.26 24.2269 9.652 24.4109 9.996C24.5949 10.332 24.8509 10.596 25.1789 10.788C25.5069 10.972 25.8709 11.064 26.2709 11.064ZM33.466 5.58C34.346 5.58 35.018 5.796 35.482 6.228C35.954 6.66 36.19 7.304 36.19 8.16V12H35.098V11.16C34.906 11.456 34.63 11.684 34.27 11.844C33.918 11.996 33.498 12.072 33.01 12.072C32.298 12.072 31.726 11.9 31.294 11.556C30.87 11.212 30.658 10.76 30.658 10.2C30.658 9.64 30.862 9.192 31.27 8.856C31.678 8.512 32.326 8.34 33.214 8.34H35.038V8.112C35.038 7.616 34.894 7.236 34.606 6.972C34.318 6.708 33.894 6.576 33.334 6.576C32.958 6.576 32.59 6.64 32.23 6.768C31.87 6.888 31.566 7.052 31.318 7.26L30.838 6.396C31.166 6.132 31.558 5.932 32.014 5.796C32.47 5.652 32.954 5.58 33.466 5.58ZM33.202 11.184C33.642 11.184 34.022 11.088 34.342 10.896C34.662 10.696 34.894 10.416 35.038 10.056V9.168H33.262C32.286 9.168 31.798 9.496 31.798 10.152C31.798 10.472 31.922 10.724 32.17 10.908C32.418 11.092 32.762 11.184 33.202 11.184ZM41.5044 5.856C42.0964 5.856 42.6244 5.988 43.0884 6.252C43.5524 6.516 43.9124 6.884 44.1684 7.356C44.4324 7.82 44.5644 8.352 44.5644 8.952C44.5644 9.568 44.4244 10.116 44.1444 10.596C43.8724 11.068 43.4844 11.436 42.9804 11.7C42.4844 11.964 41.9164 12.096 41.2764 12.096C40.1964 12.096 39.3604 11.728 38.7684 10.992C38.1844 10.248 37.8924 9.204 37.8924 7.86C37.8924 6.556 38.1604 5.536 38.6964 4.8C39.2324 4.056 40.0524 3.564 41.1564 3.324L44.0604 2.676L44.2284 3.732L41.5524 4.308C40.7204 4.492 40.1004 4.804 39.6924 5.244C39.2844 5.684 39.0524 6.316 38.9964 7.14C39.2684 6.732 39.6204 6.416 40.0524 6.192C40.4844 5.968 40.9684 5.856 41.5044 5.856ZM41.3004 11.136C41.7084 11.136 42.0684 11.044 42.3804 10.86C42.7004 10.676 42.9484 10.424 43.1244 10.104C43.3004 9.776 43.3884 9.404 43.3884 8.988C43.3884 8.356 43.1964 7.848 42.8124 7.464C42.4284 7.08 41.9244 6.888 41.3004 6.888C40.6764 6.888 40.1684 7.08 39.7764 7.464C39.3924 7.848 39.2004 8.356 39.2004 8.988C39.2004 9.404 39.2884 9.776 39.4644 10.104C39.6484 10.424 39.9004 10.676 40.2204 10.86C40.5404 11.044 40.9004 11.136 41.3004 11.136ZM48.9338 12.072C48.3018 12.072 47.7338 11.932 47.2298 11.652C46.7258 11.372 46.3298 10.988 46.0418 10.5C45.7618 10.004 45.6218 9.444 45.6218 8.82C45.6218 8.196 45.7618 7.64 46.0418 7.152C46.3298 6.656 46.7258 6.272 47.2298 6C47.7338 5.72 48.3018 5.58 48.9338 5.58C49.5658 5.58 50.1298 5.72 50.6258 6C51.1298 6.272 51.5218 6.656 51.8018 7.152C52.0898 7.64 52.2338 8.196 52.2338 8.82C52.2338 9.444 52.0898 10.004 51.8018 10.5C51.5218 10.988 51.1298 11.372 50.6258 11.652C50.1298 11.932 49.5658 12.072 48.9338 12.072ZM48.9338 11.064C49.3418 11.064 49.7058 10.972 50.0258 10.788C50.3538 10.596 50.6098 10.332 50.7938 9.996C50.9778 9.652 51.0698 9.26 51.0698 8.82C51.0698 8.38 50.9778 7.992 50.7938 7.656C50.6098 7.312 50.3538 7.048 50.0258 6.864C49.7058 6.68 49.3418 6.588 48.9338 6.588C48.5258 6.588 48.1578 6.68 47.8298 6.864C47.5098 7.048 47.2538 7.312 47.0618 7.656C46.8778 7.992 46.7858 8.38 46.7858 8.82C46.7858 9.26 46.8778 9.652 47.0618 9.996C47.2538 10.332 47.5098 10.596 47.8298 10.788C48.1578 10.972 48.5258 11.064 48.9338 11.064ZM58.4029 6.648H56.0749V12H54.9229V6.648H52.5949V5.64H58.4029V6.648ZM61.8488 5.58C62.7288 5.58 63.4008 5.796 63.8648 6.228C64.3368 6.66 64.5728 7.304 64.5728 8.16V12H63.4808V11.16C63.2888 11.456 63.0128 11.684 62.6528 11.844C62.3008 11.996 61.8808 12.072 61.3928 12.072C60.6808 12.072 60.1088 11.9 59.6768 11.556C59.2528 11.212 59.0408 10.76 59.0408 10.2C59.0408 9.64 59.2448 9.192 59.6528 8.856C60.0608 8.512 60.7088 8.34 61.5968 8.34H63.4208V8.112C63.4208 7.616 63.2768 7.236 62.9888 6.972C62.7008 6.708 62.2768 6.576 61.7168 6.576C61.3408 6.576 60.9728 6.64 60.6128 6.768C60.2528 6.888 59.9488 7.052 59.7008 7.26L59.2208 6.396C59.5488 6.132 59.9408 5.932 60.3968 5.796C60.8528 5.652 61.3368 5.58 61.8488 5.58ZM61.5848 11.184C62.0248 11.184 62.4048 11.088 62.7248 10.896C63.0448 10.696 63.2768 10.416 63.4208 10.056V9.168H61.6448C60.6688 9.168 60.1808 9.496 60.1808 10.152C60.1808 10.472 60.3048 10.724 60.5528 10.908C60.8008 11.092 61.1448 11.184 61.5848 11.184ZM66.6473 5.64H67.7993V8.34H71.4233V5.64H72.5753V12H71.4233V9.336H67.7993V12H66.6473V5.64ZM77.5392 12.072C76.9072 12.072 76.3392 11.932 75.8352 11.652C75.3312 11.372 74.9352 10.988 74.6472 10.5C74.3672 10.004 74.2272 9.444 74.2272 8.82C74.2272 8.196 74.3672 7.64 74.6472 7.152C74.9352 6.656 75.3312 6.272 75.8352 6C76.3392 5.72 76.9072 5.58 77.5392 5.58C78.1712 5.58 78.7352 5.72 79.2312 6C79.7352 6.272 80.1272 6.656 80.4072 7.152C80.6952 7.64 80.8392 8.196 80.8392 8.82C80.8392 9.444 80.6952 10.004 80.4072 10.5C80.1272 10.988 79.7352 11.372 79.2312 11.652C78.7352 11.932 78.1712 12.072 77.5392 12.072ZM77.5392 11.064C77.9472 11.064 78.3112 10.972 78.6312 10.788C78.9592 10.596 79.2152 10.332 79.3992 9.996C79.5832 9.652 79.6752 9.26 79.6752 8.82C79.6752 8.38 79.5832 7.992 79.3992 7.656C79.2152 7.312 78.9592 7.048 78.6312 6.864C78.3112 6.68 77.9472 6.588 77.5392 6.588C77.1312 6.588 76.7632 6.68 76.4352 6.864C76.1152 7.048 75.8592 7.312 75.6672 7.656C75.4832 7.992 75.3912 8.38 75.3912 8.82C75.3912 9.26 75.4832 9.652 75.6672 9.996C75.8592 10.332 76.1152 10.596 76.4352 10.788C76.7632 10.972 77.1312 11.064 77.5392 11.064ZM3.588 24.312H2.268V27H1.116V20.64H2.268V23.328H3.612L5.676 20.64H6.912L4.5 23.7L7.08 27H5.724L3.588 24.312ZM10.8009 27.072C10.1689 27.072 9.60094 26.932 9.09694 26.652C8.59294 26.372 8.19694 25.988 7.90894 25.5C7.62894 25.004 7.48894 24.444 7.48894 23.82C7.48894 23.196 7.62894 22.64 7.90894 22.152C8.19694 21.656 8.59294 21.272 9.09694 21C9.60094 20.72 10.1689 20.58 10.8009 20.58C11.4329 20.58 11.9969 20.72 12.4929 21C12.9969 21.272 13.3889 21.656 13.6689 22.152C13.9569 22.64 14.1009 23.196 14.1009 23.82C14.1009 24.444 13.9569 25.004 13.6689 25.5C13.3889 25.988 12.9969 26.372 12.4929 26.652C11.9969 26.932 11.4329 27.072 10.8009 27.072ZM10.8009 26.064C11.2089 26.064 11.5729 25.972 11.8929 25.788C12.2209 25.596 12.4769 25.332 12.6609 24.996C12.8449 24.652 12.9369 24.26 12.9369 23.82C12.9369 23.38 12.8449 22.992 12.6609 22.656C12.4769 22.312 12.2209 22.048 11.8929 21.864C11.5729 21.68 11.2089 21.588 10.8009 21.588C10.3929 21.588 10.0249 21.68 9.69694 21.864C9.37694 22.048 9.12094 22.312 8.92894 22.656C8.74494 22.992 8.65294 23.38 8.65294 23.82C8.65294 24.26 8.74494 24.652 8.92894 24.996C9.12094 25.332 9.37694 25.596 9.69694 25.788C10.0249 25.972 10.3929 26.064 10.8009 26.064ZM23.0964 20.64V27H22.0524V22.356L19.6764 26.28H19.1724L16.8204 22.344V27H15.7644V20.64H16.9524L19.4484 24.936L22.0164 20.64H23.0964ZM27.6067 20.58C28.4867 20.58 29.1587 20.796 29.6227 21.228C30.0947 21.66 30.3307 22.304 30.3307 23.16V27H29.2387V26.16C29.0467 26.456 28.7707 26.684 28.4107 26.844C28.0587 26.996 27.6387 27.072 27.1507 27.072C26.4387 27.072 25.8667 26.9 25.4347 26.556C25.0107 26.212 24.7987 25.76 24.7987 25.2C24.7987 24.64 25.0027 24.192 25.4107 23.856C25.8187 23.512 26.4667 23.34 27.3547 23.34H29.1787V23.112C29.1787 22.616 29.0347 22.236 28.7467 21.972C28.4587 21.708 28.0347 21.576 27.4747 21.576C27.0987 21.576 26.7307 21.64 26.3707 21.768C26.0107 21.888 25.7067 22.052 25.4587 22.26L24.9787 21.396C25.3067 21.132 25.6987 20.932 26.1547 20.796C26.6107 20.652 27.0947 20.58 27.6067 20.58ZM27.3427 26.184C27.7827 26.184 28.1627 26.088 28.4827 25.896C28.8027 25.696 29.0347 25.416 29.1787 25.056V24.168H27.4027C26.4267 24.168 25.9387 24.496 25.9387 25.152C25.9387 25.472 26.0627 25.724 26.3107 25.908C26.5587 26.092 26.9027 26.184 27.3427 26.184ZM32.4051 20.64H33.5571V23.34H37.1811V20.64H38.3331V27H37.1811V24.336H33.5571V27H32.4051V20.64ZM47.041 25.992V28.476H45.961V27H40.645V28.476H39.553V25.992H39.889C40.297 25.968 40.577 25.68 40.729 25.128C40.881 24.576 40.985 23.796 41.041 22.788L41.137 20.64H46.069V25.992H47.041ZM42.097 22.872C42.065 23.672 41.997 24.336 41.893 24.864C41.797 25.384 41.617 25.76 41.353 25.992H44.917V21.648H42.157L42.097 22.872ZM51.2658 27.072C50.6338 27.072 50.0658 26.932 49.5618 26.652C49.0578 26.372 48.6618 25.988 48.3738 25.5C48.0938 25.004 47.9538 24.444 47.9538 23.82C47.9538 23.196 48.0938 22.64 48.3738 22.152C48.6618 21.656 49.0578 21.272 49.5618 21C50.0658 20.72 50.6338 20.58 51.2658 20.58C51.8978 20.58 52.4618 20.72 52.9578 21C53.4618 21.272 53.8538 21.656 54.1338 22.152C54.4218 22.64 54.5658 23.196 54.5658 23.82C54.5658 24.444 54.4218 25.004 54.1338 25.5C53.8538 25.988 53.4618 26.372 52.9578 26.652C52.4618 26.932 51.8978 27.072 51.2658 27.072ZM51.2658 26.064C51.6738 26.064 52.0378 25.972 52.3578 25.788C52.6858 25.596 52.9418 25.332 53.1258 24.996C53.3098 24.652 53.4018 24.26 53.4018 23.82C53.4018 23.38 53.3098 22.992 53.1258 22.656C52.9418 22.312 52.6858 22.048 52.3578 21.864C52.0378 21.68 51.6738 21.588 51.2658 21.588C50.8578 21.588 50.4898 21.68 50.1618 21.864C49.8418 22.048 49.5858 22.312 49.3938 22.656C49.2098 22.992 49.1178 23.38 49.1178 23.82C49.1178 24.26 49.2098 24.652 49.3938 24.996C49.5858 25.332 49.8418 25.596 50.1618 25.788C50.4898 25.972 50.8578 26.064 51.2658 26.064ZM56.2293 20.64H57.3813V25.272L61.2813 20.64H62.3253V27H61.1733V22.368L57.2853 27H56.2293V20.64ZM59.2053 19.812C58.6133 19.812 58.1533 19.672 57.8253 19.392C57.4973 19.104 57.3293 18.692 57.3213 18.156H58.1013C58.1093 18.452 58.2093 18.692 58.4013 18.876C58.6013 19.052 58.8653 19.14 59.1933 19.14C59.5213 19.14 59.7853 19.052 59.9853 18.876C60.1853 18.692 60.2893 18.452 60.2973 18.156H61.1013C61.0933 18.692 60.9213 19.104 60.5853 19.392C60.2493 19.672 59.7893 19.812 59.2053 19.812Z" fill="white"/>
<path d="M149.748 15.8647C149.748 9.24382 146.336 4.98535 140.886 4.98535H135.044V8.7047L136.218 12.2908V6.16658H140.746C145.526 6.16658 148.517 9.92681 148.517 15.8647C148.517 21.8632 145.526 25.5947 140.746 25.5947H140.572L140.947 26.7426C146.361 26.7108 149.748 22.4917 149.748 15.8647Z" fill="white"/>
<path d="M125.634 4.98535L121.745 15.7997L122.336 17.6048L126.277 6.44523L130.834 19.3464H122.905L123.292 20.5276H131.254L133.461 26.7442H134.748L126.92 4.98535H125.634Z" fill="white"/>
<path d="M109.673 17.0455L115.181 26.7452H116.551L110.903 16.8607C113.726 16.0838 115.376 14.1257 115.376 11.0788C115.376 7.25641 112.803 4.98633 108.415 4.98633H102.824V8.96617L103.998 12.5523V6.16604H108.303C112.16 6.16604 114.202 8.0015 114.202 11.0772C114.202 14.0924 112.16 15.9581 108.303 15.9581H105.112L105.499 17.1394H107.715C108.415 17.1409 109.059 17.1091 109.673 17.0455Z" fill="white"/>
<path d="M155.735 20.7306L154.317 16.6096H154.294C154.321 16.9367 154.333 17.3245 154.333 17.7728V20.7306H153.884V16.0811H154.617L155.94 19.9158H155.964L157.298 16.0811H158.024V20.7306H157.538V17.7349C157.538 17.3911 157.552 17.0185 157.577 16.6157H157.554L156.124 20.7306H155.735Z" fill="white"/>
<path d="M161.941 20.7306H159.611V16.0811H161.941V16.5612H160.097V18.059H161.829V18.5361H160.097V20.2474H161.941V20.7306Z" fill="white"/>
<path d="M166.643 18.3619C166.643 19.1297 166.456 19.7159 166.081 20.1217C165.707 20.5276 165.167 20.7306 164.464 20.7306H163.307V16.0811H164.588C165.238 16.0811 165.743 16.281 166.104 16.6823C166.464 17.0837 166.643 17.6425 166.643 18.3619ZM166.129 18.3801C166.129 17.7743 165.992 17.3169 165.719 17.0094C165.445 16.702 165.039 16.549 164.499 16.549H163.792V20.2626H164.384C164.963 20.2626 165.399 20.1036 165.69 19.787C165.983 19.4705 166.129 19.001 166.129 18.3801Z" fill="white"/>
<path d="M168.015 20.7306V16.0811H168.501V20.7306H168.015Z" fill="white"/>
<path d="M172.715 20.7309L172.195 19.2528H170.519L170.005 20.7309H169.513L171.166 16.0635H171.575L173.219 20.7309H172.715ZM172.043 18.7652L171.557 17.325C171.494 17.1433 171.429 16.9191 171.362 16.6541C171.32 16.857 171.26 17.0812 171.183 17.325L170.691 18.7652H172.043Z" fill="white"/>
<path d="M155.723 24.5108H157.144V26.7719C156.924 26.8506 156.698 26.9097 156.469 26.9506C156.24 26.9915 155.975 27.0112 155.674 27.0112C155.04 27.0112 154.549 26.8022 154.196 26.3827C153.843 25.9631 153.667 25.377 153.667 24.6228C153.667 24.1397 153.755 23.7156 153.929 23.3522C154.103 22.9887 154.355 22.7115 154.682 22.5192C155.01 22.3269 155.394 22.2314 155.834 22.2314C156.281 22.2314 156.696 22.3223 157.08 22.5041L156.892 22.9811C156.515 22.8024 156.152 22.7146 155.803 22.7146C155.294 22.7146 154.896 22.8827 154.61 23.2204C154.324 23.5581 154.181 24.0246 154.181 24.6228C154.181 25.2498 154.318 25.7269 154.594 26.051C154.869 26.3751 155.273 26.5371 155.807 26.5371C156.097 26.5371 156.38 26.5008 156.657 26.4266V24.9954H155.721V24.5108H155.723Z" fill="white"/>
<path d="M159.073 25.0137V26.9473H158.587V22.2988H159.733C160.247 22.2988 160.625 22.4078 160.871 22.6259C161.116 22.8439 161.238 23.1725 161.238 23.6116C161.238 24.2263 160.958 24.6412 160.398 24.8577L161.532 26.9457H160.958L159.946 25.0122H159.073V25.0137ZM159.073 24.5489H159.739C160.082 24.5489 160.334 24.4731 160.493 24.3217C160.653 24.1703 160.733 23.9432 160.733 23.6404C160.733 23.333 160.651 23.1119 160.489 22.9757C160.326 22.8394 160.064 22.7728 159.705 22.7728H159.073V24.5489Z" fill="white"/>
<path d="M166.274 24.6156C166.274 25.3592 166.106 25.9453 165.766 26.3709C165.427 26.7964 164.957 27.01 164.356 27.01C163.74 27.01 163.265 26.801 162.93 26.3815C162.595 25.9635 162.428 25.3713 162.428 24.608C162.428 23.8507 162.596 23.2646 162.932 22.8481C163.267 22.4317 163.744 22.2227 164.362 22.2227C164.963 22.2227 165.431 22.4347 165.769 22.8587C166.106 23.2843 166.274 23.8704 166.274 24.6156ZM162.943 24.6156C162.943 25.2456 163.063 25.7227 163.306 26.0483C163.547 26.3739 163.897 26.5359 164.357 26.5359C164.82 26.5359 165.17 26.3739 165.407 26.0498C165.644 25.7257 165.761 25.2471 165.761 24.6156C165.761 23.9901 165.644 23.516 165.408 23.1919C165.173 22.8693 164.824 22.7073 164.364 22.7073C163.901 22.7073 163.548 22.8709 163.307 23.195C163.066 23.5191 162.943 23.9946 162.943 24.6156Z" fill="white"/>
<path d="M170.803 22.2988V25.3061C170.803 25.8361 170.658 26.2525 170.371 26.5554C170.083 26.8582 169.687 27.0097 169.185 27.0097C168.682 27.0097 168.293 26.8567 168.016 26.5524C167.741 26.2465 167.604 25.827 167.604 25.294V22.2988H168.09V25.3319C168.09 25.7195 168.185 26.0178 168.376 26.2253C168.566 26.4327 168.847 26.5372 169.216 26.5372C169.569 26.5372 169.84 26.4327 170.03 26.2238C170.221 26.0148 170.316 25.715 170.316 25.3258V22.2988H170.803Z" fill="white"/>
<path d="M175 23.6522C175 24.1232 174.856 24.4851 174.567 24.738C174.278 24.9909 173.864 25.1181 173.328 25.1181H172.836V26.9459H172.35V22.2969H173.434C174.477 22.2984 175 22.7497 175 23.6522ZM172.835 24.6532H173.272C173.702 24.6532 174.014 24.5759 174.207 24.4215C174.399 24.267 174.496 24.0187 174.496 23.6779C174.496 23.3705 174.405 23.1419 174.225 22.9904C174.044 22.8405 173.762 22.7648 173.379 22.7648H172.836V24.6532H172.835Z" fill="white"/>
<path d="M91.3641 5.18113C94.16 5.18113 96.2287 6.39254 97.8493 9.06673L98.8272 8.38228C97.2065 5.55515 94.6339 4 91.3368 4C88.7138 4 86.528 5.19021 85 7.19813L85.4617 8.60791C86.8072 6.44402 88.88 5.18113 91.3641 5.18113Z" fill="white"/>
<path d="M98.7713 23.0536V15.0967H91.8952V16.2779H97.5973V22.5568C96.339 24.2969 93.908 25.3222 91.7263 25.3222C91.4512 25.3222 91.1815 25.3071 90.9187 25.2813L91.315 26.4929C91.4417 26.4974 91.5683 26.5035 91.6977 26.5035C94.2989 26.505 97.122 25.3555 98.7713 23.0536Z" fill="white"/>
</svg>
