<svg width="284" height="84" viewBox="0 0 284 84" fill="none" xmlns="http://www.w3.org/2000/svg">
<path d="M49.1287 62.5681C49.1287 69.1542 46.6805 74.3728 41.7839 78.2237C36.9236 82.0746 30.4493 84 22.3609 84C12.6404 84 5.18672 82.9383 0 80.8149V75.3085C5.73078 77.7198 13.0393 78.9255 21.9257 78.9255C28.4544 78.9255 33.623 77.4499 37.4314 74.4987C41.2761 71.5116 43.1985 67.6067 43.1985 62.7841C43.1985 59.7969 42.5637 57.3316 41.2943 55.3882C40.0248 53.4087 37.9573 51.6093 35.0919 49.9897C32.2266 48.3702 28.0192 46.6247 22.4697 44.7532C14.3451 41.982 8.72312 38.9949 5.60383 35.7918C2.52082 32.5527 0.979311 28.2519 0.979311 22.8895C0.979311 16.9871 3.30064 12.1825 7.94329 8.47558C12.6222 4.73265 18.625 2.86118 25.9517 2.86118C33.4235 2.86118 40.4419 4.26478 47.0069 7.07198L44.9939 11.8226C38.3926 9.0874 32.0815 7.71979 26.0605 7.71979C20.1847 7.71979 15.5057 9.06941 12.0238 11.7686C8.54176 14.4679 6.80077 18.1388 6.80077 22.7815C6.80077 25.6967 7.32669 28.09 8.37854 29.9614C9.46667 31.8329 11.2258 33.5244 13.6559 35.036C16.0861 36.5116 20.2572 38.2931 26.1693 40.3805C32.3716 42.5039 37.0324 44.5733 40.1517 46.5887C43.271 48.5681 45.5379 50.8355 46.9525 53.3908C48.4033 55.91 49.1287 58.9692 49.1287 62.5681Z" fill="#747474"/>
<path d="M96.7377 75.5244C92.8205 81.1748 86.5638 84 77.9676 84C71.6928 84 66.9232 82.2005 63.6588 78.6015C60.3944 74.9666 58.726 69.6041 58.6534 62.5141V24.509H65.1278V61.7044C65.1278 72.8252 69.6616 78.3856 78.7293 78.3856C88.1597 78.3856 94.1262 74.5167 96.6289 66.7789V24.509H103.158V82.9203H96.8465L96.7377 75.5244Z" fill="#747474"/>
<path d="M161.078 54.3085C161.078 63.4139 159.047 70.6478 154.985 76.0103C150.923 81.3368 145.464 84 138.609 84C130.411 84 124.209 80.9769 120.002 74.9306L119.73 82.9203H113.636V0H120.111V32.9846C124.245 26.6144 130.375 23.4293 138.5 23.4293C145.464 23.4293 150.959 26.0745 154.985 31.365C159.047 36.6195 161.078 43.9434 161.078 53.3368V54.3085ZM154.55 53.1748C154.55 45.473 153.044 39.5347 150.034 35.3599C147.023 31.1491 142.78 29.0437 137.303 29.0437C133.132 29.0437 129.595 30.0694 126.694 32.1208C123.792 34.1362 121.598 37.1054 120.111 41.0283V67.3727C123.375 74.7147 129.142 78.3856 137.412 78.3856C142.78 78.3856 146.969 76.2802 149.98 72.0694C153.026 67.8586 154.55 61.5604 154.55 53.1748Z" fill="#747474"/>
<path d="M181.321 9.55527V24.509H193.508V29.7995H181.321V68.7224C181.321 71.9614 181.901 74.3728 183.062 75.9563C184.259 77.5398 186.236 78.3316 188.992 78.3316C190.081 78.3316 191.84 78.1517 194.27 77.7918L194.542 83.0823C192.837 83.6941 190.516 84 187.578 84C183.117 84 179.87 82.7224 177.839 80.1671C175.808 77.5758 174.792 73.7789 174.792 68.7764V29.7995H163.966V24.509H174.792V9.55527H181.321Z" fill="#747474"/>
<path d="M209.997 82.9203H203.468V24.509H209.997V82.9203Z" fill="#747474"/>
<path d="M228.582 82.9203H222.053V0H228.582V82.9203Z" fill="#747474"/>
<path d="M277.036 82.9203C276.383 81.0848 275.966 78.3676 275.785 74.7686C273.5 77.7198 270.58 80.0051 267.025 81.6247C263.507 83.2082 259.771 84 255.818 84C250.159 84 245.571 82.4344 242.053 79.3033C238.571 76.1722 236.83 72.2134 236.83 67.4267C236.83 61.7404 239.206 57.2416 243.957 53.9306C248.745 50.6195 255.4 48.964 263.924 48.964H275.73V42.3239C275.73 38.1491 274.425 34.874 271.813 32.4987C269.238 30.0874 265.466 28.8817 260.497 28.8817C255.963 28.8817 252.209 30.0334 249.234 32.3368C246.26 34.6401 244.773 37.4113 244.773 40.6504L238.244 40.5964C238.244 35.9537 240.421 31.9409 244.773 28.5578C249.126 25.1388 254.476 23.4293 260.823 23.4293C267.388 23.4293 272.557 25.0668 276.329 28.3419C280.137 31.581 282.096 36.1157 282.205 41.946V69.5861C282.205 75.2365 282.803 79.4653 284 82.2725V82.9203H277.036ZM256.579 78.2776C260.932 78.2776 264.813 77.2339 268.222 75.1465C271.668 73.0591 274.171 70.2699 275.73 66.7789V53.9306H264.087C257.595 54.0026 252.517 55.1902 248.854 57.4936C245.19 59.7609 243.359 62.892 243.359 66.8869C243.359 70.162 244.574 72.8792 247.004 75.0386C249.47 77.1979 252.662 78.2776 256.579 78.2776Z" fill="#747474"/>
<path d="M209.997 14.9849H203.468V0.0707423H209.997V14.9849Z" fill="#747474"/>
</svg>
