<svg width="298" height="65" viewBox="0 0 298 65" fill="none" xmlns="http://www.w3.org/2000/svg">
<path d="M284.663 19.2603C284.663 24.2872 284.663 29.0314 284.663 33.917C282.285 33.917 280.009 33.917 277.754 33.917C277.693 34.0785 277.632 34.24 277.571 34.4217C278.282 34.7447 278.993 35.0274 279.684 35.3706C285.008 37.9749 288.158 42.0125 288.097 48.1094C288.056 54.1861 284.846 58.2237 279.339 60.2223C276.128 61.3933 272.633 62.2614 269.239 62.3017C249.69 62.5036 230.12 62.4027 210.55 62.4027C210.022 62.4027 209.473 62.3219 208.783 62.2412C208.783 60.4848 208.783 58.8092 208.783 56.9922C210.225 56.9115 211.628 56.8307 213.192 56.75C213.192 46.3126 213.192 35.9358 213.192 25.1553C209.067 25.1553 204.921 25.1149 200.776 25.2159C200.41 25.2159 199.739 26.1243 199.739 26.6088C199.679 35.8551 199.658 45.1013 199.76 54.3476C199.76 55.1955 200.613 56.0434 201.081 56.8913C201.812 56.326 202.788 55.8819 203.235 55.1349C204.637 52.7729 206.669 54.7513 208.539 53.7419C207.827 57.7392 205.673 60.1012 202.645 61.474C195.98 64.4821 189.071 64.9464 182.243 62.0999C177.853 60.2627 175.557 56.8913 175.618 51.9855C175.699 43.9102 175.638 35.8349 175.638 27.7798C175.638 26.9319 175.638 26.1041 175.638 25.1351C174.764 25.0544 174.155 24.9534 173.545 24.9534C166.676 24.9332 159.828 25.014 152.96 24.913C151.192 24.8928 150.074 25.4581 149.485 27.0328C148.936 28.4864 148.306 29.9601 148.001 31.4742C146.518 38.9641 146.741 46.4337 148.408 53.863C149.098 56.9922 149.789 57.3556 153.02 56.9922C157.064 56.5279 159.706 53.9236 161.82 50.8348C162.978 49.139 164.238 48.4526 166.29 48.6141C168.709 48.7958 171.147 48.6545 174.338 48.6545C172.956 50.9963 172.041 53.0353 170.72 54.7513C166.758 59.9195 161.251 62.2614 154.89 62.3017C132.171 62.4027 109.451 62.4229 86.7522 62.3421C81.9564 62.3219 77.4247 60.828 73.3604 58.2237C69.2758 55.6194 66.7153 51.9048 65.2115 47.2413C65.2115 52.1672 65.2115 57.1133 65.2115 62.3825C61.3708 62.3825 57.7129 61.9989 54.177 62.4632C47.918 63.3112 43.9959 61.0299 40.46 55.7809C34.1603 46.4136 27.0072 37.6317 20.1995 28.5873C19.7524 27.9817 19.2647 27.4164 18.4519 26.4473C18.3706 27.5981 18.2893 28.2643 18.2893 28.9103C18.2893 37.2077 18.2893 45.5253 18.2893 53.8227C18.2893 57.7392 18.9396 58.4862 22.9226 59.0716C23.5322 59.1524 24.1419 59.2331 24.8734 59.3139C24.8734 60.2829 24.8734 61.1712 24.8734 62.3623C21.4594 62.3623 18.1674 62.3623 14.855 62.3623C11.38 62.3623 7.90504 62.221 4.4504 62.4027C2.37761 62.5036 1.97118 61.7567 1.97118 59.859C2.05247 42.6787 2.01182 25.4379 2.01182 8.19713C2.01182 6.84451 2.35729 5.24964 0 5.71397C0 3.75571 0 2.05989 0 0.020873C0.934786 0.020873 1.76797 0.020873 2.62147 0.020873C11.2174 0.020873 19.8134 0.0612496 28.4094 0.000684723C29.8319 -0.0195036 30.6651 0.404451 31.4982 1.57537C36.6599 8.88353 41.9231 16.1311 47.1457 23.3787C47.4506 23.8027 47.796 24.1863 48.487 25.0342C48.487 23.0355 48.487 21.5214 48.487 19.9063C49.2389 19.8054 49.7469 19.6439 50.2752 19.6439C65.8821 19.6439 81.5093 19.6035 97.1162 19.7246C99.8596 19.7448 102.644 20.1284 105.306 20.7542C113.495 22.6519 119.978 26.5281 121.583 36.0973C122.335 34.0381 122.782 32.3423 123.554 30.8282C127.436 23.2172 134.223 20.088 142.311 19.8256C152.553 19.4824 162.815 19.6843 173.057 19.6237C180.251 19.5833 188.156 13.9508 189.823 7.65205C190.127 6.5215 190.229 5.35058 190.453 4.01815C193.521 4.01815 196.63 4.01815 199.963 4.01815C199.963 9.08541 199.963 14.1527 199.963 19.5429C212.501 19.5429 224.816 19.5429 237.375 19.5429C237.375 32.0597 237.375 44.2534 237.375 56.6692C238.249 56.75 238.94 56.8711 239.61 56.8711C247.901 56.8913 256.172 56.9317 264.463 56.8307C265.906 56.8105 267.491 56.4875 268.751 55.8213C270.865 54.7109 270.763 52.2278 268.589 51.2587C267.186 50.6531 265.561 50.4714 264.037 50.3099C260.196 49.9263 256.294 49.9667 252.535 49.2399C247.007 48.1901 242.13 45.7675 241.155 39.5294C240.138 32.9278 242.191 27.2751 247.759 23.2172C251.031 20.835 254.77 19.5833 258.814 19.6843C263.691 19.8054 268.568 20.1486 273.445 20.411C273.913 20.4312 274.543 20.6735 274.807 20.4716C277.875 18.0894 281.31 19.866 284.663 19.2603ZM101.993 41.0031C101.993 37.1673 102.034 33.3316 101.973 29.4958C101.953 27.1539 100.55 25.4985 98.3151 25.3976C95.653 25.2562 92.9503 25.2159 90.2882 25.3976C88.1544 25.5389 86.7116 26.8915 86.6913 29.0516C86.61 37.026 86.5897 45.0004 86.7116 52.9949C86.7522 55.4983 88.256 56.8307 90.7962 56.9317C92.9096 57.0326 95.0434 56.9922 97.1771 56.9518C100.53 56.8913 101.932 55.579 101.973 52.248C102.034 48.5131 101.993 44.7581 101.993 41.0031ZM275.396 33.4325C274.848 32.3019 274.543 31.3329 273.953 30.5658C271.576 27.4366 262.898 25.5389 259.525 27.5173C258.753 27.9817 257.839 29.3948 258.042 30.0409C258.326 30.8888 259.586 31.8376 260.521 31.9587C265.276 32.5644 270.052 32.9278 275.396 33.4325ZM127.212 56.8913C125.241 54.3677 123.229 51.8038 121.583 49.7043C119.937 51.8038 117.885 54.4081 115.934 56.8913C119.592 56.8913 123.636 56.8913 127.212 56.8913ZM65.0896 35.8147C67.6094 32.4433 70.2512 28.8901 72.7914 25.4783C70.4341 25.4783 67.8127 25.4783 65.0896 25.4783C65.0896 29.2131 65.0896 32.7461 65.0896 35.8147ZM53.1203 31.7165C53.9738 25.5591 53.4048 24.7919 48.7715 25.6398C50.194 27.5981 51.5149 29.4756 53.1203 31.7165Z" fill="#747474"/>
<path d="M227.702 18.3528C222.033 18.1307 218.314 17.2828 215.408 14.3757C212.36 11.3273 212.36 7.22907 215.326 4.12007C220.346 -1.1087 231.34 -1.20964 236.461 3.93837C240.078 7.59245 239.651 12.7808 235.059 15.5063C232.396 17.081 229.186 17.7875 227.702 18.3528Z" fill="#747474"/>
<path d="M290.984 6.42137C294.398 6.38099 297.1 8.94491 297.08 12.1952C297.06 15.385 294.52 17.8479 291.166 17.8883C287.712 17.9489 284.968 15.4859 284.928 12.2558C284.867 9.04585 287.549 6.46175 290.984 6.42137ZM290.923 16.9798C293.666 17.0404 296.023 14.9206 296.105 12.2962C296.186 9.73225 293.869 7.43078 291.146 7.39041C288.382 7.35003 286.045 9.4698 285.985 12.0741C285.903 14.6986 288.139 16.9193 290.923 16.9798Z" fill="#747474"/>
</svg>
