<svg width="408" height="114" viewBox="0 0 408 114" fill="none" xmlns="http://www.w3.org/2000/svg">
<path d="M152.032 51.0381C152.377 42.4743 154.075 34.4143 159.354 27.4943C165.164 19.8584 173.148 16.4912 182.539 16.7298C198.111 17.101 209.359 27.7064 211.11 43.1902C211.853 49.7655 211.826 56.2878 210.155 62.7305C206.547 76.6766 195.803 85.0548 182.035 84.8162C167.127 84.5776 156.781 76.2789 153.571 61.8026C152.802 58.2763 152.536 54.644 152.032 51.0381ZM193.575 50.5344C193.416 50.4814 193.283 50.4549 193.124 50.4018C192.859 47.1407 192.647 43.8795 192.302 40.6184C192.169 39.3192 191.798 38.0201 191.4 36.7474C189.835 31.7629 186.572 29.1911 182.035 29.2442C177.552 29.2972 173.997 32.0281 172.83 36.9861C170.602 46.3453 170.787 55.784 172.857 65.1433C173.546 68.2453 175.403 70.5785 178.454 71.7716C183.866 73.8662 189.092 71.7981 190.763 66.0977C192.222 61.0602 192.673 55.731 193.575 50.5344Z" fill="#747474"/>
<path d="M303.719 23.5968C307.937 21.6349 311.942 19.2221 316.266 17.8965C319.556 16.9155 323.349 16.7564 326.745 17.2602C334.863 18.4533 339.638 23.9415 339.77 32.5584C340.035 49.2353 339.876 65.9122 339.876 82.5891C339.876 82.7482 339.77 82.9073 339.638 83.2519C334.252 83.2519 328.814 83.2519 323.005 83.2519C323.005 82.1914 323.005 81.2634 323.005 80.3089C323.005 67.1053 323.005 53.8751 322.978 40.6715C322.978 38.8155 322.898 36.9331 322.5 35.1302C321.784 31.869 320.033 30.835 316.664 31.2327C312.632 31.7365 309.29 33.6984 306.292 36.2702C305.602 36.88 305.31 38.2853 305.31 39.3193C305.257 52.9737 305.257 66.628 305.257 80.3089C305.257 81.2634 305.257 82.2444 305.257 83.3845C299.554 83.3845 294.036 83.3845 288.439 83.3845C287.139 62.492 290.057 41.5199 286.316 20.4418C290.72 19.1956 295.362 17.8434 300.058 16.6503C300.509 16.5443 301.49 17.2867 301.729 17.8434C302.578 19.7524 303.135 21.7939 303.719 23.5968Z" fill="#747474"/>
<path d="M53.4804 83.3049C47.8299 83.3049 42.5508 83.3049 36.9269 83.3049C36.8473 82.2708 36.7412 81.2368 36.7412 80.2293C36.7147 67.4764 36.7412 54.6969 36.7147 41.944C36.7147 39.8229 36.6351 37.6753 36.2902 35.5808C35.7332 32.1075 33.7966 30.8084 30.2419 31.2591C26.2096 31.7894 22.8406 33.6983 19.9225 36.3497C19.1797 37.0125 18.8879 38.5238 18.8879 39.6373C18.8349 53.0266 18.8614 66.4158 18.8614 79.8051C18.8614 80.8656 18.8614 81.9262 18.8614 83.1988C13.1844 83.1988 7.66658 83.1988 2.04265 83.1988C0.716255 62.4123 3.66086 41.4667 0 20.4151C4.37711 19.1955 9.01951 17.8168 13.6884 16.6237C14.1394 16.5176 15.174 17.207 15.3862 17.7373C16.1821 19.6993 16.7391 21.7408 17.5085 24.0474C19.3654 22.8809 21.2489 21.6878 23.1589 20.5212C28.1992 17.4721 33.6905 16.3586 39.4736 17.0214C47.7769 17.9494 53.2416 23.8619 53.3477 32.4522C53.5334 46.1861 53.4273 59.9466 53.4538 73.6805C53.4804 76.7826 53.4804 79.8846 53.4804 83.3049Z" fill="#747474"/>
<path d="M408.001 55.811C397.336 55.811 387.442 55.811 377.334 55.811C377.334 51.834 377.334 47.91 377.334 43.6679C381.526 43.6679 385.558 43.6679 389.856 43.6679C390.041 39.7174 389.909 36.1381 387.892 32.9299C384.497 27.4947 375.822 27.6008 372.4 33.1421C371.525 34.5473 370.596 36.2176 370.543 37.7819C370.278 45.6564 369.641 53.5839 370.357 61.3788C371.074 69.1472 376.751 72.9121 384.63 72.4614C390.519 72.1167 395.559 69.704 400.308 66.0186C402.509 69.4654 404.658 72.7795 406.833 76.1998C398.185 83.3584 388.476 86.3809 377.679 84.8962C361.577 82.669 352.212 71.6925 351.284 54.2732C350.806 45.2321 351.655 36.3767 356.934 28.5287C367.095 13.4691 385.505 14.6357 395.453 20.7868C401.926 24.7903 405.03 31.2066 406.303 38.3652C407.311 43.933 407.444 49.7394 408.001 55.811Z" fill="#747474"/>
<path d="M149.299 23.7026C146.567 27.3349 143.941 30.8877 141.235 34.4936C139.537 33.38 137.998 32.2134 136.327 31.2854C130.04 27.8122 123.779 29.9067 121.604 36.7207C118.606 46.0534 118.553 55.6247 121.259 65.0104C123.196 71.6653 130.252 73.8924 136.964 70.3396C139.219 69.1465 141.235 67.5292 143.543 65.9914C144.789 67.6353 146.063 69.3056 147.336 71.0025C148.556 72.6198 149.777 74.2371 151.103 76.0135C146.885 80.7064 141.659 83.3312 135.664 84.3387C125.451 86.0355 115.954 84.6303 108.579 76.5438C103.936 71.4532 101.841 65.143 101.124 58.4086C100.037 48.2805 100.647 38.3645 106.112 29.35C115.237 14.3434 136.964 11.4004 149.299 23.7026Z" fill="#747474"/>
<path d="M219.015 4.00352C224.877 2.65134 230.448 1.3787 236.47 0C236.709 2.88996 237.107 5.56781 237.107 8.27217C237.186 25.2142 237.186 42.1298 237.239 59.0718C237.239 61.9087 237.292 64.7457 237.505 67.5826C237.876 72.2224 239.123 73.283 243.871 73.2034C244.8 76.4381 245.728 79.7522 246.736 83.252C240.953 84.8958 235.382 85.9298 229.679 83.8618C223.79 81.7407 220.739 77.366 220.155 71.2945C219.837 67.9538 219.784 64.5601 219.757 61.1929C219.678 45.4174 219.678 29.642 219.572 13.84C219.572 10.6584 219.227 7.47677 219.015 4.00352Z" fill="#747474"/>
<path d="M72.2617 31.5773C69.7415 31.5773 67.7254 31.5773 65.4971 31.5773C65.4971 27.3087 65.4971 23.2787 65.4971 19.01C73.3493 19.01 81.2812 19.01 89.4518 19.01C89.4518 40.2472 89.4518 61.5375 89.4518 83.0398C83.8014 83.0398 78.1774 83.0398 72.2617 83.0398C72.2617 65.9387 72.2617 48.9701 72.2617 31.5773Z" fill="#747474"/>
<path d="M256.578 31.7626C255.491 31.6831 254.881 31.6036 254.27 31.6036C249.602 31.4975 249.602 31.4975 249.602 26.6986C249.602 24.1533 249.602 21.608 249.602 18.9302C257.799 18.9302 265.651 18.9302 273.715 18.9302C273.715 40.2469 273.715 61.5372 273.715 83.0395C268.092 83.0395 262.468 83.0395 256.552 83.0395C256.578 65.9649 256.578 48.9963 256.578 31.7626Z" fill="#747474"/>
<path d="M182.38 112.947C175.297 108.572 168.214 108.466 161.157 112.867C161.051 112.602 160.945 112.311 160.839 112.045C163.757 109.341 166.516 106.372 169.726 104.091C170.76 103.376 173.493 103.932 174.766 104.86C177.578 106.928 179.966 109.58 182.539 111.992C182.486 112.311 182.433 112.629 182.38 112.947ZM166.675 108.943C170.256 108.943 173.227 108.943 176.729 108.943C174.846 107.194 173.334 105.788 171.636 104.251C170.018 105.788 168.532 107.22 166.675 108.943Z" fill="#747474"/>
<path d="M334.783 112.019C337.356 109.606 339.93 107.141 342.556 104.754C344.28 103.19 346.562 103.19 348.127 104.383C351.124 106.663 353.724 109.447 356.404 112.496C349.188 108.678 342.052 108.307 334.942 113.027C334.889 112.682 334.836 112.337 334.783 112.019ZM345.527 104.277C343.909 105.815 342.397 107.273 340.672 108.917C344.174 108.917 347.172 108.917 350.647 108.917C348.737 107.194 347.172 105.788 345.527 104.277Z" fill="#747474"/>
<path d="M241.696 112.417C237.054 112.417 232.411 112.417 227.53 112.417C227.53 109.633 227.53 106.876 227.53 103.933C228.14 103.906 228.804 103.853 229.706 103.827C229.706 106.505 229.706 109.023 229.706 111.781C233.87 111.781 237.797 111.781 241.723 111.781C241.723 111.993 241.696 112.205 241.696 112.417Z" fill="#747474"/>
<path d="M113.964 104.357C113.964 106.717 113.991 108.705 113.964 110.72C113.938 112.47 113.885 112.47 111.497 112.284C111.497 109.792 111.497 107.273 111.497 104.489C108.924 104.489 106.589 104.489 104.229 104.489C104.229 104.33 104.229 104.171 104.229 104.012C109.826 104.012 115.397 104.012 120.994 104.012C120.994 104.118 121.021 104.251 121.021 104.357C118.792 104.357 116.537 104.357 113.964 104.357Z" fill="#747474"/>
<path d="M287.324 112.31C287.324 109.5 287.324 106.796 287.324 104.118C289.659 103.747 289.685 103.747 289.738 105.655C289.791 107.326 289.685 108.996 289.765 110.64C289.844 112.337 289.208 112.92 287.324 112.31Z" fill="#747474"/>
<path d="M58.8664 104.224C58.8664 106.531 58.9194 108.811 58.8133 111.117C58.7868 111.621 58.1501 112.098 57.7787 112.576C57.3543 112.072 56.6115 111.595 56.585 111.038C56.4258 109.102 56.3993 107.14 56.6115 105.205C56.6646 104.595 57.593 104.091 58.0971 103.535C58.3624 103.773 58.6011 103.985 58.8664 104.224Z" fill="#747474"/>
</svg>
