<svg width="224" height="56" viewBox="0 0 224 56" fill="none" xmlns="http://www.w3.org/2000/svg">
<g clip-path="url(#clip0)">
<path fill-rule="evenodd" clip-rule="evenodd" d="M68.3955 47.4137C68.3955 48.1603 68.4882 48.8137 68.7662 49.3737C69.0442 49.9337 69.3223 50.4937 69.7857 50.9603C70.249 51.427 70.7124 51.707 71.3612 51.987C72.0099 52.267 72.6586 52.3603 73.4001 52.3603C73.8634 52.3603 74.3268 52.267 74.6975 52.1737C75.0682 52.0803 75.4389 51.987 75.717 51.8003C75.995 51.6137 76.273 51.5203 76.4584 51.3337C76.6437 51.147 76.8291 51.0537 76.9218 50.9603C77.0145 50.867 77.1071 50.7737 77.1071 50.7737L76.3657 49.467C76.3657 49.467 76.3657 49.467 76.273 49.5603C76.1804 49.6537 76.0877 49.747 75.9023 49.8403C75.717 49.9337 75.5316 50.1203 75.3463 50.2137C75.0682 50.307 74.8829 50.4003 74.5122 50.4937C74.2341 50.587 73.8634 50.587 73.5854 50.587C73.122 50.587 72.6586 50.4937 72.2879 50.307C71.9172 50.1203 71.5465 49.9337 71.2685 49.5603C70.9905 49.2803 70.7124 48.907 70.6197 48.5337C70.4344 48.1603 70.3417 47.6937 70.3417 47.227C70.3417 46.7603 70.4344 46.2937 70.6197 45.9203C70.8051 45.547 70.9905 45.1737 71.2685 44.8937C71.5465 44.6137 71.9172 44.3337 72.2879 44.2403C72.6586 44.0537 73.122 43.9603 73.5854 43.9603C73.8634 43.9603 74.2342 43.9603 74.4195 44.0537C74.6975 44.147 74.8829 44.2403 75.1609 44.3337C75.3463 44.427 75.5316 44.5203 75.717 44.6137C75.9023 44.707 75.995 44.8003 76.0877 44.8937C76.1804 44.987 76.1804 44.987 76.1804 44.987L77.0145 43.7737C77.0145 43.7737 77.0145 43.6803 76.9218 43.587C76.8291 43.4937 76.6437 43.4003 76.4584 43.2137C76.273 43.1203 76.0877 42.9337 75.717 42.8403C75.4389 42.747 75.1609 42.5603 74.6975 42.467C74.3268 42.3737 73.8634 42.3737 73.4001 42.2803C72.6586 42.2803 72.0099 42.3737 71.3612 42.6537C70.7124 42.9337 70.249 43.2137 69.7857 43.6803C69.3223 44.147 69.0442 44.6137 68.7662 45.267C68.5809 46.107 68.3955 46.7603 68.3955 47.4137ZM83.1311 52.0803H84.892V44.147H87.9503V42.747H80.0728V44.147H83.1311V52.0803ZM90.3599 55.4403C90.3599 55.4403 90.3599 55.4403 90.4526 55.5337C90.5453 55.627 90.638 55.627 90.8233 55.7203C91.0087 55.8137 91.194 55.907 91.3794 55.907C91.5647 56.0003 91.8428 56.0003 92.1208 56.0003C92.5842 56.0003 92.9549 55.907 93.3256 55.7203C93.6963 55.5337 94.067 55.347 94.345 54.9737C94.6231 54.6937 94.9011 54.227 95.0864 53.7603L99.4423 42.747H97.496L95.2718 48.907C95.1791 49.0937 95.1791 49.2803 95.0864 49.3737C94.9938 49.5603 94.9938 49.6537 94.9938 49.8403C94.9938 49.9337 94.9938 50.027 94.9938 50.027C94.9938 50.027 94.9938 49.9337 94.9011 49.8403C94.9011 49.747 94.8084 49.5603 94.8084 49.3737C94.7157 49.187 94.7157 49.0003 94.6231 48.907L92.3061 42.8403H90.2672L94.1597 52.0803L93.6963 53.107C93.5109 53.5737 93.3256 53.8537 92.9549 54.1337C92.6768 54.4137 92.3061 54.507 92.0281 54.507C91.8428 54.507 91.6574 54.507 91.472 54.4137C91.2867 54.3203 91.194 54.3203 91.1013 54.227C91.0087 54.1337 90.916 54.1337 90.916 54.1337L90.3599 55.4403ZM103.52 52.0803H110.1V53.8537H111.861V50.587H110.656V42.6537H104.447L103.613 48.2537C103.52 48.627 103.52 49.0003 103.427 49.2803C103.335 49.5603 103.335 49.8403 103.149 50.027C103.057 50.2137 102.871 50.4003 102.686 50.4937C102.501 50.587 102.223 50.6803 101.852 50.6803H101.574V53.947H103.335V52.0803H103.52ZM106.022 44.3337H108.895V50.6803H104.725C104.818 50.4003 105.003 50.027 105.096 49.6537C105.188 49.2803 105.281 48.8137 105.374 48.2537L106.022 44.3337ZM124.094 42.747H122.333L117.7 49.467L117.792 42.747H115.939V52.0803H117.7L122.333 45.3603L122.241 52.0803H124.094V42.747ZM136.976 42.747H133.362C132.899 42.747 132.621 42.747 132.343 42.747C132.065 42.747 131.786 42.747 131.601 42.8403C131.416 42.8403 131.23 42.9337 131.138 42.9337C130.674 43.027 130.396 43.2137 130.026 43.4937C129.748 43.7737 129.47 44.0537 129.284 44.3337C129.099 44.707 129.006 45.0803 129.006 45.4537C129.006 45.9203 129.099 46.2937 129.284 46.667C129.47 47.0403 129.748 47.3203 130.026 47.6003C130.304 47.8803 130.767 48.067 131.138 48.1603C131.138 48.1603 131.138 48.1603 131.045 48.2537C130.952 48.347 130.86 48.4403 130.767 48.5337L128.172 51.987H130.118L132.713 48.4403H135.123V51.987H136.884V42.747H136.976ZM132.528 47.1337C132.157 47.1337 131.879 47.1337 131.601 46.947C131.323 46.8537 131.138 46.667 130.952 46.4803C130.767 46.2937 130.674 45.9203 130.674 45.547C130.674 45.267 130.767 45.0803 130.86 44.8937C130.952 44.707 131.138 44.6137 131.23 44.427C131.416 44.3337 131.601 44.2403 131.786 44.2403C131.972 44.147 132.25 44.147 132.435 44.147H135.03V47.0403H132.528V47.1337ZM148.932 52.0803H150.785L151.619 45.6403L153.751 52.0803H155.326L157.551 45.6403L158.385 52.0803H160.146L158.941 42.747H156.809L154.492 49.8403L152.175 42.747H150.137L148.932 52.0803ZM163.853 47.4137C163.853 48.067 163.945 48.7203 164.223 49.3737C164.501 49.9337 164.779 50.4937 165.243 50.9603C165.706 51.427 166.17 51.707 166.818 51.987C167.374 52.267 168.116 52.3603 168.857 52.3603C169.321 52.3603 169.691 52.267 170.062 52.267C170.433 52.1737 170.803 52.0803 171.081 51.8937C171.36 51.8003 171.638 51.6137 171.823 51.5203C172.008 51.427 172.194 51.2403 172.286 51.147C172.379 51.0537 172.472 51.0537 172.472 51.0537L171.73 49.747C171.73 49.747 171.73 49.747 171.638 49.8403C171.545 49.9337 171.452 50.027 171.267 50.1203C171.081 50.2137 170.896 50.307 170.711 50.4003C170.525 50.4937 170.247 50.587 169.969 50.6803C169.691 50.7737 169.413 50.7737 169.043 50.7737C168.672 50.7737 168.209 50.6803 167.838 50.587C167.467 50.4937 167.096 50.307 166.818 50.027C166.54 49.747 166.262 49.467 166.077 49.0937C165.892 48.7203 165.799 48.2537 165.799 47.787H172.564C172.564 47.787 172.564 47.6937 172.564 47.6003C172.564 47.507 172.564 47.4137 172.564 47.3203C172.564 47.227 172.564 47.1337 172.564 47.0403C172.564 46.387 172.472 45.827 172.286 45.3603C172.101 44.8003 171.823 44.3337 171.545 43.9603C171.174 43.587 170.803 43.2137 170.247 43.027C169.784 42.8403 169.135 42.6537 168.487 42.6537C167.838 42.6537 167.189 42.747 166.633 43.027C166.077 43.2137 165.614 43.587 165.15 44.0537C164.687 44.5203 164.409 44.987 164.131 45.6403C163.945 46.0137 163.853 46.667 163.853 47.4137ZM165.706 46.387C165.799 45.9203 165.984 45.4537 166.262 45.0803C166.54 44.707 166.818 44.427 167.189 44.2403C167.56 44.0537 168.023 43.9603 168.394 43.9603C168.765 43.9603 169.135 44.0537 169.506 44.2403C169.877 44.427 170.062 44.707 170.34 44.987C170.525 45.3603 170.618 45.827 170.711 46.2937H165.706V46.387ZM184.427 39.0137C184.149 39.107 183.964 39.2003 183.778 39.2937C183.593 39.387 183.408 39.387 183.222 39.387C183.037 39.387 182.851 39.387 182.666 39.387C182.481 39.387 182.295 39.387 182.017 39.2937C181.739 39.2937 181.461 39.2937 181.091 39.2937C180.535 39.2937 179.978 39.387 179.515 39.4803C178.959 39.667 178.496 39.8537 178.125 40.227C177.662 40.6003 177.291 41.067 177.013 41.627C176.735 42.187 176.457 42.9337 176.271 43.7737C176.086 44.6137 176.086 45.6403 176.086 46.7603C176.086 47.6003 176.271 48.347 176.457 49.0003C176.642 49.6537 176.92 50.1203 177.198 50.587C177.476 51.0537 177.847 51.3337 178.218 51.6137C178.588 51.8937 178.959 52.0803 179.422 52.1737C179.886 52.267 180.256 52.3603 180.72 52.3603C181.183 52.3603 181.647 52.267 182.017 52.1737C182.481 52.0803 182.851 51.8937 183.315 51.6137C183.686 51.3337 184.056 51.0537 184.334 50.6803C184.612 50.307 184.89 49.9337 185.076 49.3737C185.261 48.907 185.354 48.347 185.354 47.787C185.354 46.947 185.261 46.2937 184.983 45.6403C184.705 45.0803 184.427 44.5203 183.964 44.147C183.5 43.7737 183.037 43.4937 182.481 43.307C181.925 43.1203 181.276 43.027 180.627 43.027C180.256 43.027 179.978 43.1203 179.608 43.2137C179.237 43.307 178.959 43.4937 178.681 43.6803C178.403 43.867 178.218 44.0537 178.032 44.2403C177.847 44.427 177.754 44.6137 177.754 44.707C177.754 43.9603 177.847 43.4003 178.032 42.9337C178.218 42.467 178.403 42.0003 178.681 41.7203C178.959 41.4403 179.33 41.1603 179.7 41.067C180.071 40.8803 180.535 40.8803 180.905 40.8803C181.183 40.8803 181.369 40.8803 181.647 40.9737C181.832 40.9737 182.11 41.067 182.295 41.067C182.481 41.067 182.759 41.067 183.037 41.067C183.315 41.067 183.686 40.9737 184.056 40.787L184.427 39.0137ZM180.813 44.6137C181.183 44.6137 181.554 44.707 181.925 44.8003C182.295 44.8937 182.573 45.1737 182.851 45.3603C183.129 45.6403 183.315 45.9203 183.5 46.387C183.686 46.7603 183.686 47.227 183.686 47.787C183.686 48.2537 183.593 48.7203 183.408 49.0937C183.222 49.467 183.037 49.747 182.759 50.027C182.481 50.307 182.203 50.4937 181.832 50.587C181.461 50.6803 181.183 50.7737 180.813 50.7737C180.535 50.7737 180.164 50.6803 179.886 50.587C179.608 50.4937 179.237 50.307 178.959 50.027C178.681 49.747 178.496 49.467 178.31 49.0937C178.125 48.7203 178.032 48.2537 178.032 47.6937C178.032 47.227 178.032 46.7603 178.218 46.387C178.403 46.0137 178.496 45.7337 178.774 45.4537C178.959 45.1737 179.237 44.987 179.515 44.8937C179.793 44.707 180.071 44.6137 180.256 44.6137C180.442 44.6137 180.627 44.6137 180.813 44.6137ZM189.061 47.4137C189.061 48.067 189.153 48.7203 189.431 49.3737C189.71 49.9337 189.988 50.4937 190.451 50.9603C190.914 51.427 191.378 51.707 192.026 51.987C192.583 52.267 193.324 52.3603 194.065 52.3603C194.529 52.3603 194.899 52.267 195.27 52.267C195.641 52.1737 196.012 52.0803 196.29 51.8937C196.568 51.8003 196.846 51.6137 197.031 51.5203C197.216 51.427 197.402 51.2403 197.494 51.147C197.587 51.0537 197.68 51.0537 197.68 51.0537L196.938 49.747C196.938 49.747 196.938 49.747 196.846 49.8403C196.753 49.9337 196.66 50.027 196.475 50.1203C196.29 50.2137 196.104 50.307 195.919 50.4003C195.734 50.4937 195.456 50.587 195.177 50.6803C194.899 50.7737 194.621 50.7737 194.251 50.7737C193.88 50.7737 193.417 50.6803 193.046 50.587C192.675 50.4937 192.304 50.307 192.026 50.027C191.748 49.747 191.47 49.467 191.285 49.0937C191.1 48.7203 191.007 48.2537 191.007 47.787H197.772C197.772 47.787 197.772 47.6937 197.772 47.6003C197.772 47.507 197.772 47.4137 197.772 47.3203C197.772 47.227 197.772 47.1337 197.772 47.0403C197.772 46.387 197.68 45.827 197.494 45.3603C197.309 44.8003 197.031 44.3337 196.753 43.9603C196.382 43.587 196.012 43.2137 195.455 43.027C194.992 42.8403 194.343 42.6537 193.695 42.6537C193.046 42.6537 192.397 42.747 191.841 43.027C191.285 43.2137 190.822 43.587 190.358 44.0537C189.895 44.5203 189.617 44.987 189.339 45.6403C189.153 46.0137 189.061 46.667 189.061 47.4137ZM190.914 46.387C191.007 45.9203 191.192 45.4537 191.47 45.0803C191.748 44.707 192.026 44.427 192.397 44.2403C192.768 44.0537 193.231 43.9603 193.602 43.9603C193.973 43.9603 194.343 44.0537 194.714 44.2403C195.085 44.427 195.27 44.707 195.548 44.987C195.734 45.3603 195.826 45.827 195.919 46.2937H190.914V46.387ZM204.909 44.3337H207.782V52.1737H209.635V42.747H203.426L202.592 48.347C202.499 48.7203 202.499 49.0937 202.406 49.3737C202.314 49.6537 202.221 49.9337 202.128 50.1203C202.036 50.307 201.85 50.4937 201.665 50.587C201.479 50.6803 201.201 50.7737 200.831 50.7737C200.831 50.7737 200.831 50.867 200.831 50.9603C200.831 51.0537 200.831 51.2403 200.831 51.3337C200.831 51.5203 200.831 51.6137 200.831 51.8003C200.831 51.987 200.831 52.0803 200.831 52.1737C200.831 52.267 200.831 52.3603 200.831 52.3603C201.294 52.3603 201.758 52.3603 202.128 52.267C202.499 52.1737 202.777 52.0803 203.055 51.8937C203.333 51.707 203.518 51.5203 203.704 51.147C203.889 50.867 203.982 50.4937 204.167 50.027C204.26 49.5603 204.352 49.0003 204.538 48.4403L204.909 44.3337ZM222.702 42.747H220.942L216.308 49.467L216.4 42.747H214.547V52.0803H216.308L220.942 45.3603L220.849 52.0803H222.702V42.747Z" fill="white"/>
<path fill-rule="evenodd" clip-rule="evenodd" d="M30.583 5.97377V48.3471L54.2156 32.0138L30.583 5.97377ZM28.5441 48.3471V5.97377L4.91154 32.0138L28.5441 48.3471ZM58.2934 33.9738L30.6757 53.0138C30.027 53.4804 29.1002 53.4804 28.4515 53.0138L0.833761 33.9738C0.741084 33.8804 0.648407 33.8804 0.648407 33.7871C-0.185685 33.0404 -0.185685 31.8271 0.55573 30.9871L28.0808 0.65377L28.1734 0.560437C29.0075 -0.18623 30.2123 -0.0928963 30.9537 0.65377L58.4788 30.8938C58.5715 30.9871 58.6641 31.0804 58.7568 31.1738C59.4055 32.2004 59.2202 33.4138 58.2934 33.9738Z" fill="white"/>
<path fill-rule="evenodd" clip-rule="evenodd" d="M205.372 19.7865H218.995C218.995 17.7332 218.347 16.2399 217.142 15.1199C215.844 13.9999 214.362 13.5332 212.508 13.5332C210.655 13.5332 208.986 14.0932 207.596 15.2132C206.206 16.3332 205.372 17.9199 205.372 19.7865ZM224 23.7999H205.372C205.465 25.5732 206.299 26.9732 207.782 27.9999C209.264 29.0265 210.933 29.5865 212.786 29.5865C215.752 29.5865 218.069 28.6532 219.551 26.7865L222.424 29.8665C219.83 32.5732 216.493 33.8799 212.415 33.8799C209.079 33.8799 206.206 32.7599 203.889 30.5199C201.572 28.2799 200.367 25.2932 200.367 21.4665C200.367 17.7332 201.572 14.6532 203.982 12.5065C206.391 10.2665 209.172 9.14652 212.415 9.14652C215.659 9.14652 218.439 10.1732 220.664 12.1332C222.888 14.0932 224.093 16.7999 224.093 20.2532V23.7999H224ZM196.197 26.4132C196.197 28.6532 195.363 30.5199 193.695 31.9199C192.026 33.3199 189.988 33.9732 187.393 33.9732C185.632 33.9732 183.871 33.6932 182.017 33.0399C180.164 32.3865 178.496 31.5465 177.105 30.4265L179.515 26.5065C182.295 28.6532 184.983 29.6799 187.578 29.6799C188.69 29.6799 189.617 29.3999 190.266 28.9332C190.914 28.3732 191.285 27.7199 191.285 26.9732C191.285 25.7599 189.71 24.7332 186.559 23.7065C186.28 23.6132 186.095 23.5199 186.002 23.5199C181.091 22.2132 178.588 19.8799 178.588 16.7999C178.588 14.5599 179.422 12.7865 181.183 11.4799C182.944 10.1732 185.168 9.51986 187.856 9.51986C190.636 9.51986 193.231 10.3599 195.641 11.9465L193.787 15.6799C191.841 14.3732 189.71 13.7199 187.485 13.7199C186.28 13.7199 185.354 13.9065 184.612 14.3732C183.871 14.8399 183.5 15.4932 183.5 16.3332C183.5 17.0799 183.871 17.6399 184.705 18.0132C185.261 18.2932 186.002 18.5732 186.929 18.7599C187.856 19.0399 188.783 19.2265 189.524 19.5065C190.266 19.7865 191.007 19.9732 191.656 20.3465C192.397 20.6265 193.139 21.0932 193.88 21.6532C195.363 22.3999 196.197 24.0799 196.197 26.4132ZM167.004 22.5865V9.61319H172.008V33.5999H167.004V29.2132C166.17 30.7065 165.057 31.8265 163.667 32.6665C162.277 33.5065 160.702 33.9732 159.126 33.9732C156.439 33.9732 154.307 33.1332 152.639 31.4532C150.971 29.7732 150.137 27.4399 150.137 24.2665V9.61319H155.141V22.7732C155.141 27.1599 156.995 29.3999 160.609 29.3999C162.37 29.3999 163.853 28.8399 165.15 27.6265C166.355 26.5065 167.004 24.7332 167.004 22.5865ZM141.054 30.3332C138.645 32.7599 135.679 33.8799 132.065 33.8799C128.45 33.8799 125.484 32.6665 123.075 30.3332C120.665 27.9065 119.46 25.0132 119.46 21.5599C119.46 18.1065 120.665 15.2132 123.075 12.7865C125.484 10.3599 128.45 9.23986 132.065 9.23986C135.679 9.23986 138.645 10.4532 141.054 12.7865C143.464 15.2132 144.669 18.1065 144.669 21.5599C144.669 25.0132 143.464 27.9065 141.054 30.3332ZM126.689 27.2532C128.079 28.7465 129.933 29.3999 132.065 29.3999C134.196 29.3999 136.05 28.6532 137.44 27.2532C138.83 25.7599 139.571 23.8932 139.571 21.5599C139.571 19.2265 138.83 17.3599 137.44 15.8665C136.05 14.3732 134.196 13.7199 132.065 13.7199C129.933 13.7199 128.079 14.4665 126.689 15.8665C125.299 17.3599 124.558 19.2265 124.558 21.5599C124.558 23.8932 125.299 25.7599 126.689 27.2532ZM97.218 20.5332V33.5065H92.2135V0.186523H97.218V13.9999C97.9594 12.5065 98.9789 11.3865 100.462 10.5465C101.945 9.70652 103.427 9.23986 105.096 9.23986C107.783 9.23986 109.915 10.0799 111.583 11.7599C113.251 13.4399 114.085 15.7732 114.085 18.9465V33.5999H109.081V20.3465C109.081 15.9599 107.227 13.7199 103.613 13.7199C101.852 13.7199 100.369 14.2799 99.0716 15.4932C97.8668 16.6132 97.218 18.3865 97.218 20.5332ZM80.4435 0.186523H84.3359V9.98652H80.3508V0.186523H80.4435ZM68.3955 0.186523H73.6781V33.5999H68.3955V0.186523Z" fill="white"/>
</g>
<defs>
<clipPath id="clip0">
<rect width="224" height="56" fill="white"/>
</clipPath>
</defs>
</svg>
