<svg width="237" height="70" viewBox="0 0 237 70" fill="none" xmlns="http://www.w3.org/2000/svg">
<path d="M50.9072 69.2655C59.1685 69.2655 75.691 67.9377 75.691 51.7832C75.691 36.9564 68.7694 25.8916 50.0141 25.8916H24.7838C20.095 25.8916 18.532 24.7851 18.532 22.7934C18.532 19.9166 20.5415 17.2611 25.6769 17.2611H47.558C49.121 17.2611 50.4607 16.1546 50.4607 14.6055V2.65555C50.4607 1.32777 49.121 0 47.7813 0H25.9002C7.8147 0 0 9.9583 0 25.8916C0 29.4323 0 43.5952 24.7838 43.5952H50.0141C55.8193 43.5952 57.159 46.6934 57.159 49.1276C57.159 50.898 55.8193 52.2258 51.577 52.2258H5.58193C4.01899 52.2258 2.67933 53.3322 2.67933 54.8813V66.8313C2.67933 68.3803 4.01899 69.4868 5.58193 69.4868H50.9072V69.2655Z" fill="#747474"/>
<path d="M83.1367 66.8228C83.1367 68.3768 84.4822 69.4868 86.0519 69.4868H98.834C100.404 69.4868 101.749 68.3768 101.749 66.8228V2.66403C101.749 1.11001 100.404 0 98.834 0H86.0519C84.4822 0 83.1367 1.11001 83.1367 2.66403V66.8228Z" fill="#747474"/>
<path d="M133.569 69.4868C118.973 69.4868 111.676 61.7167 111.676 45.7325V2.22003C111.676 1.33202 113.003 0 114.551 0H127.156C128.703 0 130.03 1.11001 130.03 2.66403V18.2042H145.068C146.616 18.2042 147.943 19.3142 147.943 20.8682V32.8564C147.943 34.4104 146.616 35.5204 145.068 35.5204H130.03V46.1765C130.03 51.0606 132.021 52.1706 133.569 52.1706H153.471C155.019 52.1706 156.346 53.2806 156.346 54.8346V66.8228C156.346 68.3768 155.019 69.4868 153.471 69.4868H133.569Z" fill="#747474"/>
<path d="M212.143 69.2655C220.429 69.2655 237.001 67.9377 237.001 51.7832C237.001 36.9564 230.058 25.8916 211.248 25.8916H185.943C181.24 25.8916 179.672 24.7851 179.672 22.7934C179.672 19.9166 181.688 17.2611 186.838 17.2611H208.784C210.352 17.2611 211.696 16.1546 211.696 14.6055V2.65555C211.696 1.32777 210.576 0 209.008 0H187.062C168.923 0 161.31 9.9583 161.31 25.8916C161.31 29.4323 161.31 43.5952 186.167 43.5952H211.472C217.294 43.5952 218.638 46.6934 218.638 49.1276C218.638 50.898 217.294 52.2258 213.039 52.2258H166.684C165.117 52.2258 163.773 53.3322 163.773 54.8813V66.8313C163.773 68.3803 165.117 69.4868 166.684 69.4868H212.143V69.2655Z" fill="#747474"/>
</svg>
