<svg width="50" height="45" viewBox="0 0 50 45" fill="none" xmlns="http://www.w3.org/2000/svg">
<path fill-rule="evenodd" clip-rule="evenodd" d="M25.8494 5.01311V40.5764L45.8244 26.8681L25.8494 5.01311ZM24.1261 40.5764V5.01311L4.1511 26.8681L24.1261 40.5764ZM49.2711 28.5131L25.9278 44.4931C25.3794 44.8848 24.5961 44.8848 24.0478 44.4931L0.70443 28.5131C0.626096 28.4348 0.547763 28.4348 0.547763 28.3564C-0.157237 27.7298 -0.157237 26.7114 0.46943 26.0064L23.7344 0.548107L23.8128 0.469774C24.5178 -0.156893 25.5361 -0.0785595 26.1628 0.548107L49.4278 25.9281C49.5061 26.0064 49.5844 26.0848 49.6628 26.1631C50.2111 27.0248 50.0544 28.0431 49.2711 28.5131Z" fill="#004D77"/>
</svg>
