<svg width="214" height="131" viewBox="0 0 214 131" fill="none" xmlns="http://www.w3.org/2000/svg">
<path d="M89.5419 78.4674C86.7047 78.4674 84.1852 78.4218 81.6658 78.4901C80.5082 78.5129 80.5082 77.6706 80.3267 76.9877C76.9674 65.5149 73.6536 54.042 70.317 42.5691C68.9098 37.7204 67.5025 32.8945 66.0726 28.0459C65.9364 27.5451 65.7321 27.0443 65.4144 26.0654C58.4689 43.6845 51.6823 60.8483 44.7823 78.3308C37.8822 60.8938 31.0957 43.7073 24.3318 26.5435C24.1956 26.5435 24.0594 26.5435 23.9459 26.5435C23.2423 28.8654 22.5387 31.1645 21.8578 33.4864C17.6587 47.9641 13.4597 62.4418 9.2833 76.9194C8.94284 78.1259 8.3981 78.5584 7.12703 78.4901C4.83458 78.3763 2.54213 78.4674 0 78.4674C7.58099 52.3802 15.0939 26.5435 22.743 0.251465C30.1197 18.9632 37.3602 37.2424 44.7823 56.0452C52.2044 37.2652 59.4449 18.9404 66.8216 0.251465C74.4253 26.498 81.9609 52.3575 89.5419 78.4674Z" fill="#747474"/>
<path d="M126.676 78.4673C126.676 52.2436 126.676 26.2247 126.676 0.274179C126.835 0.183124 126.925 0.0693058 127.016 0.0693058C135.028 0.16036 143.086 -0.34044 151.008 0.479052C167.985 2.20909 181.649 15.6852 184.532 32.6441C187.664 51.1054 177.609 68.9976 160.223 75.8267C155.751 77.5795 151.098 78.4901 146.286 78.4673C139.795 78.4673 133.326 78.4673 126.676 78.4673ZM134.438 8.1504C134.438 9.10647 134.438 9.81215 134.438 10.5178C134.438 28.8426 134.438 47.1673 134.438 65.492C134.438 67.0855 133.939 69.3163 134.756 70.0675C135.687 70.9325 137.843 70.5911 139.455 70.5228C143.767 70.3635 148.17 70.5456 152.369 69.7488C167.055 66.9261 178.063 53.1086 176.996 37.5383C176.202 25.9743 170.596 17.4835 160.654 11.7471C152.483 7.03498 143.517 8.21869 134.438 8.1504Z" fill="#747474"/>
<path d="M180.241 78.2623C182.602 75.599 184.713 73.1632 186.892 70.7731C187.232 70.4088 187.754 70.1129 188.231 69.9991C198.127 67.6089 204.913 59.0498 204.936 48.8061C204.959 33.3496 204.936 17.8703 204.936 2.41382C204.936 1.70814 204.936 0.979706 204.936 0.137451C207.524 0.137451 210.02 0.137451 212.631 0.137451C212.676 0.50167 212.767 0.911415 212.767 1.32116C212.767 17.711 212.88 34.1236 212.721 50.5134C212.608 63.3521 202.371 75.3941 189.82 77.7615C187.141 78.2623 184.395 78.2395 181.671 78.4444C181.24 78.4899 180.763 78.3306 180.241 78.2623Z" fill="#747474"/>
<path d="M101.05 0.0695801C103.864 0.0695801 106.497 0.0695801 109.244 0.0695801C109.244 26.2705 109.244 52.4032 109.244 78.6725C106.565 78.6725 103.864 78.6725 101.05 78.6725C101.05 52.4943 101.05 26.3388 101.05 0.0695801Z" fill="#747474"/>
<path d="M49.0275 130.96C47.711 130.96 46.508 131.074 45.3278 130.915C44.8284 130.846 44.261 130.254 43.9659 129.754C39.2448 121.832 34.5691 113.865 29.8707 105.92C28.1003 102.915 26.3072 99.8877 24.1509 96.974C24.1509 108.242 24.1509 119.51 24.1509 130.869C23.1069 130.869 22.3124 130.869 21.3818 130.869C21.3818 118.03 21.3818 105.192 21.3818 92.3529C24.1736 91.6473 24.7184 91.8294 26.1029 94.1968C32.3902 104.827 38.6774 115.481 44.9873 126.111C45.2824 126.612 45.6001 127.09 46.213 127.523C46.213 115.799 46.213 104.076 46.213 92.2164C47.2571 92.2164 48.0742 92.2164 49.0048 92.2164C49.0275 105.101 49.0275 117.894 49.0275 130.96Z" fill="#747474"/>
<path d="M145.446 130.892C142.609 131.051 142.609 131.051 141.724 128.615C140.589 125.474 139.431 122.332 138.365 119.168C138.024 118.189 137.525 117.802 136.481 117.802C131.76 117.848 127.039 117.848 122.317 117.802C121.319 117.802 120.865 118.167 120.57 119.1C119.526 122.287 118.391 125.428 117.324 128.592C116.439 131.165 116.439 131.165 113.511 130.869C114.873 126.953 116.212 123.084 117.574 119.214C120.592 110.564 123.657 101.936 126.607 93.286C127.061 91.9657 127.742 91.5787 128.99 91.7153C130.262 91.8519 131.533 91.3056 132.214 93.2633C136.39 105.396 140.748 117.461 145.038 129.549C145.174 129.935 145.287 130.345 145.446 130.892ZM129.649 93.9234C129.49 93.9006 129.354 93.8779 129.195 93.8779C126.834 100.912 124.474 107.946 122.045 115.162C127.107 115.162 131.896 115.162 136.957 115.162C134.483 107.946 132.055 100.935 129.649 93.9234Z" fill="#747474"/>
<path d="M199.307 112.659C201.168 109.313 202.87 106.239 204.572 103.189C206.229 100.207 207.864 97.2251 209.498 94.243C210.769 91.9667 210.769 91.9667 213.629 92.1943C213.311 92.8317 213.039 93.4008 212.721 93.9243C208.908 100.662 205.072 107.378 201.327 114.161C200.873 114.981 200.623 116.005 200.6 116.938C200.532 120.945 200.578 124.974 200.578 128.98C200.578 129.572 200.578 130.164 200.578 130.847C199.67 130.847 198.943 130.847 198.058 130.847C198.013 130.21 197.967 129.618 197.967 129.049C197.945 126.841 197.763 124.633 198.013 122.447C198.558 117.508 197.105 113.273 194.495 109.108C191.294 104.009 188.525 98.6137 185.575 93.3553C185.393 93.0366 185.257 92.6723 185.075 92.3309C187.617 91.7163 187.799 91.8073 188.956 93.9471C192.066 99.638 195.176 105.306 198.308 110.974C198.558 111.475 198.875 111.93 199.307 112.659Z" fill="#747474"/>
<path d="M161.653 128.183C166.873 128.183 171.799 128.183 176.792 128.183C176.792 129.139 176.792 129.935 176.792 130.846C170.891 130.846 164.989 130.846 158.997 130.846C158.997 117.985 158.997 105.146 158.997 92.1934C159.86 92.1934 160.654 92.1934 161.653 92.1934C161.653 104.099 161.653 116.004 161.653 128.183Z" fill="#747474"/>
<path d="M96.2828 130.892C95.216 130.892 94.3989 130.892 93.4456 130.892C93.4456 118.759 93.4456 106.694 93.4456 94.4019C90.1998 94.4019 87.1129 94.4019 83.8672 94.4019C83.8672 93.5824 83.8672 92.9678 83.8672 92.2166C91.1531 92.2166 98.4163 92.2166 105.77 92.2166C105.77 92.8995 105.77 93.4686 105.77 94.2653C102.638 94.2653 99.5512 94.2653 96.2828 94.2653C96.2828 106.535 96.2828 118.622 96.2828 130.892Z" fill="#747474"/>
<path d="M0.930664 91.8982C1.92936 91.8982 2.83726 91.8982 3.85865 91.8982C3.85865 104.851 3.85865 117.803 3.85865 130.847C2.90535 130.847 1.95205 130.847 0.930664 130.847C0.930664 117.872 0.930664 104.919 0.930664 91.8982Z" fill="#747474"/>
<path d="M66.4814 91.8982C67.4801 91.8982 68.388 91.8982 69.4094 91.8982C69.4094 104.851 69.4094 117.78 69.4094 130.847C68.4561 130.847 67.5255 130.847 66.4814 130.847C66.4814 117.872 66.4814 104.919 66.4814 91.8982Z" fill="#747474"/>
</svg>
