<svg width="253" height="201" viewBox="0 0 253 201" fill="none" xmlns="http://www.w3.org/2000/svg">
<path d="M87.7268 139.404L76.2129 139.314L37.6313 84.0906L37.4137 139.224L24.1671 139.617L23.9492 58.5789L35.937 58.8249L74.5186 114.048L74.2623 58.7592L87.9827 58.5212L87.7268 139.404Z" fill="#747474"/>
<path d="M129.224 108.833L152.881 108.695L141.228 78.5904L129.224 108.833ZM179.047 139.347L164.378 139.275L157.671 121.305L124.077 121.343L117.22 139.076L102.551 139.004L135.298 58.2466L146.338 58.1821L179.047 139.347Z" fill="#747474"/>
<path d="M207.411 100.795L214.823 100.593C220.028 100.721 224.123 99.4332 227.107 96.7303C229.936 94.5022 231.18 90.7036 231.313 85.4897C231.136 81.2255 230.492 78.3858 228.745 75.7104C228.426 75.0804 227.952 74.9252 227.16 74.14C225.894 73.1995 224.154 72.1039 222.258 71.483C220.363 70.8622 217.838 70.561 214.684 70.5794L207.272 70.7806L207.411 100.795ZM207.431 139.182L193.866 138.945L193.967 58.5365L216.995 58.718C221.252 58.5352 225.199 59.302 228.834 61.0185L229.782 61.3289C232.47 62.735 237.06 66.3416 237.06 66.3416C237.534 66.4968 237.379 66.9716 237.852 67.1268C240.229 69.4825 241.821 72.6327 243.413 75.7828C244.531 78.7778 245.493 82.2475 245.352 85.8817C245.211 89.5159 244.752 92.5201 243.663 95.8438C242.575 99.1676 240.538 102.181 238.184 104.564C235.829 106.948 233 109.176 229.38 110.619C225.759 112.061 221.819 112.874 217.562 113.057L208.099 113.112L207.431 139.182Z" fill="#747474"/>
</svg>
