<svg width="14" height="15" viewBox="0 0 14 15" fill="none" xmlns="http://www.w3.org/2000/svg">
<path d="M13.8789 13.289L10.4759 9.88601C11.3888 8.83655 11.9415 7.46729 11.9415 5.97073C11.9415 2.67643 9.26192 0 5.97073 0C2.67642 0 0 2.67953 0 5.97073C0 9.26192 2.67953 11.9415 5.97073 11.9415C7.46729 11.9415 8.83655 11.3888 9.88601 10.4759L13.289 13.8789C13.3697 13.9596 13.4784 14.0031 13.5839 14.0031C13.6895 14.0031 13.7982 13.9627 13.8789 13.8789C14.0404 13.7175 14.0404 13.4504 13.8789 13.289ZM0.835218 5.97073C0.835218 3.13906 3.13906 0.838324 5.96762 0.838324C8.79929 0.838324 11.1 3.14216 11.1 5.97073C11.1 8.79929 8.79929 11.1062 5.96762 11.1062C3.13906 11.1062 0.835218 8.8024 0.835218 5.97073Z" fill="black"/>
</svg>
