<svg width="32" height="29" viewBox="0 0 32 29" fill="none" xmlns="http://www.w3.org/2000/svg">
<path d="M28.4243 9.26074H12.1756C10.6023 9.26074 9.31274 10.8501 9.31274 12.7891V25.4719C9.31274 27.4109 10.6023 29.0002 12.1756 29.0002H28.4243C29.9976 29.0002 31.2871 27.4109 31.2871 25.4719V12.7891C31.2936 10.8421 29.9976 9.26074 28.4243 9.26074ZM29.7461 25.5196C29.7461 26.2189 29.2818 26.799 28.708 26.799H12.1434C11.576 26.799 11.1053 26.2268 11.1053 25.5196V16.5955H29.7461V25.5196ZM29.7461 13.2341H11.1053V12.7493C11.1053 12.05 11.5695 11.4699 12.1434 11.4699H28.708C29.2754 11.4699 29.7461 12.0421 29.7461 12.7493V13.2341Z" fill="black"/>
<path d="M11.9693 7.0829H22.0473L19.9969 1.96526C19.2941 0.216997 17.5725 -0.498201 16.1539 0.367984L1.59461 9.23645C0.176071 10.1026 -0.404239 12.2244 0.298581 13.9727L4.86368 25.3443C5.47623 26.878 6.88832 27.625 8.18434 27.1879C7.79747 26.3853 7.57824 25.4556 7.57824 24.4622V12.5025C7.57179 9.52253 9.5513 7.0829 11.9693 7.0829Z" fill="black"/>
<path d="M14.0389 25.424C14.5998 25.424 15.1092 25.114 15.4445 24.6213C15.7863 25.114 16.2892 25.424 16.8502 25.424C17.8754 25.424 18.7071 24.3988 18.7071 23.1353C18.7071 21.8718 17.8754 20.8467 16.8502 20.8467C16.2892 20.8467 15.7798 21.1566 15.4445 21.6493C15.1028 21.1566 14.5998 20.8467 14.0389 20.8467C13.0137 20.8467 12.1819 21.8718 12.1819 23.1353C12.1819 24.3988 13.0137 25.424 14.0389 25.424Z" fill="black"/>
</svg>
