<svg width="76" height="57" viewBox="0 0 76 57" fill="none" xmlns="http://www.w3.org/2000/svg">
<path d="M68.9965 18.5918H29.5547C25.7358 18.5918 22.6055 21.6789 22.6055 25.4453V50.0807C22.6055 53.8471 25.7358 56.9342 29.5547 56.9342H68.9965C72.8155 56.9342 75.9458 53.8471 75.9458 50.0807V25.4453C75.9615 21.6635 72.8155 18.5918 68.9965 18.5918ZM72.2051 50.1733C72.2051 51.5317 71.0782 52.6585 69.6852 52.6585H29.4765C28.0991 52.6585 26.9566 51.5471 26.9566 50.1733V32.839H72.2051V50.1733ZM72.2051 26.3097H26.9566V25.3681C26.9566 24.0097 28.0835 22.8829 29.4765 22.8829H69.6852C71.0625 22.8829 72.2051 23.9943 72.2051 25.3681V26.3097Z" fill="black"/>
<path d="M29.054 14.3625H53.5173L48.5402 4.42186C46.8341 1.02599 42.6552 -0.363225 39.2119 1.31927L3.87073 18.5456C0.427392 20.2281 -0.981245 24.3494 0.724771 27.7453L11.806 49.8338C13.2929 52.8129 16.7206 54.2639 19.8666 53.4149C18.9275 51.8559 18.3953 50.0499 18.3953 48.1204V24.8897C18.3797 19.1012 23.1847 14.3625 29.054 14.3625Z" fill="black"/>
<path d="M34.078 49.9878C35.4396 49.9878 36.6761 49.3858 37.49 48.4288C38.3195 49.3858 39.5403 49.9878 40.902 49.9878C43.3906 49.9878 45.4097 47.9966 45.4097 45.5422C45.4097 43.0879 43.3906 41.0967 40.902 41.0967C39.5403 41.0967 38.3039 41.6987 37.49 42.6557C36.6605 41.6987 35.4396 41.0967 34.078 41.0967C31.5894 41.0967 29.5703 43.0879 29.5703 45.5422C29.5703 47.9966 31.5894 49.9878 34.078 49.9878Z" fill="black"/>
</svg>
