<svg width="49" height="31" viewBox="0 0 49 31" fill="none" xmlns="http://www.w3.org/2000/svg">
<path d="M46.3619 30.0834H42.4772C42.2063 30.0834 41.9865 29.8673 41.9865 29.6011V28.375H7.59596V29.6011C7.59596 29.8673 7.37612 30.0834 7.10525 30.0834H3.22056C2.94969 30.0834 2.72985 29.8673 2.72985 29.6011V28.375H1.07372C0.802845 28.375 0.583008 28.1589 0.583008 27.8927V12.2874C0.583008 11.3621 1.349 10.6094 2.29018 10.6094H3.94632C4.20566 10.6094 4.45175 10.6665 4.67208 10.7688V6.96901C4.67208 3.63178 7.43427 0.916748 10.8295 0.916748H38.753C42.1482 0.916748 44.9104 3.63178 44.9104 6.96901V10.7688C45.1307 10.6668 45.3768 10.6096 45.6361 10.6096H47.2923C48.2337 10.6096 48.9997 11.3623 48.9997 12.2877V27.8929C48.9997 28.1592 48.7798 28.3752 48.509 28.3752H46.8528V29.6013C46.8526 29.8676 46.633 30.0834 46.3619 30.0834ZM42.9679 29.1188H45.8714V28.375H42.9679V29.1188ZM3.71127 29.1188H6.61454V28.375H3.71127V29.1188ZM46.3619 27.4103H48.018V12.2874C48.018 11.8941 47.6924 11.574 47.292 11.574H45.6359C45.2357 11.574 44.9101 11.8941 44.9101 12.2874V27.4103H46.3619ZM42.4772 27.4103H43.9289V20.7151H5.65374V27.4103H42.4772ZM3.22056 27.4103H4.67232V12.2874C4.67232 11.8941 4.34674 11.574 3.94656 11.574H2.29043C1.89001 11.574 1.56442 11.8943 1.56442 12.2874V27.4103H3.22056ZM6.70508 19.7507H42.8774C43.4571 19.7507 43.9287 19.2872 43.9287 18.7173V16.9255C43.9287 16.3556 43.4571 15.8921 42.8774 15.8921H6.70508C6.12531 15.8921 5.65349 16.3556 5.65349 16.9255V18.7173C5.65374 19.2872 6.12531 19.7507 6.70508 19.7507ZM42.8774 14.9274H43.9287V6.96901C43.9287 4.16379 41.6067 1.88141 38.7527 1.88141H10.8295C7.97552 1.88141 5.65349 4.16379 5.65349 6.96901V14.9274H42.8774Z" fill="black"/>
</svg>
