<svg width="38" height="38" fill="none" xmlns="http://www.w3.org/2000/svg"><g clip-path="url(#clip0)" fill="#000"><path d="M8.866 25.309a2.533 2.533 0 10-5.066 0 2.533 2.533 0 005.066 0zm-3.8 0a1.267 1.267 0 112.534 0 1.267 1.267 0 01-2.534 0z"/><path d="M37.367 15.175H24.804A6.33 6.33 0 0014.338 8.36l-.003.003L1.849 20.834c-.009.009-.011.02-.019.028a6.328 6.328 0 004.504 10.78h15.833a.633.633 0 100-1.267h-1.005l1.267-1.266H24.7a.633.633 0 100-1.267h-1.004l1.266-1.267h2.271a.633.633 0 100-1.266H26.23l1.267-1.267h2.27a.633.633 0 000-1.267h-1.004l1.267-1.266h2.27a.633.633 0 000-1.267h-1.004l1.266-1.267h2.271a.633.633 0 000-1.266H33.83l1.267-1.267h2.27a.633.633 0 100-1.267zm-13.3-2.533a5.01 5.01 0 01-1.485 3.578v.001h-.002l-9.985 9.988a6.287 6.287 0 00-7.165-7.162l9.8-9.788.008-.013.014-.01a5.066 5.066 0 018.815 3.406zm-22.8 12.667a5.066 5.066 0 1110.133 0 5.066 5.066 0 01-10.133 0zm9.467 4.545c.009-.008.019-.01.027-.018l12.715-12.718c.21-.212.404-.439.582-.677l.009.001h9.237L21.72 28.028l-2.348 2.347h-9.253c.216-.16.422-.335.616-.521z"/></g><defs><clipPath id="clip0"><path fill="#fff" d="M0 0h38v38H0z"/></clipPath></defs></svg>