<svg width="37" height="39" fill="none" xmlns="http://www.w3.org/2000/svg"><path d="M35.993 12.688h-2.42V4.069c0-2.254-1.866-4.069-4.12-4.069H7.672a4.064 4.064 0 00-4.073 4.069v8.619H1.008a.645.645 0 00-.645.674v17.865c0 .376.269.706.645.706h.547v6.404A.677.677 0 002.25 39h5.707a.655.655 0 00.667-.663v-6.405h19.585v6.405c0 .376.337.663.714.663h5.707a.638.638 0 00.646-.663v-6.405h.718c.376 0 .645-.329.645-.705V13.362a.645.645 0 00-.645-.674zM4.961 4.069a2.7 2.7 0 012.71-2.707h21.782c1.503 0 2.757 1.205 2.757 2.707v8.619h-3.288c-.377 0-.714.298-.714.674v10.821H8.793V13.362c0-.376-.337-.674-.713-.674H4.96V4.069zm2.3 33.568H2.917v-5.705H7.26v5.705zm26.652 0H29.57v-5.705h4.343v5.705zm1.362-7.067H1.725V14.05h5.706V24.9a.625.625 0 00.649.646h20.842a.626.626 0 00.648-.646V14.05h5.705v16.52z" fill="#000"/></svg>