<svg width="46" height="31" fill="none" xmlns="http://www.w3.org/2000/svg"><path d="M42.714 11.809V7.834c0-4.164-2.957-7.477-6.489-7.477H9.775c-3.532 0-6.49 3.407-6.49 7.477v3.975C1.397 12.282 0 14.175 0 16.447v9.464c0 .568.329.946.821.946h.822v2.84c0 .567.328.946.821.946.493 0 .822-.379.822-.947v-2.839h39.428v2.84c0 .567.329.946.822.946.493 0 .821-.379.821-.947v-2.839h.822c.492 0 .821-.378.821-.946v-9.465c0-2.271-1.396-4.164-3.286-4.637zM4.93 7.834c0-3.123 2.217-5.584 4.846-5.584h26.368c2.71 0 4.846 2.555 4.846 5.584v3.88h-3.368c-.246-2.176-1.889-3.785-3.778-3.785h-3.779c-1.889 0-3.532 1.609-3.778 3.785h-6.654c-.246-2.176-1.89-3.785-3.778-3.785h-3.779c-1.89 0-3.532 1.609-3.779 3.785H4.93v-3.88zm31.132 3.88h-8.05c.246-1.135 1.15-1.893 2.135-1.893h3.779c.986 0 1.89.758 2.136 1.893zm-18.072 0H9.94c.247-1.135 1.15-1.893 2.136-1.893h3.779c.985 0 1.889.758 2.135 1.893zm26.368 13.25H1.643v-8.517c0-1.61 1.068-2.84 2.464-2.84h37.786c1.396 0 2.464 1.23 2.464 2.84v8.517z" fill="#000"/></svg>