<svg width="28" height="21" fill="none" xmlns="http://www.w3.org/2000/svg"><path d="M25.71 4.842a4.604 4.604 0 00-3.624-1.708h-3.731V.77c0-.424-.308-.771-.684-.771H.684C.308 0 0 .347 0 .77v16.948c0 .424.308.771.684.771h2.723C3.629 19.915 4.728 21 6.056 21c1.327 0 2.426-1.085 2.649-2.511h10.464C19.392 19.915 20.491 21 21.82 21c1.327 0 2.426-1.085 2.648-2.511h2.04c.376 0 .683-.347.683-.77V9.754c-.005-2.036-.512-3.738-1.48-4.913zm-24.343-3.3h15.62v15.413H8.586c-.37-1.17-1.367-2.011-2.53-2.011-1.162 0-2.158.841-2.529 2.01h-2.16V1.541zm4.689 17.917c-.73 0-1.322-.668-1.322-1.49s.592-1.49 1.322-1.49c.729 0 1.321.668 1.321 1.49s-.592 1.49-1.321 1.49zm15.762 0c-.729 0-1.321-.668-1.321-1.49s.592-1.49 1.321-1.49c.73 0 1.322.668 1.322 1.49s-.593 1.49-1.322 1.49zm4-2.511h-1.47c-.37-1.17-1.368-2.01-2.53-2.01-1.162 0-2.159.84-2.529 2.01h-.929V4.675h3.732c2.301 0 3.731 1.946 3.731 5.08v7.193h-.006z" fill="#000"/></svg>