<svg width="38" height="39" fill="none" xmlns="http://www.w3.org/2000/svg"><path d="M34.943 19.576h-.078l.684-11.5c.019-.315-.29-.582-.691-.597-.4-.015-.74.229-.759.544l-.687 11.553H4.402L3.714 8.023c-.25-4.2-.235-3.928-.235-4.027 0-1.573 1.628-2.853 3.629-2.853h23.597c2.001 0 3.63 1.28 3.63 2.853 0 .093-.154 2.653-.258 4.4-.019.316.29.583.69.598.401.015.741-.229.76-.544.103-1.743.259-4.325.259-4.454 0-2.203-2.28-3.996-5.08-3.996H7.107c-2.801 0-5.08 1.793-5.08 3.996 0 .135-.016-.16.237 4.08l.684 11.5H2.87c-1.36 0-2.468.872-2.468 1.943v2.833c0 1.07 1.107 1.942 2.468 1.942h.5v6.531c0 .316.324.571.725.571.401 0 .726-.255.726-.571v-6.531H7L5.995 37.428c-.021.24-.279.43-.586.43-.324 0-.587-.208-.587-.463v-4.817c0-.315-.325-.571-.726-.571-.4 0-.726.256-.726.571v4.817c0 .885.915 1.605 2.04 1.605 1.064 0 1.958-.655 2.033-1.491l1.013-11.215h20.902l1.013 11.215c.075.836.968 1.491 2.033 1.491 1.124 0 2.04-.72 2.04-1.605V26.294h.499c1.36 0 2.467-.871 2.467-1.942v-2.833c0-1.071-1.107-1.942-2.467-1.942zm-1.951 17.82c0 .254-.264.461-.588.461-.307 0-.564-.188-.586-.43l-1.005-11.133h2.179v11.101zm2.967-13.044c0 .44-.456.8-1.016.8H2.87c-.56 0-1.016-.36-1.016-.8v-2.833c0-.441.456-.8 1.016-.8h32.072c.56 0 1.016.359 1.016.8v2.833z" fill="#000"/></svg>