<svg width="40" height="32" fill="none" xmlns="http://www.w3.org/2000/svg"><path d="M39.273.481H1.023a.554.554 0 00-.553.554v30.411c0 .306.248.554.553.554h38.25a.554.554 0 00.553-.554V1.036a.554.554 0 00-.553-.555zm-.554 7.603H21.98V1.59h16.74v6.495zm-16.74 8.71h16.74v6.496H21.98v-6.496zm0-1.107V9.191h16.74v6.496H21.98zM1.578 1.59h19.295v29.304H1.577V1.589zM21.98 30.893v-6.496h16.74v6.496H21.98z" fill="#004D77"/><path d="M19.285 13.694a.554.554 0 00-.554.554v3.986a.554.554 0 101.108 0v-3.986a.554.554 0 00-.554-.554z" fill="#004D77"/></svg>