<svg width="57" height="57" fill="none" xmlns="http://www.w3.org/2000/svg"><g clip-path="url(#clip0)"><path d="M28.046 54.854c14.805 0 26.808-12.003 26.808-26.808 0-14.806-12.003-26.809-26.808-26.809-14.806 0-26.809 12.003-26.809 26.809 0 14.805 12.003 26.808 26.809 26.808z" stroke="#000" stroke-width="2.475" stroke-miterlimit="10"/><path d="M37.227 25.303a1.589 1.589 0 00-1.287-.656h-4.871l-1.514-4.636a1.592 1.592 0 00-3.023 0l-1.51 4.636h-4.874a1.593 1.593 0 00-.937 2.879l3.943 2.866-1.505 4.636a1.59 1.59 0 001.023 2.005 1.587 1.587 0 001.427-.227l3.947-2.862 3.943 2.866a1.571 1.571 0 001.872 0c.565-.4.8-1.122.578-1.778l-1.506-4.64 3.943-2.866c.71-.515.87-1.51.35-2.223zm-5.696 4.14a.793.793 0 00-.289.892l1.687 5.188-4.413-3.205a.799.799 0 00-.936 0l-4.413 3.205 1.682-5.188a.795.795 0 00-.288-.891l-4.413-3.205H25.6a.79.79 0 00.755-.548l1.69-5.189 1.688 5.184a.797.797 0 00.754.55h5.453l-4.41 3.208z" fill="#000"/><path d="M46.11 29.147c-2.739-1.872-3.584-5.593-1.934-8.471.994-1.729.474-3.436-.339-4.459-.816-1.023-2.367-1.905-4.272-1.324-3.172.97-6.612-.684-7.828-3.77-.734-1.855-2.388-2.515-3.696-2.515-1.307 0-2.965.66-3.695 2.515-1.217 3.086-4.657 4.74-7.828 3.77-1.906-.581-3.456.301-4.273 1.324-.817 1.023-1.332 2.73-.338 4.459 1.654 2.874.804 6.594-1.935 8.47-1.645 1.127-1.921 2.892-1.629 4.166.289 1.275 1.304 2.743 3.275 3.044 3.279.5 5.659 3.485 5.415 6.793-.144 1.988 1.06 3.304 2.24 3.869 1.18.569 2.957.693 4.421-.66a6.377 6.377 0 014.343-1.687c1.563 0 3.126.56 4.343 1.687 1.464 1.353 3.246 1.229 4.421.66 1.18-.57 2.384-1.88 2.24-3.869-.24-3.308 2.136-6.29 5.415-6.793 1.972-.3 2.982-1.769 3.275-3.044.301-1.274.025-3.035-1.621-4.165zM28.045 41.813c-7.172 0-13.008-5.836-13.008-13.008 0-7.173 5.836-13.009 13.008-13.009 7.173 0 13.009 5.836 13.009 13.009-.005 7.172-5.836 13.008-13.009 13.008z" stroke="#000" stroke-width="1.65" stroke-miterlimit="10"/></g><defs><clipPath id="clip0"><path fill="#fff" d="M0 0h56.091v56.091H0z"/></clipPath></defs></svg>