<svg width="57" height="57" fill="none" xmlns="http://www.w3.org/2000/svg"><g clip-path="url(#clip0)" stroke="#000" stroke-miterlimit="10"><path d="M28.046 54.854c14.805 0 26.808-12.003 26.808-26.808 0-14.806-12.003-26.809-26.808-26.809-14.806 0-26.809 12.003-26.809 26.809 0 14.805 12.003 26.808 26.809 26.808z" stroke-width="2.475"/><path d="M29.572 7.836s-8.773 4.025-14.105 10.517c-5.605 6.822-7.602 16.197 0 19.385 4.112 1.724 5.34 1.245 9.898-.825 0 0 .062 5.312 4.207 6.137 4.145.825 12.014-2.9 12.014-11.185 0-8.286-12.509-9.8-12.014-24.029z" stroke-width="2.062"/><path d="M28.252 10.104c-1.72 2.644-.033 9.206.358 12.877.318 2.982.145 6.557-1.526 9.713-3.728 7.044-10.034 16.274-6.879 20.98m8.641-22.886l9.51-2.21m-9.279-3.213l6.6-2.475M25.134 36.975l15.697-2.33" stroke-width="2.062" stroke-linecap="round"/></g><defs><clipPath id="clip0"><path fill="#fff" d="M0 0h56.091v56.091H0z"/></clipPath></defs></svg>