<svg width="320" height="79" fill="none" xmlns="http://www.w3.org/2000/svg"><path d="M60.157 20.6C56.925 17.019 51 10.57 39.686 10.57c-15.803 0-28.014 13.076-28.014 29.02.18 16.839 13.468 28.483 27.834 28.483 3.95 0 19.574-1.792 22.806-18.093H38.429V39.769H75.78C75.78 65.744 58.72 79 39.327 79 16.88 79 0 61.086 0 39.769 0 17.735 17.06 0 38.968 0 49.92 0 61.413 4.837 69.136 14.51l-8.979 6.09zm48.126 8.241c-13.288 0-19.573 11.465-19.573 20.422 0 10.211 8.08 20.064 19.573 20.064 11.314 0 19.933-9.136 19.933-20.064-.179-12.181-8.979-20.422-19.933-20.422zm19.574 48.726v-8.778h-.18C123.547 75.776 116.005 79 108.283 79c-19.214 0-30.347-14.69-30.347-29.737 0-13.973 9.876-30.274 30.347-30.274 7.902 0 15.264 3.224 19.394 9.494h.18V20.78h9.697v56.608h-9.697v.179zm47.946-8.241c10.236 0 19.574-8.777 19.574-20.242 0-10.749-8.261-20.243-19.574-20.243-11.672 0-19.573 10.032-19.573 20.063 0 12.898 9.876 20.422 19.573 20.422zm-29.989 8.24V1.434h10.775v27.05h.179c4.669-6.45 11.852-9.495 19.574-9.495 15.084 0 29.63 12.54 29.63 30.096 0 16.48-12.75 29.916-29.45 29.916-5.208 0-14.007-1.792-19.933-9.674h-.18v8.24h-10.595zm112.233-32.065c-.539-8.42-8.081-16.66-18.496-16.66-10.236 0-17.958 8.42-18.496 16.66h36.992zm6.464 19.168C258.226 75.417 247.272 79 239.371 79c-16.161 0-29.091-13.973-29.091-30.095 0-17.018 13.289-29.916 29.271-29.916 15.443 0 28.911 12.54 29.091 29.2 0 1.79-.18 4.657-.36 5.373h-47.407c2.694 10.928 11.493 15.585 18.855 15.585 7.902 0 13.648-4.657 16.342-9.494l8.439 5.016zm8.621 12.898V20.959h10.056v4.837h.18c4.489-6.45 11.851-6.628 14.545-6.628v10.927c-1.616 0-5.208.717-7.722 1.97-3.412 1.792-6.285 6.091-6.285 14.332v31.17h-10.774zm35.376-53.563h2.334c1.257 0 2.514.18 2.514 1.612 0 1.792-1.436 1.792-2.873 1.792h-1.796v-3.404h-.179zm-1.796 9.674h1.796V28.84h1.796l3.052 4.837h1.796l-3.232-4.837c1.616-.18 2.873-1.075 2.873-3.045 0-2.15-1.257-3.225-3.951-3.225h-4.309v11.107h.179zm-4.13-5.553c0-4.479 3.412-8.062 7.901-8.062 4.31 0 7.722 3.583 7.722 8.062 0 4.657-3.412 8.06-7.722 8.06-4.489 0-7.901-3.403-7.901-8.06zm-1.616 0c0 5.374 4.31 9.494 9.517 9.494 5.208 0 9.518-4.12 9.518-9.494 0-5.375-4.31-9.495-9.518-9.495-5.207 0-9.517 4.12-9.517 9.495z" fill="#747474"/></svg>