<svg width="253" height="201" fill="none" xmlns="http://www.w3.org/2000/svg"><path d="M87.727 139.404l-11.514-.09L37.63 84.091l-.217 55.133-13.247.393-.218-81.038 11.988.246 38.582 55.223-.257-55.289 13.72-.238-.255 80.883zm41.497-30.571l23.657-.138-11.653-30.105-12.004 30.243zm49.823 30.514l-14.669-.072-6.707-17.97-33.594.038-6.857 17.733-14.669-.072 32.747-80.757 11.04-.065 32.709 81.165zm28.364-38.552l7.412-.202c5.205.128 9.3-1.16 12.284-3.863 2.829-2.228 4.073-6.026 4.206-11.24-.177-4.264-.821-7.104-2.568-9.78-.319-.63-.793-.785-1.585-1.57-1.266-.94-3.006-2.036-4.902-2.657-1.895-.62-4.42-.922-7.574-.904l-7.412.202.139 30.014zm.02 38.387l-13.565-.237.101-80.409 23.028.182c4.257-.183 8.204.584 11.839 2.3l.948.31c2.688 1.407 7.278 5.014 7.278 5.014.474.155.319.63.792.785 2.377 2.356 3.969 5.506 5.561 8.656 1.118 2.995 2.08 6.465 1.939 10.099-.141 3.634-.6 6.638-1.689 9.962-1.088 3.324-3.125 6.337-5.479 8.72-2.355 2.384-5.184 4.612-8.804 6.055-3.621 1.442-7.561 2.255-11.818 2.438l-9.463.055-.668 26.07z" fill="#747474"/></svg>