<svg width="214" height="131" fill="none" xmlns="http://www.w3.org/2000/svg"><path d="M89.542 78.467c-2.837 0-5.357-.045-7.876.023-1.158.023-1.158-.82-1.34-1.502-3.359-11.473-6.672-22.946-10.009-34.419a3497.92 3497.92 0 00-4.244-14.523c-.137-.5-.34-1.002-.659-1.98C58.47 43.684 51.682 60.847 44.782 78.33c-6.9-17.437-13.686-34.624-20.45-51.788h-.386c-.704 2.322-1.407 4.622-2.088 6.943A31241.46 31241.46 0 009.283 76.918c-.34 1.207-.885 1.64-2.156 1.571-2.292-.114-4.585-.023-7.127-.023C7.581 52.38 15.094 26.544 22.743.251c7.377 18.712 14.617 36.991 22.04 55.794C52.203 37.265 59.444 18.94 66.821.251c7.603 26.247 15.139 52.107 22.72 78.216zm37.134 0V.274c.159-.09.249-.205.34-.205 8.012.091 16.07-.41 23.992.41 16.977 1.73 30.641 15.206 33.524 32.165 3.132 18.461-6.923 36.354-24.309 43.183-4.472 1.752-9.125 2.663-13.937 2.64h-19.61zm7.762-70.317v57.342c0 1.593-.499 3.824.318 4.575.931.866 3.087.524 4.699.456 4.312-.16 8.715.023 12.914-.774 14.686-2.823 25.694-16.64 24.627-32.21-.794-11.565-6.4-20.056-16.342-25.792-8.171-4.712-17.137-3.528-26.216-3.597zm45.803 70.112c2.361-2.663 4.472-5.099 6.651-7.489.34-.364.862-.66 1.339-.774 9.896-2.39 16.682-10.95 16.705-21.193.023-15.456 0-30.936 0-46.392V.137h7.695c.045.365.136.774.136 1.184 0 16.39.113 32.803-.046 49.192-.113 12.84-10.35 24.881-22.901 27.248-2.679.501-5.425.479-8.149.683-.431.046-.908-.113-1.43-.182zM101.05.07h8.194v78.603h-8.194V.07zM49.028 130.96c-1.317 0-2.52.114-3.7-.045-.5-.069-1.067-.661-1.362-1.161-4.721-7.922-9.397-15.889-14.095-23.834-1.77-3.005-3.564-6.032-5.72-8.946v33.895h-2.77V92.353c2.793-.706 3.337-.524 4.722 1.844 6.287 10.63 12.574 21.284 18.884 31.914.295.501.613.979 1.226 1.412V92.216h2.792c.023 12.885.023 25.678.023 38.744zm96.418-.068c-2.837.159-2.837.159-3.722-2.277-1.135-3.141-2.293-6.283-3.359-9.447-.341-.979-.84-1.366-1.884-1.366-4.721.046-9.442.046-14.164 0-.998 0-1.452.365-1.747 1.298-1.044 3.187-2.179 6.328-3.246 9.492-.885 2.573-.885 2.573-3.813 2.277 1.362-3.916 2.701-7.785 4.063-11.655 3.018-8.65 6.083-17.278 9.033-25.928.454-1.32 1.135-1.707 2.383-1.57 1.272.136 2.543-.41 3.224 1.547 4.176 12.133 8.534 24.198 12.824 36.286.136.386.249.796.408 1.343zm-15.797-36.969c-.159-.022-.295-.045-.454-.045-2.361 7.034-4.721 14.068-7.15 21.284h14.912c-2.474-7.216-4.902-14.227-7.308-21.239zm69.658 18.736c1.861-3.346 3.563-6.42 5.265-9.47 1.657-2.982 3.292-5.964 4.926-8.946 1.271-2.276 1.271-2.276 4.131-2.049-.318.638-.59 1.207-.908 1.73-3.813 6.738-7.649 13.454-11.394 20.237-.454.82-.704 1.844-.727 2.777-.068 4.007-.022 8.036-.022 12.042v1.867h-2.52c-.045-.637-.091-1.229-.091-1.798-.022-2.208-.204-4.416.046-6.602.545-4.939-.908-9.174-3.518-13.339-3.201-5.099-5.97-10.494-8.92-15.753-.182-.318-.318-.683-.5-1.024 2.542-.615 2.724-.524 3.881 1.616 3.11 5.691 6.22 11.359 9.352 17.027.25.501.567.956.999 1.685zm-37.654 15.524h15.139v2.663h-17.795V92.193h2.656v35.99zm-65.37 2.709h-2.837v-36.49h-9.579v-2.185h21.903v2.048h-9.487v36.627zM.93 91.898h2.93v38.949H.93V91.898zm65.551 0h2.928v38.949h-2.928V91.898z" fill="#747474"/></svg>