<svg width="237" height="70" fill="none" xmlns="http://www.w3.org/2000/svg"><path d="M50.907 69.266c8.262 0 24.784-1.328 24.784-17.483 0-14.827-6.922-25.891-25.677-25.891h-25.23c-4.689 0-6.252-1.107-6.252-3.099 0-2.876 2.01-5.532 7.145-5.532h21.881c1.563 0 2.903-1.106 2.903-2.655V2.655C50.46 1.328 49.12 0 47.78 0H25.9C7.814 0 0 9.958 0 25.892c0 3.54 0 17.703 24.784 17.703h25.23c5.805 0 7.145 3.098 7.145 5.533 0 1.77-1.34 3.098-5.582 3.098H5.582c-1.563 0-2.903 1.106-2.903 2.655v11.95c0 1.55 1.34 2.656 2.903 2.656h45.325v-.221zm32.23-2.443c0 1.554 1.345 2.664 2.915 2.664h12.782c1.57 0 2.915-1.11 2.915-2.664V2.664c0-1.554-1.345-2.664-2.915-2.664H86.052c-1.57 0-2.915 1.11-2.915 2.664v64.159zm50.432 2.664c-14.596 0-21.893-7.77-21.893-23.754V2.22c0-.888 1.327-2.22 2.875-2.22h12.605c1.547 0 2.874 1.11 2.874 2.664v15.54h15.038c1.548 0 2.875 1.11 2.875 2.664v11.988c0 1.554-1.327 2.664-2.875 2.664H130.03v10.656c0 4.885 1.991 5.995 3.539 5.995h19.902c1.548 0 2.875 1.11 2.875 2.664v11.988c0 1.554-1.327 2.664-2.875 2.664h-19.902zm78.574-.221c8.286 0 24.858-1.328 24.858-17.483 0-14.827-6.943-25.891-25.753-25.891h-25.305c-4.703 0-6.271-1.107-6.271-3.099 0-2.876 2.016-5.532 7.166-5.532h21.946c1.568 0 2.912-1.106 2.912-2.655V2.655c0-1.328-1.12-2.656-2.688-2.656h-21.946c-18.139 0-25.752 9.958-25.752 25.892 0 3.54 0 17.703 24.857 17.703h25.305c5.822 0 7.166 3.098 7.166 5.533 0 1.77-1.344 3.098-5.599 3.098h-46.355c-1.567 0-2.911 1.106-2.911 2.655v11.95c0 1.55 1.344 2.656 2.911 2.656h45.459v-.221z" fill="#747474"/></svg>