<svg width="339" height="94" fill="none" xmlns="http://www.w3.org/2000/svg"><path d="M211.095 81.762h5.719v11.717h2.08V81.762h5.72v-1.823h-13.779v1.823h.26zm-6.499 11.717h2.08v-13.8h-2.08v13.8zm-7.279-4.166l-9.619-9.634h-1.04v13.8h2.08v-9.634l9.619 9.634h1.039v-13.8h-2.079v9.634zM206.416.26h-9.359v43.485L157.801.26h-4.939v61.712h9.619V18.748l38.995 43.224h4.94V.26zm30.676 11.457L227.473 0h-.26v61.712l9.879-11.718V11.718zm29.377 75.513h7.019v-2.083h-7.019v-3.385h10.658v-2.083h-12.738v13.8h13.518v-2.083h-11.178V87.23h-.26zM313.263.26h-11.699l-19.757 23.696L262.049.26H250.35l25.477 30.726-25.996 30.986h11.438l20.538-24.216 20.277 24.216h11.699l-25.997-31.246L313.263.26zm-65.252 85.147v-3.645h7.279c.78 0 1.3.26 1.56.52s.52.782.52 1.303c0 .52-.26 1.041-.52 1.301s-1.04.521-1.56.521h-7.279zm10.918.781c.52-.78 1.04-1.562 1.04-2.603 0-1.302-.52-2.084-1.3-2.865-.779-.78-1.819-1.041-3.379-1.041h-9.359v13.8h2.08V87.49h5.979l3.9 5.99h2.339l-3.899-5.99c1.3-.26 2.08-.52 2.599-1.302zm-18.977 2.344c0 1.302-.26 2.083-1.04 2.604-.52.52-1.82.78-3.64.78s-3.119-.26-3.639-.78c-.52-.521-1.04-1.302-1.04-2.604v-8.853h-2.08v9.374c0 1.822.52 2.864 1.56 3.645 1.04.781 2.86 1.042 5.199 1.042 2.34 0 4.16-.26 5.2-1.042 1.04-.781 1.559-2.083 1.559-3.645v-9.374h-2.079v8.853zm-69.932-3.125v-3.645h7.279c.78 0 1.3.26 1.56.52s.52.782.52 1.303c0 .52-.26 1.041-.52 1.301s-1.04.521-1.56.521h-7.279zm10.659.781c.52-.78 1.04-1.562 1.04-2.603 0-1.302-.26-2.084-1.3-2.865-.78-.78-1.82-1.041-3.38-1.041h-9.359v13.8h2.08V87.49h5.979l3.9 5.99h2.34l-3.9-5.99c1.3-.26 2.08-.52 2.6-1.302zm-76.171 1.042h7.019v-2.083h-7.019v-3.385h10.658v-2.083h-12.738v13.8h13.518v-2.083h-11.178V87.23h-.26zm56.933 1.302c0 1.302-.26 2.083-1.04 2.604-.52.52-1.82.78-3.639.78-1.82 0-3.12-.26-3.64-.78-.52-.521-1.04-1.302-1.04-2.604v-8.853h-2.08v9.374c0 1.822.52 2.864 1.56 3.645 1.04.781 2.86 1.042 5.2 1.042 2.339 0 4.159-.26 5.199-1.042 1.04-.781 1.56-2.083 1.56-3.645v-9.374h-2.08v8.853zm-108.927-7.03h5.72v11.717h2.079V81.5h5.72v-1.82h-13.78v1.82h.26zM9.619 32.808h31.196c3.38 0 5.98.781 7.8 2.604 1.82 1.823 2.859 4.166 2.859 7.551 0 3.125-1.04 5.729-2.86 7.551-1.82 1.823-4.42 2.604-7.799 2.604H9.62V32.81zm0-23.695h27.817c3.12 0 5.459.52 7.019 1.822 1.56 1.302 2.34 3.125 2.34 5.468 0 2.344-.78 4.167-2.34 5.469-1.56 1.301-3.9 1.822-7.02 1.822H9.62V9.114zm46.014 47.91c3.9-3.384 5.72-7.81 5.72-13.54 0-3.384-.78-6.509-2.6-9.373-1.82-2.864-4.42-5.208-7.799-7.03 1.82-1.303 3.38-2.865 4.42-4.688 1.04-1.822 1.56-4.166 1.56-6.77 0-4.947-1.56-8.853-4.94-11.457C48.874 1.562 43.934.26 37.696.26H0v61.712h39.775c6.76 0 11.959-1.822 15.858-4.947zm81.891-3.905H86.83V33.59h31.716v-9.114H86.83V9.115h48.094V.26H77.211v61.712h60.573V53.12h-.26zm-89.69 32.809c-1.04-.781-2.86-1.042-4.94-1.042-1.559 0-2.599-.26-3.379-.26-.52-.26-1.04-.781-1.04-1.302 0-.52.26-1.041 1.04-1.302.52-.26 1.56-.52 2.6-.52.78 0 1.82.26 2.86.52 1.04.26 1.82.781 2.86 1.302l1.04-1.823c-1.04-.78-2.08-1.041-3.12-1.562-1.04-.26-2.34-.52-3.38-.52-1.82 0-3.12.26-4.16 1.04-1.3.782-1.82 1.563-1.82 2.865 0 1.302.52 2.083 1.3 2.604 1.04.52 2.6.781 5.2.781 1.56 0 2.6.26 3.12.52.78.261 1.04 1.043 1.04 1.824 0 .78-.26 1.302-1.04 1.822-.78.521-1.82.781-2.86.781-1.04 0-2.08-.26-3.12-.52s-2.08-.781-3.12-1.563l-1.04 1.823c1.04.781 2.34 1.302 3.64 1.563 1.3.26 2.6.52 3.9.52 1.82 0 3.38-.52 4.42-1.302 1.04-.78 1.56-1.822 1.56-3.124s-.52-2.344-1.56-3.125zm85.53 7.551h2.08v-6.25h6.759v-2.082h-6.759v-3.385h10.399v-2.083h-12.739v13.8h.26zm-56.933-8.853l-4.42-4.947h-2.86l6.24 6.77v7.03h2.08v-7.03l6.24-6.77h-2.86l-4.42 4.947zm12.478-4.947h-2.08v13.8h12.22v-2.083h-10.14V79.68zM328.082 8.593V5.729h3.9c.52 0 .78 0 1.04.26s.52.52.52 1.041c0 .521-.26.782-.52 1.042s-.78.26-1.3.26h-3.64v.26zm5.72 0c.26-.521.52-1.042.52-1.563 0-.78-.26-1.301-.78-1.822-.52-.521-1.04-.521-1.82-.521h-4.94v8.332h1.04V9.634h3.38l2.08 3.646h1.04l-2.08-3.646c.78-.26 1.3-.52 1.56-1.041zm-3.64 8.072c-4.419 0-7.799-3.646-7.799-7.812 0-4.426 3.64-7.811 7.799-7.811 4.42 0 7.799 3.645 7.799 7.811.26 4.166-3.379 7.812-7.799 7.812zm0-16.665c-4.939 0-8.839 3.906-8.839 8.853 0 4.948 3.9 8.853 8.839 8.853S339 13.801 339 8.853C339 3.906 335.1 0 330.161 0z" fill="#747474"/></svg>