<svg width="224" height="56" fill="none" xmlns="http://www.w3.org/2000/svg"><g clip-path="url(#clip0)" fill-rule="evenodd" clip-rule="evenodd" fill="#fff"><path d="M68.395 47.414c0 .746.093 1.4.371 1.96s.556 1.12 1.02 1.586c.463.467.926.747 1.575 1.027.649.28 1.298.373 2.04.373.462 0 .926-.093 1.297-.186.37-.094.74-.187 1.019-.374.278-.186.556-.28.741-.466.186-.187.371-.28.464-.374l.185-.186-.741-1.307-.093.093a1.277 1.277 0 01-.37.28c-.186.094-.371.28-.557.374-.278.093-.463.186-.834.28-.278.093-.649.093-.927.093-.463 0-.926-.093-1.297-.28-.37-.187-.742-.373-1.02-.747-.278-.28-.556-.653-.648-1.026-.186-.374-.278-.84-.278-1.307 0-.467.092-.933.278-1.307.185-.373.37-.746.648-1.026s.65-.56 1.02-.654c.37-.186.834-.28 1.297-.28.278 0 .65 0 .835.094.278.093.463.186.74.28l.557.28c.185.093.278.186.37.28l.093.093.834-1.213s0-.094-.092-.187c-.093-.093-.278-.187-.464-.373-.185-.094-.37-.28-.741-.374-.278-.093-.556-.28-1.02-.373-.37-.093-.834-.093-1.297-.187-.741 0-1.39.094-2.039.374-.649.28-1.112.56-1.575 1.026-.464.467-.742.934-1.02 1.587-.185.84-.37 1.493-.37 2.147zm14.736 4.666h1.761v-7.933h3.058v-1.4h-7.877v1.4h3.058v7.933zm7.229 3.36l.093.094c.092.093.185.093.37.186.186.094.371.187.556.187.186.093.464.093.742.093a2.55 2.55 0 001.205-.28c.37-.186.741-.373 1.019-.746.278-.28.556-.747.741-1.214l4.356-11.013h-1.946l-2.224 6.16c-.093.187-.093.373-.186.467-.092.186-.092.28-.092.466v.187s0-.093-.093-.187c0-.093-.093-.28-.093-.466-.092-.187-.092-.374-.185-.467l-2.317-6.067h-2.039l3.893 9.24-.464 1.027c-.185.467-.37.747-.741 1.027-.278.28-.649.373-.927.373-.185 0-.37 0-.556-.093-.185-.094-.278-.094-.37-.187-.093-.093-.186-.093-.186-.093l-.556 1.306zm13.16-3.36h6.58v1.774h1.761v-3.267h-1.205v-7.933h-6.209l-.834 5.6c-.093.373-.093.746-.186 1.026-.092.28-.092.56-.278.747a1.118 1.118 0 01-.463.467 1.838 1.838 0 01-.834.186h-.278v3.267h1.761V52.08h.185zm2.502-7.746h2.873v6.346h-4.17c.093-.28.278-.653.371-1.026.092-.374.185-.84.278-1.4l.648-3.92zm18.072-1.587h-1.761l-4.633 6.72.092-6.72h-1.853v9.333h1.761l4.633-6.72-.092 6.72h1.853v-9.333zm12.882 0h-4.633c-.278 0-.557 0-.742.093-.185 0-.371.094-.463.094-.464.093-.742.28-1.112.56-.278.28-.556.56-.742.84a2.504 2.504 0 00-.278 1.12c0 .466.093.84.278 1.213.186.373.464.653.742.933.278.28.741.467 1.112.56l-.093.094-.278.28-2.595 3.453h1.946l2.595-3.547h2.41v3.547h1.761v-9.24h.092zm-4.448 4.387c-.371 0-.649 0-.927-.187-.278-.093-.463-.28-.649-.467-.185-.186-.278-.56-.278-.933 0-.28.093-.467.186-.653.092-.187.278-.28.37-.467.186-.093.371-.187.556-.187.186-.093.464-.093.649-.093h2.595v2.893h-2.502v.094zm16.404 4.946h1.853l.834-6.44 2.132 6.44h1.575l2.225-6.44.834 6.44h1.761l-1.205-9.333h-2.132l-2.317 7.093-2.317-7.093h-2.038l-1.205 9.333zm14.921-4.666c0 .653.092 1.306.37 1.96.278.56.556 1.12 1.02 1.586.463.467.927.747 1.575 1.027.556.28 1.298.373 2.039.373.464 0 .834-.093 1.205-.093.371-.093.741-.187 1.019-.373.279-.094.557-.28.742-.374.185-.093.371-.28.463-.373.093-.093.186-.093.186-.093l-.742-1.307-.092.093a1.29 1.29 0 01-.371.28l-.556.28a6.4 6.4 0 01-.742.28c-.278.094-.556.094-.926.094-.371 0-.834-.094-1.205-.187a2.205 2.205 0 01-1.02-.56c-.278-.28-.556-.56-.741-.933-.185-.374-.278-.84-.278-1.307h6.765v-.747c0-.653-.092-1.213-.278-1.68a4.95 4.95 0 00-.741-1.4c-.371-.373-.742-.746-1.298-.933-.463-.187-1.112-.373-1.76-.373-.649 0-1.298.093-1.854.373-.556.187-1.019.56-1.483 1.027-.463.466-.741.933-1.019 1.586-.186.374-.278 1.027-.278 1.774zm1.853-1.027a3.29 3.29 0 01.556-1.307c.278-.373.556-.653.927-.84.371-.186.834-.28 1.205-.28.371 0 .741.094 1.112.28.371.187.556.467.834.747.185.373.278.84.371 1.307h-5.005v.093zm18.721-7.373a4.429 4.429 0 00-.649.28c-.185.093-.37.093-.556.093h-.556c-.185 0-.371 0-.649-.093h-.926c-.556 0-1.113.093-1.576.186-.556.187-1.019.374-1.39.747a4.13 4.13 0 00-1.112 1.4 9.614 9.614 0 00-.742 2.147c-.185.84-.185 1.866-.185 2.986 0 .84.185 1.587.371 2.24.185.654.463 1.12.741 1.587.278.467.649.747 1.02 1.027.37.28.741.466 1.204.56.464.093.834.186 1.298.186.463 0 .927-.093 1.297-.186.464-.094.834-.28 1.298-.56.371-.28.741-.56 1.019-.934.278-.373.556-.746.742-1.306.185-.467.278-1.027.278-1.587 0-.84-.093-1.493-.371-2.147-.278-.56-.556-1.12-1.019-1.493-.464-.373-.927-.653-1.483-.84a5.937 5.937 0 00-1.854-.28c-.371 0-.649.093-1.019.187-.371.093-.649.28-.927.466-.278.187-.463.374-.649.56-.185.187-.278.374-.278.467 0-.747.093-1.307.278-1.773.186-.467.371-.934.649-1.214.278-.28.649-.56 1.019-.653.371-.187.835-.187 1.205-.187.278 0 .464 0 .742.094.185 0 .463.093.648.093h.742c.278 0 .649-.093 1.019-.28l.371-1.773zm-3.614 5.6c.37 0 .741.093 1.112.186.37.094.648.374.926.56.278.28.464.56.649 1.027.186.373.186.84.186 1.4 0 .467-.093.933-.278 1.307a3.368 3.368 0 01-.649.933c-.278.28-.556.467-.927.56-.371.093-.649.187-1.019.187-.278 0-.649-.094-.927-.187a2.466 2.466 0 01-.927-.56 3.368 3.368 0 01-.649-.933c-.185-.374-.278-.84-.278-1.4 0-.467 0-.934.186-1.307.185-.373.278-.653.556-.933a1.44 1.44 0 01.741-.56c.278-.187.556-.28.741-.28h.557zm8.248 2.8c0 .653.092 1.306.37 1.96.279.56.557 1.12 1.02 1.586.463.467.927.747 1.575 1.027.557.28 1.298.373 2.039.373.464 0 .834-.093 1.205-.093.371-.093.742-.187 1.02-.373.278-.094.556-.28.741-.374.185-.093.371-.28.463-.373.093-.093.186-.093.186-.093l-.742-1.307-.092.093a1.29 1.29 0 01-.371.28l-.556.28a6.262 6.262 0 01-.742.28c-.278.094-.556.094-.926.094-.371 0-.834-.094-1.205-.187a2.205 2.205 0 01-1.02-.56c-.278-.28-.556-.56-.741-.933-.185-.374-.278-.84-.278-1.307h6.765v-.747c0-.653-.092-1.213-.278-1.68a4.95 4.95 0 00-.741-1.4c-.371-.373-.741-.746-1.298-.933-.463-.187-1.112-.373-1.76-.373-.649 0-1.298.093-1.854.373-.556.187-1.019.56-1.483 1.027-.463.466-.741.933-1.019 1.586-.186.374-.278 1.027-.278 1.774zm1.853-1.027a3.29 3.29 0 01.556-1.307c.278-.373.556-.653.927-.84.371-.186.834-.28 1.205-.28.371 0 .741.094 1.112.28.371.187.556.467.834.747.186.373.278.84.371 1.307h-5.005v.093zm13.995-2.053h2.873v7.84h1.853v-9.427h-6.209l-.834 5.6c-.093.373-.093.747-.186 1.027-.092.28-.185.56-.278.746a1.118 1.118 0 01-.463.467 1.845 1.845 0 01-.834.187v1.586c.463 0 .927 0 1.297-.093.371-.093.649-.187.927-.373a1.73 1.73 0 00.649-.747c.185-.28.278-.653.463-1.12.093-.467.185-1.027.371-1.587l.371-4.106zm17.793-1.587h-1.76l-4.634 6.72.092-6.72h-1.853v9.333h1.761l4.634-6.72-.093 6.72h1.853v-9.333zM30.583 5.974v42.373l23.633-16.333-23.633-26.04zm-2.039 42.373V5.974L4.912 32.014l23.632 16.333zm29.75-14.373l-27.618 19.04a1.942 1.942 0 01-2.224 0L.834 33.974c-.093-.094-.186-.094-.186-.187-.834-.747-.834-1.96-.092-2.8L28.08.654l.092-.094c.835-.746 2.04-.653 2.78.094l27.526 30.24.278.28c.649 1.026.463 2.24-.464 2.8zm147.078-14.187h13.623c0-2.054-.648-3.547-1.853-4.667-1.298-1.12-2.78-1.587-4.634-1.587-1.853 0-3.522.56-4.912 1.68-1.39 1.12-2.224 2.707-2.224 4.574zM224 23.8h-18.628c.093 1.773.927 3.173 2.41 4.2 1.482 1.026 3.151 1.587 5.004 1.587 2.966 0 5.283-.934 6.765-2.8l2.873 3.08c-2.594 2.706-5.931 4.013-10.009 4.013-3.336 0-6.209-1.12-8.526-3.36-2.317-2.24-3.522-5.227-3.522-9.053 0-3.734 1.205-6.814 3.615-8.96 2.409-2.24 5.19-3.36 8.433-3.36 3.244 0 6.024 1.026 8.249 2.986 2.224 1.96 3.429 4.667 3.429 8.12V23.8H224zm-27.803 2.613c0 2.24-.834 4.107-2.502 5.507-1.669 1.4-3.707 2.053-6.302 2.053-1.761 0-3.522-.28-5.376-.933-1.853-.654-3.521-1.493-4.912-2.613l2.41-3.92c2.78 2.146 5.468 3.173 8.063 3.173 1.112 0 2.039-.28 2.688-.747.648-.56 1.019-1.213 1.019-1.96 0-1.213-1.575-2.24-4.726-3.267-.279-.093-.464-.186-.557-.186-4.911-1.307-7.414-3.64-7.414-6.72 0-2.24.834-4.014 2.595-5.32 1.761-1.307 3.985-1.96 6.673-1.96 2.78 0 5.375.84 7.785 2.427l-1.854 3.733c-1.946-1.307-4.077-1.96-6.302-1.96-1.205 0-2.131.186-2.873.653-.741.467-1.112 1.12-1.112 1.96 0 .747.371 1.307 1.205 1.68a8.84 8.84 0 002.224.747c.927.28 1.854.466 2.595.746.742.28 1.483.467 2.132.84.741.28 1.483.747 2.224 1.307 1.483.747 2.317 2.427 2.317 4.76zm-29.193-3.826V9.613h5.004V33.6h-5.004v-4.387a9.162 9.162 0 01-3.337 3.453c-1.39.84-2.965 1.307-4.541 1.307-2.687 0-4.819-.84-6.487-2.52-1.668-1.68-2.502-4.013-2.502-7.186V9.613h5.004v13.16c0 4.387 1.854 6.627 5.468 6.627 1.761 0 3.244-.56 4.541-1.773 1.205-1.12 1.854-2.894 1.854-5.04zm-25.95 7.746c-2.409 2.427-5.375 3.547-8.989 3.547-3.615 0-6.581-1.214-8.99-3.547-2.41-2.426-3.615-5.32-3.615-8.773 0-3.453 1.205-6.347 3.615-8.773 2.409-2.427 5.375-3.547 8.99-3.547 3.614 0 6.58 1.213 8.989 3.546 2.41 2.427 3.615 5.32 3.615 8.774 0 3.453-1.205 6.347-3.615 8.773zm-14.365-3.08c1.39 1.494 3.244 2.147 5.376 2.147 2.131 0 3.985-.747 5.375-2.147 1.39-1.493 2.131-3.36 2.131-5.693 0-2.333-.741-4.2-2.131-5.693-1.39-1.494-3.244-2.147-5.375-2.147-2.132 0-3.986.746-5.376 2.146-1.39 1.494-2.131 3.36-2.131 5.694 0 2.333.741 4.2 2.131 5.693zm-29.471-6.72v12.974h-5.005V.187h5.005V14c.741-1.493 1.76-2.614 3.244-3.454 1.483-.84 2.965-1.306 4.634-1.306 2.687 0 4.819.84 6.487 2.52 1.668 1.68 2.502 4.013 2.502 7.187V33.6h-5.004V20.346c0-4.386-1.854-6.626-5.468-6.626-1.761 0-3.244.56-4.541 1.773-1.205 1.12-1.854 2.894-1.854 5.04zM80.443.187h3.893v9.8H80.35v-9.8h.093zm-12.047 0h5.282V33.6h-5.282V.187z"/></g><defs><clipPath id="clip0"><path fill="#fff" d="M0 0h224v56H0z"/></clipPath></defs></svg>