<svg width="190" height="47" fill="none" xmlns="http://www.w3.org/2000/svg"><g clip-path="url(#clip0)" fill-rule="evenodd" clip-rule="evenodd" fill="#004D77"><path d="M57.81 39.793c0 .627.078 1.175.313 1.645s.47.94.862 1.332c.391.391.783.627 1.331.861.549.236 1.097.314 1.724.314.391 0 .783-.078 1.096-.157.314-.078.627-.156.862-.313s.47-.235.627-.392c.156-.157.313-.235.391-.313l.157-.157-.627-1.096-.078.078a1.08 1.08 0 01-.313.235c-.157.078-.314.235-.47.313-.235.078-.392.157-.705.235-.235.078-.549.078-.784.078-.391 0-.783-.078-1.096-.235-.314-.156-.627-.313-.862-.626-.235-.235-.47-.548-.548-.862a2.502 2.502 0 01-.235-1.096c0-.392.078-.784.235-1.097.156-.313.313-.627.548-.862.235-.235.548-.47.862-.548a2.503 2.503 0 011.096-.235c.235 0 .549 0 .705.078.235.078.392.157.627.235l.47.235c.157.079.235.157.313.235l.079.079.705-1.019s0-.078-.079-.157c-.078-.078-.235-.156-.391-.313-.157-.078-.314-.235-.627-.313-.235-.078-.47-.235-.862-.313-.313-.079-.705-.079-1.096-.157-.627 0-1.175.078-1.724.313-.548.235-.94.47-1.331.862-.392.392-.627.783-.862 1.332-.157.705-.313 1.253-.313 1.801zm12.455 3.917h1.488v-6.66h2.585v-1.175H67.68v1.175h2.585v6.659zm6.11 2.82l.078.078c.078.079.157.079.313.157.157.078.314.157.47.157.157.078.392.078.627.078.392 0 .705-.078 1.018-.235.314-.157.627-.313.862-.627.235-.235.47-.627.627-1.018l3.681-9.243h-1.645l-1.88 5.17c-.078.156-.078.313-.156.391-.079.157-.079.235-.079.392v.157s0-.079-.078-.157c0-.078-.078-.235-.078-.392-.079-.157-.079-.313-.157-.392l-1.958-5.091h-1.724l3.29 7.755-.391.861c-.157.392-.314.627-.627.862a1.122 1.122 0 01-.783.313c-.157 0-.314 0-.47-.078-.157-.078-.235-.078-.314-.157-.078-.078-.156-.078-.156-.078l-.47 1.097zm11.123-2.82h5.562v1.488h1.488v-2.742H93.53v-6.658h-5.25l-.705 4.7c-.078.314-.078.627-.156.862-.079.235-.079.47-.235.627a.944.944 0 01-.392.391 1.565 1.565 0 01-.705.157h-.235v2.742h1.488V43.71h.157zm2.115-6.502h2.428v5.327h-3.525c.079-.235.235-.548.314-.862.078-.313.156-.705.235-1.175l.548-3.29zm15.275-1.331H103.4l-3.917 5.64.078-5.64h-1.566v7.833h1.488l3.917-5.64-.079 5.64h1.567v-7.834zm10.888 0h-3.916c-.235 0-.47 0-.627.078-.157 0-.313.078-.392.078-.391.078-.626.235-.94.47-.235.235-.47.47-.626.705a2.164 2.164 0 000 1.958c.156.314.391.549.626.784s.627.392.94.47l-.078.078-.235.235-2.193 2.899h1.645l2.193-2.977h2.037v2.977h1.488v-7.755h.078zm-3.76 3.681c-.313 0-.548 0-.783-.157-.235-.078-.392-.235-.548-.391-.157-.157-.235-.47-.235-.783 0-.235.078-.392.156-.549.079-.156.235-.235.314-.392.156-.078.313-.156.47-.156.156-.079.391-.079.548-.079h2.193v2.429h-2.115v.078zm13.865 4.152h1.567l.705-5.405 1.802 5.405h1.331l1.88-5.405.705 5.405h1.489l-1.019-7.834h-1.801l-1.959 5.954-1.958-5.953H126.9l-1.019 7.833zm12.612-3.917c0 .549.078 1.097.313 1.645.235.47.47.94.862 1.332.392.391.783.627 1.332.861.47.236 1.096.314 1.723.314.392 0 .705-.078 1.018-.078.314-.079.627-.157.862-.314.235-.078.47-.235.627-.313.156-.079.313-.235.391-.314.079-.078.157-.078.157-.078l-.627-1.096-.078.078a1.082 1.082 0 01-.313.235l-.47.235a5.428 5.428 0 01-.627.235c-.235.078-.47.078-.783.078-.314 0-.705-.078-1.019-.157a1.866 1.866 0 01-.861-.47c-.235-.234-.47-.47-.627-.783a2.498 2.498 0 01-.235-1.097h5.718v-.626c0-.548-.078-1.018-.235-1.41a4.135 4.135 0 00-.626-1.175c-.314-.314-.627-.627-1.097-.784-.392-.156-.94-.313-1.488-.313-.549 0-1.097.078-1.567.313-.47.157-.862.47-1.253.862-.392.392-.627.784-.862 1.332-.157.313-.235.861-.235 1.488zm1.567-.861a2.74 2.74 0 01.47-1.097c.235-.313.47-.549.783-.705a2.412 2.412 0 011.018-.235c.314 0 .627.078.94.235.314.156.47.392.705.627.157.313.235.705.314 1.096h-4.23v.078zm15.823-6.189a3.77 3.77 0 00-.548.235c-.157.078-.314.078-.47.078h-.47c-.157 0-.314 0-.549-.078h-.783c-.47 0-.94.078-1.332.157-.47.157-.861.313-1.175.627a3.476 3.476 0 00-.94 1.175 7.972 7.972 0 00-.626 1.801c-.157.705-.157 1.567-.157 2.507 0 .705.157 1.332.313 1.88.157.548.392.94.627 1.331.235.392.548.627.862.862.313.235.626.392 1.018.47.392.079.705.157 1.097.157.391 0 .783-.078 1.096-.157.392-.078.705-.235 1.097-.47.313-.235.627-.47.862-.783.235-.313.47-.627.626-1.097.157-.392.235-.861.235-1.332 0-.705-.078-1.253-.313-1.801-.235-.47-.47-.94-.862-1.254a3.965 3.965 0 00-1.253-.705 5.049 5.049 0 00-1.567-.234c-.313 0-.548.078-.861.156-.314.078-.549.235-.784.392-.235.157-.391.313-.548.47-.157.156-.235.313-.235.392 0-.627.078-1.097.235-1.489.157-.392.313-.783.548-1.018.235-.235.549-.47.862-.548.313-.157.705-.157 1.018-.157.235 0 .392 0 .627.078.157 0 .392.079.548.079h.627c.235 0 .548-.079.862-.236l.313-1.488zm-3.055 4.7c.313 0 .627.079.94.157.313.078.548.313.783.47.235.235.392.47.549.861.156.314.156.706.156 1.175 0 .392-.078.784-.235 1.097a2.799 2.799 0 01-.548.783c-.235.236-.47.392-.783.47-.314.079-.549.157-.862.157-.235 0-.548-.078-.783-.157a2.089 2.089 0 01-.784-.47 2.82 2.82 0 01-.548-.783c-.157-.313-.235-.705-.235-1.175 0-.392 0-.783.157-1.096.156-.314.235-.549.47-.784.156-.235.391-.392.626-.47.235-.156.47-.235.627-.235h.47zm6.972 2.35c0 .549.078 1.097.313 1.645.235.47.47.94.862 1.332.391.391.783.627 1.331.861.47.236 1.097.314 1.724.314.391 0 .705-.078 1.018-.078.313-.079.627-.157.862-.314.235-.078.47-.235.626-.313.157-.079.314-.235.392-.314.078-.078.157-.078.157-.078l-.627-1.096-.078.078c-.079.078-.157.157-.314.235l-.47.235a5.318 5.318 0 01-.626.235c-.235.078-.47.078-.784.078-.313 0-.705-.078-1.018-.157a1.87 1.87 0 01-.862-.47c-.235-.234-.47-.47-.626-.783a2.498 2.498 0 01-.235-1.097h5.718v-.626c0-.548-.078-1.018-.235-1.41a4.161 4.161 0 00-.627-1.175c-.313-.314-.626-.627-1.096-.784-.392-.156-.94-.313-1.489-.313-.548 0-1.096.078-1.566.313-.47.157-.862.47-1.254.862-.391.392-.626.784-.861 1.332-.157.313-.235.861-.235 1.488zm1.566-.861c.079-.392.235-.784.47-1.097.235-.313.47-.549.784-.705a2.412 2.412 0 011.018-.235c.313 0 .627.078.94.235.313.156.47.392.705.627.157.313.235.705.313 1.096h-4.23v.078zm11.829-1.724h2.428v6.58h1.567v-7.911h-5.249l-.705 4.7c-.078.313-.078.626-.156.861-.079.235-.157.47-.235.627a.946.946 0 01-.392.392 1.567 1.567 0 01-.705.156v1.332c.392 0 .783 0 1.097-.078.313-.079.548-.157.783-.314a1.44 1.44 0 00.548-.627c.157-.235.235-.548.392-.94.078-.391.157-.861.313-1.331l.314-3.447zm15.04-1.331h-1.489l-3.916 5.64.078-5.64h-1.567v7.833h1.489l3.916-5.64-.078 5.64h1.567v-7.834zM25.85 5.013v35.563l19.974-13.708L25.85 5.013zm-1.724 35.563V5.013L4.151 26.868l19.975 13.708zm25.145-12.063l-23.343 15.98a1.65 1.65 0 01-1.88 0L.704 28.513c-.078-.078-.156-.078-.156-.157-.705-.626-.705-1.645-.079-2.35L23.734.548l.079-.078a1.703 1.703 0 012.35.078l23.265 25.38.235.235c.548.862.391 1.88-.392 2.35zm124.315-11.906h11.515c0-1.724-.548-2.977-1.566-3.917-1.097-.94-2.35-1.332-3.917-1.332-1.567 0-2.977.47-4.152 1.41-1.175.94-1.88 2.272-1.88 3.839zm15.745 3.368h-15.745c.079 1.488.784 2.663 2.037 3.525 1.253.862 2.663 1.332 4.23 1.332 2.507 0 4.465-.784 5.718-2.35L188 25.067c-2.194 2.271-5.014 3.368-8.46 3.368-2.82 0-5.249-.94-7.207-2.82-1.958-1.88-2.977-4.387-2.977-7.598 0-3.134 1.019-5.719 3.055-7.52 2.037-1.88 4.387-2.82 7.129-2.82 2.741 0 5.091.861 6.971 2.506 1.88 1.645 2.899 3.917 2.899 6.815v2.977h-.079zm-23.5 2.193c0 1.88-.705 3.447-2.115 4.622-1.41 1.175-3.133 1.723-5.326 1.723-1.489 0-2.977-.235-4.544-.783-1.566-.548-2.976-1.253-4.151-2.193l2.036-3.29c2.35 1.801 4.622 2.663 6.815 2.663.94 0 1.724-.235 2.272-.627.548-.47.862-1.018.862-1.645 0-1.018-1.332-1.88-3.995-2.741-.235-.079-.392-.157-.47-.157-4.152-1.097-6.267-3.055-6.267-5.64 0-1.88.705-3.368 2.193-4.465 1.489-1.097 3.369-1.645 5.64-1.645 2.35 0 4.544.705 6.58 2.037l-1.566 3.133c-1.645-1.097-3.447-1.645-5.327-1.645-1.018 0-1.802.157-2.428.548-.627.392-.94.94-.94 1.645 0 .627.313 1.097 1.018 1.41a7.52 7.52 0 001.88.627c.783.235 1.567.392 2.193.627.627.235 1.254.391 1.802.705.627.235 1.253.626 1.88 1.096 1.253.627 1.958 2.037 1.958 3.995zm-24.675-3.211V8.068h4.23V28.2h-4.23v-3.682a7.713 7.713 0 01-2.82 2.899c-1.175.705-2.506 1.096-3.838 1.096-2.272 0-4.073-.705-5.483-2.115-1.41-1.41-2.115-3.368-2.115-6.031V8.068h4.23v11.045c0 3.682 1.566 5.562 4.621 5.562 1.489 0 2.742-.47 3.839-1.488 1.018-.94 1.566-2.429 1.566-4.23zm-21.933 6.501c-2.037 2.037-4.543 2.977-7.598 2.977-3.055 0-5.562-1.018-7.599-2.977-2.036-2.036-3.055-4.465-3.055-7.363 0-2.898 1.019-5.327 3.055-7.363 2.037-2.037 4.544-2.977 7.599-2.977 3.055 0 5.561 1.018 7.598 2.977 2.037 2.036 3.055 4.465 3.055 7.363 0 2.898-1.018 5.327-3.055 7.363zm-12.142-2.585c1.175 1.254 2.742 1.802 4.544 1.802 1.801 0 3.368-.627 4.543-1.802 1.175-1.253 1.802-2.82 1.802-4.778 0-1.958-.627-3.525-1.802-4.778-1.175-1.254-2.742-1.802-4.543-1.802-1.802 0-3.369.627-4.544 1.802-1.175 1.253-1.801 2.82-1.801 4.778 0 1.958.626 3.525 1.801 4.778zm-24.91-5.64v10.889h-4.23V.157h4.23V11.75c.627-1.253 1.489-2.193 2.742-2.898 1.253-.705 2.507-1.097 3.917-1.097 2.271 0 4.073.705 5.483 2.115 1.41 1.41 2.115 3.368 2.115 6.032V28.2h-4.23V17.077c0-3.682-1.567-5.562-4.622-5.562-1.488 0-2.741.47-3.838 1.488-1.018.94-1.567 2.429-1.567 4.23zM67.993.157h3.29v8.225h-3.368V.157h.078zm-10.183 0h4.465V28.2H57.81V.157z"/></g><defs><clipPath id="clip0"><path fill="#fff" d="M0 0h189.332v47H0z"/></clipPath></defs></svg>