<svg width="175" height="54" fill="none" xmlns="http://www.w3.org/2000/svg"><path d="M4.584 3.6c1.088 0 1.944.26 2.568.78.624.52.936 1.236.936 2.148 0 .912-.312 1.628-.936 2.148-.624.52-1.48.78-2.568.78H2.508V12h-1.2V3.6h3.276zm-.036 4.812c.76 0 1.34-.16 1.74-.48.4-.328.6-.796.6-1.404 0-.608-.2-1.072-.6-1.392-.4-.328-.98-.492-1.74-.492h-2.04v3.768h2.04zm7.227-2.832c.88 0 1.552.216 2.016.648.472.432.708 1.076.708 1.932V12h-1.092v-.84a1.853 1.853 0 01-.828.684c-.352.152-.772.228-1.26.228-.712 0-1.284-.172-1.716-.516-.424-.344-.636-.796-.636-1.356s.204-1.008.612-1.344c.408-.344 1.056-.516 1.944-.516h1.824v-.228c0-.496-.144-.876-.432-1.14-.288-.264-.712-.396-1.272-.396-.376 0-.744.064-1.104.192a2.76 2.76 0 00-.912.492l-.48-.864c.328-.264.72-.464 1.176-.6.456-.144.94-.216 1.452-.216zm-.264 5.604c.44 0 .82-.096 1.14-.288.32-.2.552-.48.696-.84v-.888H11.57c-.976 0-1.464.328-1.464.984 0 .32.124.572.372.756.248.184.592.276 1.032.276zm8.4-2.496c.425.112.753.292.985.54a1.3 1.3 0 01.348.924c0 .376-.128.712-.384 1.008-.256.288-.612.516-1.068.684-.448.16-.952.24-1.512.24-.472 0-.936-.06-1.392-.18a4.322 4.322 0 01-1.2-.54l.348-.876c.304.192.652.344 1.044.456.392.104.788.156 1.188.156.544 0 .976-.092 1.296-.276.328-.192.492-.448.492-.768 0-.296-.132-.524-.396-.684-.256-.16-.62-.24-1.092-.24h-1.164v-.828h1.08c.432 0 .772-.076 1.02-.228.248-.152.372-.36.372-.624 0-.288-.148-.512-.444-.672-.288-.16-.68-.24-1.176-.24-.632 0-1.3.164-2.004.492l-.312-.888a5.335 5.335 0 012.436-.588c.512 0 .972.072 1.38.216.408.144.728.348.96.612.232.264.348.564.348.9 0 .312-.104.592-.312.84a1.928 1.928 0 01-.84.564zm6.456-3.108c.616 0 1.168.136 1.656.408.488.272.868.652 1.14 1.14.28.488.42 1.052.42 1.692 0 .64-.14 1.208-.42 1.704a2.894 2.894 0 01-1.14 1.14 3.343 3.343 0 01-1.656.408c-.456 0-.876-.088-1.26-.264a2.621 2.621 0 01-.96-.768v3.288h-1.152V5.64h1.104v1.008c.256-.352.58-.616.972-.792a3.012 3.012 0 011.296-.276zm-.096 5.484a2.15 2.15 0 001.092-.276 2.03 2.03 0 00.768-.792c.192-.344.288-.736.288-1.176 0-.44-.096-.828-.288-1.164a1.93 1.93 0 00-.768-.792 2.15 2.15 0 00-1.092-.276c-.4 0-.764.096-1.092.288-.32.184-.576.444-.768.78a2.385 2.385 0 00-.276 1.164c0 .44.092.832.276 1.176.184.336.44.6.768.792.328.184.692.276 1.092.276zm7.195-5.484c.88 0 1.552.216 2.016.648.472.432.708 1.076.708 1.932V12h-1.092v-.84a1.853 1.853 0 01-.828.684c-.352.152-.772.228-1.26.228-.712 0-1.284-.172-1.716-.516-.424-.344-.636-.796-.636-1.356s.204-1.008.612-1.344c.408-.344 1.056-.516 1.944-.516h1.824v-.228c0-.496-.144-.876-.432-1.14-.288-.264-.712-.396-1.272-.396-.376 0-.744.064-1.104.192a2.76 2.76 0 00-.912.492l-.48-.864c.328-.264.72-.464 1.176-.6.456-.144.94-.216 1.452-.216zm-.264 5.604c.44 0 .82-.096 1.14-.288.32-.2.552-.48.696-.84v-.888h-1.776c-.976 0-1.464.328-1.464.984 0 .32.124.572.372.756.248.184.592.276 1.032.276zm8.302-5.328c.592 0 1.12.132 1.584.396.464.264.824.632 1.08 1.104.264.464.396.996.396 1.596 0 .616-.14 1.164-.42 1.644A2.82 2.82 0 0142.98 11.7c-.496.264-1.064.396-1.704.396-1.08 0-1.916-.368-2.508-1.104-.584-.744-.876-1.788-.876-3.132 0-1.304.268-2.324.804-3.06.536-.744 1.356-1.236 2.46-1.476l2.904-.648.168 1.056-2.676.576c-.832.184-1.452.496-1.86.936-.408.44-.64 1.072-.696 1.896a2.799 2.799 0 011.056-.948 3.107 3.107 0 011.452-.336zm-.204 5.28c.408 0 .768-.092 1.08-.276a1.93 1.93 0 00.744-.756c.176-.328.264-.7.264-1.116 0-.632-.192-1.14-.576-1.524-.384-.384-.888-.576-1.512-.576s-1.132.192-1.524.576c-.384.384-.576.892-.576 1.524 0 .416.088.788.264 1.116.184.32.436.572.756.756.32.184.68.276 1.08.276zm7.634.936c-.632 0-1.2-.14-1.704-.42-.504-.28-.9-.664-1.188-1.152a3.357 3.357 0 01-.42-1.68c0-.624.14-1.18.42-1.668.288-.496.684-.88 1.188-1.152a3.449 3.449 0 011.704-.42c.632 0 1.196.14 1.692.42.504.272.896.656 1.176 1.152.288.488.432 1.044.432 1.668 0 .624-.144 1.184-.432 1.68-.28.488-.672.872-1.176 1.152-.496.28-1.06.42-1.692.42zm0-1.008a2.15 2.15 0 001.092-.276 2.03 2.03 0 00.768-.792c.184-.344.276-.736.276-1.176 0-.44-.092-.828-.276-1.164a1.93 1.93 0 00-.768-.792 2.15 2.15 0 00-1.092-.276c-.408 0-.776.092-1.104.276-.32.184-.576.448-.768.792a2.385 2.385 0 00-.276 1.164c0 .44.092.832.276 1.176.192.336.448.6.768.792.328.184.696.276 1.104.276zm9.469-4.416h-2.328V12h-1.152V6.648h-2.328V5.64h5.808v1.008zm3.446-1.068c.88 0 1.552.216 2.016.648.472.432.708 1.076.708 1.932V12H63.48v-.84a1.853 1.853 0 01-.828.684c-.352.152-.772.228-1.26.228-.712 0-1.284-.172-1.716-.516-.424-.344-.636-.796-.636-1.356s.204-1.008.612-1.344c.408-.344 1.056-.516 1.944-.516h1.824v-.228c0-.496-.144-.876-.432-1.14-.288-.264-.712-.396-1.272-.396-.376 0-.744.064-1.104.192a2.76 2.76 0 00-.912.492l-.48-.864c.328-.264.72-.464 1.176-.6.456-.144.94-.216 1.452-.216zm-.264 5.604c.44 0 .82-.096 1.14-.288.32-.2.552-.48.696-.84v-.888h-1.776c-.976 0-1.464.328-1.464.984 0 .32.124.572.372.756.248.184.592.276 1.032.276zm5.062-5.544H67.8v2.7h3.624v-2.7h1.152V12h-1.152V9.336H67.8V12h-1.152V5.64zm10.892 6.432c-.632 0-1.2-.14-1.704-.42-.504-.28-.9-.664-1.188-1.152a3.357 3.357 0 01-.42-1.68c0-.624.14-1.18.42-1.668.288-.496.684-.88 1.188-1.152a3.449 3.449 0 011.704-.42c.632 0 1.196.14 1.692.42.504.272.896.656 1.176 1.152.288.488.432 1.044.432 1.668 0 .624-.144 1.184-.432 1.68-.28.488-.672.872-1.176 1.152-.496.28-1.06.42-1.692.42zm0-1.008a2.15 2.15 0 001.092-.276 2.03 2.03 0 00.768-.792c.184-.344.276-.736.276-1.176 0-.44-.092-.828-.276-1.164a1.93 1.93 0 00-.768-.792 2.15 2.15 0 00-1.092-.276c-.408 0-.776.092-1.104.276-.32.184-.576.448-.768.792a2.385 2.385 0 00-.276 1.164c0 .44.092.832.276 1.176.192.336.448.6.768.792.328.184.696.276 1.104.276zM3.588 24.312h-1.32V27H1.116v-6.36h1.152v2.688h1.344l2.064-2.688h1.236L4.5 23.7 7.08 27H5.724l-2.136-2.688zm7.213 2.76c-.632 0-1.2-.14-1.704-.42-.504-.28-.9-.664-1.188-1.152a3.357 3.357 0 01-.42-1.68c0-.624.14-1.18.42-1.668.288-.496.684-.88 1.188-1.152a3.449 3.449 0 011.704-.42c.632 0 1.196.14 1.692.42.504.272.896.656 1.176 1.152.288.488.432 1.044.432 1.668 0 .624-.144 1.184-.432 1.68-.28.488-.672.872-1.176 1.152-.496.28-1.06.42-1.692.42zm0-1.008a2.15 2.15 0 001.092-.276 2.03 2.03 0 00.768-.792c.184-.344.276-.736.276-1.176 0-.44-.092-.828-.276-1.164a1.93 1.93 0 00-.768-.792 2.15 2.15 0 00-1.092-.276c-.408 0-.776.092-1.104.276-.32.184-.576.448-.768.792a2.385 2.385 0 00-.276 1.164c0 .44.092.832.276 1.176.192.336.448.6.768.792.328.184.696.276 1.104.276zm12.295-5.424V27h-1.044v-4.644l-2.376 3.924h-.504l-2.352-3.936V27h-1.056v-6.36h1.188l2.496 4.296 2.568-4.296h1.08zm4.51-.06c.88 0 1.553.216 2.017.648.472.432.708 1.076.708 1.932V27h-1.092v-.84a1.853 1.853 0 01-.828.684c-.352.152-.772.228-1.26.228-.712 0-1.284-.172-1.716-.516-.424-.344-.636-.796-.636-1.356s.204-1.008.612-1.344c.408-.344 1.056-.516 1.944-.516h1.824v-.228c0-.496-.144-.876-.432-1.14-.288-.264-.712-.396-1.272-.396-.376 0-.744.064-1.104.192a2.76 2.76 0 00-.912.492l-.48-.864c.328-.264.72-.464 1.176-.6.456-.144.94-.216 1.452-.216zm-.263 5.604c.44 0 .82-.096 1.14-.288.32-.2.552-.48.696-.84v-.888h-1.776c-.976 0-1.464.328-1.464.984 0 .32.124.572.372.756.248.184.592.276 1.032.276zm5.062-5.544h1.152v2.7h3.624v-2.7h1.152V27h-1.152v-2.664h-3.624V27h-1.152v-6.36zm14.636 5.352v2.484h-1.08V27h-5.316v1.476h-1.092v-2.484h.336c.408-.024.688-.312.84-.864.152-.552.256-1.332.312-2.34l.096-2.148h4.932v5.352h.972zm-4.944-3.12c-.032.8-.1 1.464-.204 1.992-.096.52-.276.896-.54 1.128h3.564v-4.344h-2.76l-.06 1.224zm9.169 4.2c-.632 0-1.2-.14-1.704-.42-.504-.28-.9-.664-1.188-1.152a3.357 3.357 0 01-.42-1.68c0-.624.14-1.18.42-1.668.288-.496.684-.88 1.188-1.152a3.449 3.449 0 011.704-.42c.632 0 1.196.14 1.692.42.504.272.896.656 1.176 1.152.288.488.432 1.044.432 1.668 0 .624-.144 1.184-.432 1.68-.28.488-.672.872-1.176 1.152-.496.28-1.06.42-1.692.42zm0-1.008a2.15 2.15 0 001.092-.276 2.03 2.03 0 00.768-.792c.184-.344.276-.736.276-1.176 0-.44-.092-.828-.276-1.164a1.93 1.93 0 00-.768-.792 2.15 2.15 0 00-1.092-.276c-.408 0-.776.092-1.104.276-.32.184-.576.448-.768.792a2.385 2.385 0 00-.276 1.164c0 .44.092.832.276 1.176.192.336.448.6.768.792.328.184.696.276 1.104.276zm4.963-5.424h1.152v4.632l3.9-4.632h1.044V27h-1.152v-4.632L57.285 27H56.23v-6.36zm2.976-.828c-.592 0-1.052-.14-1.38-.42-.328-.288-.496-.7-.504-1.236h.78a.992.992 0 00.3.72c.2.176.464.264.792.264s.592-.088.792-.264a.97.97 0 00.312-.72h.804c-.008.536-.18.948-.516 1.236-.336.28-.796.42-1.38.42zm90.543-3.947c0-6.621-3.412-10.88-8.862-10.88h-5.842v3.72l1.174 3.586V6.167h4.528c4.78 0 7.771 3.76 7.771 9.698 0 5.998-2.991 9.73-7.771 9.73h-.174l.375 1.148c5.414-.032 8.801-4.251 8.801-10.878zm-24.114-10.88L121.745 15.8l.591 1.805 3.941-11.16 4.557 12.901h-7.929l.387 1.182h7.962l2.207 6.216h1.287L126.92 4.985h-1.286zm-15.961 12.061l5.508 9.7h1.37l-5.648-9.885c2.823-.777 4.473-2.735 4.473-5.782 0-3.823-2.573-6.093-6.961-6.093h-5.591v3.98l1.174 3.586V6.166h4.305c3.857 0 5.899 1.835 5.899 4.911 0 3.015-2.042 4.881-5.899 4.881h-3.191l.387 1.181h2.216c.7.002 1.344-.03 1.958-.093zm46.062 3.684l-1.418-4.12h-.023c.027.327.039.715.039 1.163v2.958h-.449v-4.65h.733l1.323 3.835h.024l1.334-3.835h.726v4.65h-.486v-2.996c0-.344.014-.716.039-1.12h-.023l-1.43 4.116h-.389zm6.206 0h-2.33v-4.649h2.33v.48h-1.844v1.498h1.732v.477h-1.732v1.711h1.844v.484zm4.702-2.368c0 .768-.187 1.354-.562 1.76-.374.406-.914.609-1.617.609h-1.157v-4.65h1.281c.65 0 1.155.2 1.516.601.36.402.539.96.539 1.68zm-.514.018c0-.606-.137-1.063-.41-1.37-.274-.308-.68-.461-1.22-.461h-.707v3.714h.592c.579 0 1.015-.16 1.306-.476.293-.316.439-.786.439-1.407zm1.886 2.35v-4.649h.486v4.65h-.486zm4.7 0l-.52-1.477h-1.676l-.514 1.478h-.492l1.653-4.668h.409l1.644 4.668h-.504zm-.672-1.965l-.486-1.44a8.324 8.324 0 01-.195-.67 6.89 6.89 0 01-.179.67l-.492 1.44h1.352zm-16.32 5.745h1.421v2.262c-.22.079-.446.138-.675.179a4.57 4.57 0 01-.795.06c-.634 0-1.125-.209-1.478-.628-.353-.42-.529-1.006-.529-1.76 0-.483.088-.907.262-1.27.174-.364.426-.642.753-.834.328-.192.712-.288 1.152-.288.447 0 .862.091 1.246.273l-.188.477a2.536 2.536 0 00-1.089-.266c-.509 0-.907.168-1.193.505-.286.338-.429.805-.429 1.403 0 .627.137 1.104.413 1.428.275.324.679.486 1.213.486.29 0 .573-.036.85-.11v-1.432h-.936v-.484h.002zm3.35.504v1.933h-.486V22.3h1.146c.514 0 .892.109 1.138.327.245.218.367.546.367.986 0 .614-.28 1.03-.84 1.246l1.134 2.088h-.574l-1.012-1.934h-.873v.002zm0-.465h.666c.343 0 .595-.076.754-.227.16-.152.24-.379.24-.682 0-.307-.082-.528-.244-.664-.163-.137-.425-.203-.784-.203h-.632v1.776zm7.201.067c0 .743-.168 1.33-.508 1.755-.339.425-.809.639-1.41.639-.616 0-1.091-.209-1.426-.629-.335-.418-.502-1.01-.502-1.773 0-.757.168-1.343.504-1.76.335-.416.812-.625 1.43-.625.601 0 1.069.212 1.407.636.337.425.505 1.011.505 1.757zm-3.331 0c0 .63.12 1.107.363 1.432.241.326.591.488 1.051.488.463 0 .813-.162 1.05-.486.237-.324.354-.803.354-1.434 0-.626-.117-1.1-.353-1.424-.235-.323-.584-.485-1.044-.485-.463 0-.816.164-1.057.488-.241.324-.364.8-.364 1.42zm7.86-2.317v3.007c0 .53-.145.947-.432 1.25-.288.302-.684.454-1.186.454-.503 0-.892-.153-1.169-.458-.275-.305-.412-.725-.412-1.258v-2.995h.486v3.033c0 .387.095.686.286.893.19.208.471.312.84.312.353 0 .624-.104.814-.313.191-.21.286-.509.286-.898v-3.027h.487zM175 23.652c0 .471-.144.833-.433 1.086-.289.253-.703.38-1.239.38h-.492v1.828h-.486v-4.65h1.084c1.043.002 1.566.454 1.566 1.356zm-2.165 1.001h.437c.43 0 .742-.077.935-.231.192-.155.289-.403.289-.744 0-.308-.091-.536-.271-.688-.181-.15-.463-.225-.846-.225h-.543v1.888h-.001zM91.364 5.181c2.796 0 4.865 1.212 6.485 3.886l.978-.685C97.207 5.555 94.634 4 91.337 4 88.714 4 86.528 5.19 85 7.198l.462 1.41c1.345-2.164 3.418-3.427 5.902-3.427zm7.407 17.873v-7.957h-6.876v1.18h5.702v6.28c-1.258 1.74-3.689 2.765-5.87 2.765-.276 0-.546-.015-.808-.04l.396 1.21c.127.005.253.011.383.011 2.6.002 5.424-1.148 7.073-3.45z" fill="#fff"/></svg>