<svg width="298" height="65" fill="none" xmlns="http://www.w3.org/2000/svg"><path d="M284.663 19.26v14.657h-6.909c-.061.161-.122.323-.183.505.711.323 1.422.605 2.113.949 5.324 2.604 8.474 6.642 8.413 12.738-.041 6.077-3.251 10.115-8.758 12.113-3.211 1.171-6.706 2.04-10.1 2.08-19.549.202-39.119.1-58.689.1-.528 0-1.077-.08-1.767-.16v-5.25c1.442-.08 2.845-.161 4.409-.242V25.155c-4.125 0-8.271-.04-12.416.06-.366 0-1.037.91-1.037 1.394-.06 9.246-.081 18.492.021 27.739 0 .848.853 1.695 1.321 2.543.731-.565 1.707-1.01 2.154-1.756 1.402-2.362 3.434-.384 5.304-1.393-.712 3.997-2.866 6.36-5.894 7.732-6.665 3.008-13.574 3.472-20.402.626-4.39-1.837-6.686-5.209-6.625-10.114.081-8.076.02-16.151.02-24.206v-2.645c-.874-.08-1.483-.182-2.093-.182-6.869-.02-13.717.061-20.585-.04-1.768-.02-2.886.545-3.475 2.12-.549 1.453-1.179 2.927-1.484 4.441-1.483 7.49-1.26 14.96.407 22.389.69 3.13 1.381 3.493 4.612 3.13 4.044-.465 6.686-3.07 8.8-6.158 1.158-1.696 2.418-2.382 4.47-2.22 2.419.18 4.857.04 8.048.04-1.382 2.341-2.297 4.38-3.618 6.096-3.962 5.169-9.469 7.51-15.83 7.55-22.719.102-45.439.122-68.138.041-4.796-.02-9.327-1.514-13.392-4.118-4.084-2.605-6.645-6.32-8.148-10.983v15.142c-3.841 0-7.5-.384-11.035.08-6.259.848-10.181-1.433-13.717-6.682-6.3-9.367-13.453-18.15-20.26-27.194-.448-.605-.935-1.17-1.748-2.14-.081 1.151-.163 1.817-.163 2.463v24.913c0 3.916.65 4.663 4.634 5.249.61.08 1.219.161 1.95.242v3.048H14.855c-3.475 0-6.95-.141-10.405.04-2.072.102-2.479-.645-2.479-2.543.081-17.18.04-34.421.04-51.662 0-1.352.346-2.947-2.011-2.483V.021h2.621C11.217.02 19.813.06 28.41 0c1.423-.02 2.256.403 3.09 1.574 5.16 7.309 10.424 14.556 15.647 21.804.305.424.65.807 1.341 1.655v-5.128c.752-.1 1.26-.262 1.788-.262 15.607 0 31.234-.04 46.841.08 2.744.02 5.528.404 8.19 1.03 8.189 1.898 14.672 5.774 16.277 15.343.752-2.059 1.199-3.755 1.971-5.269 3.882-7.61 10.669-10.74 18.757-11.002 10.242-.344 20.504-.142 30.746-.202 7.194-.04 15.099-5.673 16.766-11.972.304-1.13.406-2.301.63-3.634h9.51v15.525h37.412v37.126c.874.081 1.565.202 2.235.202 8.291.02 16.562.06 24.853-.04 1.443-.02 3.028-.344 4.288-1.01 2.114-1.11 2.012-3.593-.162-4.562-1.403-.606-3.028-.788-4.552-.95-3.841-.383-7.743-.342-11.502-1.07-5.528-1.049-10.405-3.471-11.38-9.71-1.017-6.601 1.036-12.254 6.604-16.312 3.272-2.382 7.011-3.634 11.055-3.533 4.877.121 9.754.465 14.631.727.468.02 1.098.262 1.362.06 3.068-2.382 6.503-.605 9.856-1.21zm-182.67 21.743c0-3.836.041-7.671-.02-11.507-.02-2.342-1.423-3.997-3.658-4.098-2.662-.142-5.365-.182-8.027 0-2.134.14-3.576 1.494-3.597 3.654-.081 7.974-.101 15.948.02 23.943.041 2.503 1.545 3.836 4.085 3.937 2.114.1 4.247.06 6.381.02 3.353-.06 4.755-1.373 4.796-4.704.061-3.735.02-7.49.02-11.245zm173.403-7.57c-.548-1.131-.853-2.1-1.443-2.867-2.377-3.13-11.055-5.027-14.428-3.049-.772.465-1.686 1.878-1.483 2.524.284.848 1.544 1.797 2.479 1.918 4.755.605 9.531.969 14.875 1.473zM127.212 56.89c-1.971-2.523-3.983-5.087-5.629-7.187-1.646 2.1-3.698 4.704-5.649 7.187h11.278zM65.09 35.815c2.52-3.372 5.161-6.925 7.701-10.337H65.09v10.337zm-11.97-4.098c.854-6.158.285-6.925-4.348-6.077 1.422 1.958 2.743 3.836 4.348 6.076z" fill="#747474"/><path d="M227.702 18.353c-5.669-.222-9.388-1.07-12.294-3.977-3.048-3.049-3.048-7.147-.082-10.256 5.02-5.229 16.014-5.33 21.135-.182 3.617 3.654 3.19 8.843-1.402 11.568-2.663 1.575-5.873 2.282-7.357 2.847zm63.282-11.932c3.414-.04 6.116 2.524 6.096 5.774-.02 3.19-2.56 5.653-5.914 5.693-3.454.06-6.198-2.402-6.238-5.632-.061-3.21 2.621-5.794 6.056-5.835zm-.061 10.559c2.743.06 5.1-2.06 5.182-4.684.081-2.564-2.236-4.865-4.959-4.906-2.764-.04-5.101 2.08-5.161 4.684-.082 2.625 2.154 4.845 4.938 4.906z" fill="#747474"/></svg>