<svg width="284" height="84" fill="none" xmlns="http://www.w3.org/2000/svg"><path d="M49.129 62.568c0 6.586-2.448 11.805-7.345 15.656C36.924 82.074 30.449 84 22.36 84 12.64 84 5.187 82.938 0 80.815v-5.507c5.73 2.412 13.04 3.617 21.926 3.617 6.528 0 11.697-1.475 15.505-4.426 3.845-2.987 5.768-6.892 5.768-11.715 0-2.987-.635-5.452-1.905-7.396-1.27-1.98-3.337-3.779-6.202-5.398-2.865-1.62-7.073-3.365-12.622-5.237-8.125-2.771-13.747-5.758-16.866-8.961C2.52 32.552.979 28.252.979 22.89c0-5.903 2.322-10.708 6.964-14.414 4.68-3.743 10.682-5.615 18.009-5.615 7.471 0 14.49 1.404 21.055 4.211l-2.013 4.75C38.393 9.088 32.08 7.72 26.06 7.72c-5.876 0-10.555 1.35-14.037 4.049C8.542 14.468 6.8 18.139 6.8 22.782c0 2.915.526 5.308 1.578 7.18 1.088 1.87 2.847 3.562 5.277 5.074 2.43 1.476 6.601 3.257 12.513 5.344 6.203 2.124 10.863 4.193 13.983 6.209 3.119 1.98 5.386 4.247 6.8 6.802 1.451 2.519 2.177 5.578 2.177 9.177zm47.609 12.956C92.82 81.174 86.564 84 77.968 84c-6.275 0-11.045-1.8-14.31-5.398-3.264-3.635-4.932-8.998-5.005-16.088V24.51h6.475v37.195c0 11.121 4.534 16.682 13.601 16.682 9.43 0 15.397-3.87 17.9-11.607V24.51h6.529v58.41h-6.311l-.11-7.396zm64.34-21.215c0 9.105-2.031 16.339-6.093 21.701-4.062 5.327-9.521 7.99-16.376 7.99-8.198 0-14.4-3.023-18.607-9.07l-.272 7.99h-6.094V0h6.475v32.985c4.134-6.37 10.264-9.556 18.389-9.556 6.964 0 12.459 2.646 16.485 7.936 4.062 5.255 6.093 12.578 6.093 21.972v.971zm-6.528-1.134c0-7.702-1.506-13.64-4.516-17.815-3.011-4.21-7.254-6.316-12.731-6.316-4.171 0-7.708 1.025-10.609 3.077-2.902 2.015-5.096 4.984-6.583 8.907v26.345c3.264 7.342 9.031 11.013 17.301 11.013 5.368 0 9.557-2.106 12.568-6.317 3.046-4.21 4.57-10.509 4.57-18.894zm26.771-43.62V24.51h12.187v5.29h-12.187v38.923c0 3.24.58 5.65 1.741 7.234 1.197 1.584 3.174 2.376 5.93 2.376 1.089 0 2.848-.18 5.278-.54l.272 5.29c-1.705.612-4.026.918-6.964.918-4.461 0-7.708-1.278-9.739-3.833-2.031-2.591-3.047-6.388-3.047-11.39v-38.98h-10.826v-5.29h10.826V9.555h6.529zm28.676 73.365h-6.529V24.51h6.529v58.41zm18.585 0h-6.529V0h6.529v82.92zm48.454 0c-.653-1.835-1.07-4.552-1.251-8.151-2.285 2.95-5.205 5.236-8.76 6.856-3.518 1.583-7.254 2.375-11.207 2.375-5.659 0-10.247-1.566-13.765-4.697-3.482-3.13-5.223-7.09-5.223-11.876 0-5.687 2.376-10.185 7.127-13.496 4.788-3.311 11.443-4.967 19.967-4.967h11.806v-6.64c0-4.175-1.305-7.45-3.917-9.825-2.575-2.412-6.347-3.617-11.316-3.617-4.534 0-8.288 1.151-11.263 3.455-2.974 2.303-4.461 5.074-4.461 8.313l-6.529-.054c0-4.642 2.177-8.655 6.529-12.038 4.353-3.42 9.703-5.129 16.05-5.129 6.565 0 11.734 1.638 15.506 4.913 3.808 3.239 5.767 7.774 5.876 13.604v27.64c0 5.65.598 9.88 1.795 12.686v.648h-6.964zm-20.457-4.642c4.353 0 8.234-1.044 11.643-3.132 3.446-2.087 5.949-4.876 7.508-8.367V53.93h-11.643c-6.492.072-11.57 1.26-15.233 3.563-3.664 2.267-5.495 5.398-5.495 9.393 0 3.275 1.215 5.992 3.645 8.152 2.466 2.159 5.658 3.239 9.575 3.239zm-46.582-63.293h-6.529V.07h6.529v14.914z" fill="#747474"/></svg>