<svg width="408" height="114" fill="none" xmlns="http://www.w3.org/2000/svg"><path d="M152.032 51.038c.345-8.564 2.043-16.624 7.322-23.544 5.81-7.636 13.794-11.003 23.185-10.764 15.572.371 26.82 10.976 28.571 26.46.743 6.576.716 13.098-.955 19.54-3.608 13.947-14.352 22.325-28.12 22.086-14.908-.238-25.254-8.537-28.464-23.013-.769-3.527-1.035-7.159-1.539-10.765zm41.543-.504c-.159-.053-.292-.08-.451-.132-.265-3.261-.477-6.523-.822-9.784-.133-1.299-.504-2.598-.902-3.87-1.565-4.985-4.828-7.557-9.365-7.504-4.483.053-8.038 2.784-9.205 7.742-2.228 9.36-2.043 18.798.027 28.157.689 3.102 2.546 5.436 5.597 6.629 5.412 2.094 10.638.026 12.309-5.674 1.459-5.038 1.91-10.367 2.812-15.564zm110.144-26.937c4.218-1.962 8.223-4.375 12.547-5.7 3.29-.981 7.083-1.14 10.479-.637 8.118 1.193 12.893 6.681 13.025 15.298.265 16.677.106 33.354.106 50.031 0 .16-.106.318-.238.663h-16.633v-2.943c0-13.204 0-26.434-.027-39.637 0-1.856-.08-3.739-.478-5.542-.716-3.261-2.467-4.295-5.836-3.897-4.032.503-7.374 2.465-10.372 5.037-.69.61-.982 2.015-.982 3.05-.053 13.654-.053 27.308-.053 40.989v3.076h-16.818c-1.3-20.893 1.618-41.865-2.123-62.943 4.404-1.246 9.046-2.599 13.742-3.792.451-.106 1.432.637 1.671 1.193.849 1.91 1.406 3.95 1.99 5.754zM53.48 83.305H36.927c-.08-1.034-.186-2.068-.186-3.076-.026-12.753 0-25.532-.026-38.285 0-2.121-.08-4.269-.425-6.363-.557-3.474-2.493-4.773-6.048-4.322-4.032.53-7.401 2.44-10.32 5.09-.742.664-1.034 2.175-1.034 3.288-.053 13.39-.027 26.779-.027 40.168V83.2H2.043C.716 62.412 3.66 41.467 0 20.415c4.377-1.22 9.02-2.598 13.688-3.791.451-.106 1.486.583 1.698 1.113.796 1.962 1.353 4.004 2.123 6.31 1.856-1.166 3.74-2.36 5.65-3.526 5.04-3.049 10.532-4.162 16.315-3.5 8.303.928 13.768 6.84 13.874 15.431.185 13.734.08 27.495.106 41.228.026 3.103.026 6.205.026 9.625zm354.521-27.494h-30.667V43.668h12.522c.185-3.95.053-7.53-1.964-10.738-3.395-5.435-12.07-5.33-15.492.212-.875 1.405-1.804 3.076-1.857 4.64-.265 7.874-.902 15.802-.186 23.597.717 7.768 6.394 11.533 14.273 11.082 5.889-.344 10.929-2.757 15.678-6.442 2.201 3.446 4.35 6.76 6.525 10.18-8.648 7.16-18.357 10.182-29.154 8.697-16.102-2.227-25.467-13.204-26.395-30.623-.478-9.04.371-17.896 5.65-25.744 10.161-15.06 28.571-13.893 38.519-7.742 6.473 4.003 9.577 10.42 10.85 17.578 1.008 5.568 1.141 11.374 1.698 17.446zM149.299 23.703c-2.732 3.632-5.358 7.185-8.064 10.79-1.698-1.113-3.237-2.28-4.908-3.208-6.287-3.473-12.548-1.378-14.723 5.436-2.998 9.332-3.051 18.904-.345 28.29 1.937 6.654 8.993 8.881 15.705 5.329 2.255-1.194 4.271-2.81 6.579-4.349 1.246 1.644 2.52 3.315 3.793 5.011 1.22 1.618 2.441 3.235 3.767 5.011-4.218 4.693-9.444 7.318-15.439 8.326-10.213 1.697-19.71.291-27.085-7.795-4.643-5.09-6.738-11.401-7.455-18.135-1.087-10.128-.477-20.044 4.988-29.059 9.125-15.007 30.852-17.95 43.187-5.647zm69.716-19.699C224.877 2.65 230.448 1.379 236.47 0c.239 2.89.637 5.568.637 8.272.079 16.942.079 33.858.132 50.8 0 2.837.053 5.674.266 8.51.371 4.64 1.618 5.701 6.366 5.621.929 3.235 1.857 6.55 2.865 10.049-5.783 1.644-11.354 2.678-17.057.61-5.889-2.121-8.94-6.496-9.524-12.567-.318-3.341-.371-6.735-.398-10.102-.079-15.776-.079-31.551-.185-47.353 0-3.182-.345-6.363-.557-9.836zM72.262 31.577h-6.765V19.01h23.955v64.03h-17.19V31.577zm184.316.186c-1.087-.08-1.697-.16-2.308-.16-4.668-.106-4.668-.106-4.668-4.904V18.93h24.113v64.11h-17.163c.026-17.075.026-34.044.026-51.277zm-74.198 81.184c-7.083-4.375-14.166-4.481-21.223-.08-.106-.265-.212-.556-.318-.822 2.918-2.704 5.677-5.673 8.887-7.954 1.034-.715 3.767-.159 5.04.769 2.812 2.068 5.2 4.72 7.773 7.132l-.159.955zm-15.705-4.004h10.054c-1.883-1.749-3.395-3.155-5.093-4.692-1.618 1.537-3.104 2.969-4.961 4.692zm168.108 3.076c2.573-2.413 5.147-4.878 7.773-7.265 1.724-1.564 4.006-1.564 5.571-.371 2.997 2.28 5.597 5.064 8.277 8.113-7.216-3.818-14.352-4.189-21.462.531a82.48 82.48 0 00-.159-1.008zm10.744-7.742c-1.618 1.538-3.13 2.996-4.855 4.64h9.975c-1.91-1.723-3.475-3.129-5.12-4.64zm-103.831 8.14H227.53v-8.484c.61-.027 1.274-.08 2.176-.106v7.954h12.017c0 .212-.027.424-.027.636zm-127.732-8.06c0 2.36.027 4.348 0 6.363-.026 1.75-.079 1.75-2.467 1.564v-7.795h-7.268v-.477h16.765c0 .106.027.239.027.345h-7.057zm173.36 7.953v-8.192c2.335-.371 2.361-.371 2.414 1.537.053 1.671-.053 3.341.027 4.985.079 1.697-.557 2.28-2.441 1.67zm-228.458-8.086c0 2.307.053 4.587-.053 6.893-.026.504-.663.981-1.034 1.459-.425-.504-1.168-.981-1.194-1.538-.16-1.936-.186-3.898.026-5.833.054-.61.982-1.114 1.486-1.67l.77.689z" fill="#747474"/></svg>