<svg width="417" height="76" fill="none" xmlns="http://www.w3.org/2000/svg"><path d="M248.9 73.557c-8.8 3-12.1-.3-14.2-7.4-3.6-12.6-8-24.9-12.8-39.3-7.6 17.4-14.4 32.8-21.1 48.2-.8.1-1.6.1-2.4.2-6.8-15.5-13.7-30.9-21.3-48.2-4.9 14.7-9.6 27.2-13.1 40.1-1.9 7-5.4 8.8-13.6 6.5 8.1-24.3 16.2-48.5 24.2-72.7.7-.1 1.5-.1 2.2-.2 7.3 17 14.6 34 22.7 52.8 8-18.5 15.4-35.6 22.7-52.6l2.1-.3c8.2 24.2 16.3 48.4 24.6 72.9zm156.7-25.5c-3.6 0-6.8.3-9.8.1-1.7-.1-1 .2-1.3-4.6.4-4.3-.8-4.5 1.5-4.6 6.6-.2 13.1-.2 20.9-.2 0 8.5.2 16.2-.1 23.8-.1 1.7-1.4 3.8-2.7 5-11.5 10.8-36.8 9.8-48.6-1.8-13.7-13.4-14.3-40.1-1.3-54.7 11.3-12.7 35.3-14.9 48.2-4.3 1.1.9 1.9 2.1 2.9 3.1-2.6 7.5-6.4 6.2-11.9 3.1-10.7-5.8-23.2-3.8-30.3 4.2-8.4 9.3-9.7 26.2-3 37.3 5.6 9.3 16.8 13.5 27.8 10.4 9.1-2.7 9.3-3.2 7.7-16.8zm-116.3-4.8v21.6h36.6c.3 3.5.4 5.9.7 9.1h-47.4v-71.7h46.7c.2 2.3.5 4.7.9 8.2h-37.2v23.2c7.2 0 20-.1 27.1-.1 0 0 .7 1.8.3 9.8-9-.1-18.1-.1-27.7-.1zm-161.7 30.4c-8.3 2.7-12.1.1-14.7-7-5.3-14.6-11.4-28.9-17.8-44.8-6.6 16-12.8 30.5-18.3 45.3-2.5 6.9-6.3 9-14.3 6.2 10.5-24.4 20.9-48.7 31.2-73.1.8.1 1.7.1 2.5.2 10.4 24.2 20.8 48.4 31.4 73.2zM47 2.257v8.2H10.5v23.1H38c2.5 7 1.2 10.1-6 9.8-7-.4-13.9-.1-22-.1v30.9H0v-71.9h47z" fill="#747474"/></svg>