<svg width="76" height="57" fill="none" xmlns="http://www.w3.org/2000/svg"><path d="M68.996 18.592H29.555c-3.82 0-6.95 3.087-6.95 6.853v24.636c0 3.766 3.13 6.853 6.95 6.853h39.442c3.819 0 6.949-3.087 6.949-6.853V25.445c.016-3.782-3.13-6.853-6.95-6.853zm3.21 31.581c0 1.359-1.128 2.485-2.52 2.485h-40.21c-1.377 0-2.52-1.11-2.52-2.485V32.84h45.25v17.334zm0-23.863h-45.25v-.942c0-1.358 1.128-2.485 2.52-2.485h40.21c1.376 0 2.52 1.111 2.52 2.485v.942z" fill="#000"/><path d="M29.054 14.363h24.463L48.54 4.421c-1.706-3.396-5.885-4.785-9.328-3.103L3.87 18.546c-3.444 1.682-4.852 5.803-3.146 9.2l11.081 22.088c1.487 2.979 4.915 4.43 8.06 3.58a10.212 10.212 0 01-1.47-5.294V24.89c-.016-5.789 4.789-10.527 10.658-10.527zm5.024 35.625a4.476 4.476 0 003.412-1.56 4.5 4.5 0 003.412 1.56c2.489 0 4.508-1.991 4.508-4.446 0-2.454-2.02-4.445-4.508-4.445a4.476 4.476 0 00-3.412 1.559 4.5 4.5 0 00-3.412-1.56c-2.489 0-4.508 1.992-4.508 4.446 0 2.455 2.02 4.446 4.508 4.446z" fill="#000"/></svg>