<svg width="32" height="29" fill="none" xmlns="http://www.w3.org/2000/svg"><path d="M28.424 9.26H12.176c-1.574 0-2.863 1.59-2.863 3.53v12.682c0 1.939 1.29 3.528 2.863 3.528h16.248c1.574 0 2.863-1.59 2.863-3.528V12.789c.007-1.947-1.29-3.528-2.863-3.528zm1.322 16.26c0 .699-.464 1.279-1.038 1.279H12.143c-.567 0-1.038-.572-1.038-1.28v-8.923h18.641v8.924zm0-12.286h-18.64v-.485c0-.699.463-1.28 1.037-1.28h16.565c.567 0 1.038.573 1.038 1.28v.485z" fill="#000"/><path d="M11.97 7.083h10.077l-2.05-5.118C19.294.217 17.573-.498 16.154.368L1.594 9.236C.177 10.103-.403 12.224.3 13.973l4.565 11.371c.612 1.534 2.024 2.281 3.32 1.844a6.276 6.276 0 01-.606-2.726v-11.96c-.006-2.98 1.973-5.42 4.391-5.42zm2.069 18.341c.56 0 1.07-.31 1.405-.803.342.493.845.803 1.406.803 1.025 0 1.857-1.025 1.857-2.289 0-1.263-.832-2.288-1.857-2.288-.56 0-1.07.31-1.406.802-.341-.492-.844-.802-1.405-.802-1.025 0-1.857 1.025-1.857 2.288 0 1.264.832 2.289 1.857 2.289z" fill="#000"/></svg>