<svg width="49" height="31" fill="none" xmlns="http://www.w3.org/2000/svg"><path d="M46.362 30.083h-3.885a.487.487 0 01-.49-.482v-1.226H7.596v1.226c0 .266-.22.482-.49.482H3.22a.487.487 0 01-.491-.482v-1.226H1.074a.487.487 0 01-.491-.482V12.287c0-.925.766-1.678 1.707-1.678h1.656c.26 0 .506.057.726.16v-3.8c0-3.337 2.762-6.052 6.157-6.052h27.924c3.395 0 6.157 2.715 6.157 6.052v3.8c.22-.102.467-.16.726-.16h1.656c.942 0 1.708.753 1.708 1.679v15.605c0 .266-.22.482-.491.482h-1.656v1.226c0 .267-.22.482-.491.482zm-3.394-.964h2.903v-.744h-2.903v.744zm-39.257 0h2.904v-.744H3.71v.744zm42.65-1.709h1.657V12.287a.72.72 0 00-.726-.713h-1.656a.72.72 0 00-.726.713V27.41h1.452zm-3.884 0h1.452v-6.695H5.654v6.695h36.823zm-39.256 0h1.451V12.287a.72.72 0 00-.725-.713H2.29a.72.72 0 00-.726.713V27.41h1.657zm3.484-7.66h36.172c.58 0 1.052-.463 1.052-1.033v-1.791c0-.57-.472-1.034-1.052-1.034H6.705c-.58 0-1.052.464-1.052 1.034v1.791c0 .57.472 1.034 1.052 1.034zm36.172-4.823h1.052V6.97c0-2.805-2.322-5.088-5.176-5.088H10.829c-2.853 0-5.176 2.283-5.176 5.088v7.958h37.224z" fill="#000"/></svg>