<svg xmlns="http://www.w3.org/2000/svg" xmlns:xlink="http://www.w3.org/1999/xlink"><defs>
<clipPath id="clip0">
<rect width="38" height="38"/>
</clipPath>
</defs><symbol id="accessories" viewBox="0 0 38 38">
<g clip-path="url(#clip0)">
<path d="M8.86639 25.3089C8.86639 23.9098 7.73224 22.7756 6.3331 22.7756C4.93396 22.7756 3.7998 23.9098 3.7998 25.3089C3.7998 26.7081 4.93396 27.8422 6.3331 27.8422C7.73166 27.8408 8.86494 26.7075 8.86639 25.3089ZM5.06645 25.3089C5.06645 24.6094 5.63353 24.0423 6.3331 24.0423C7.03267 24.0423 7.59975 24.6094 7.59975 25.3089C7.59975 26.0085 7.03267 26.5756 6.3331 26.5756C5.63382 26.575 5.06703 26.0082 5.06645 25.3089Z"/>
<path d="M37.3667 15.1753H24.8035C26.0434 12.3396 25.0511 9.02328 22.4578 7.33452C19.8642 5.64547 16.4298 6.07948 14.3378 8.36024L14.3346 8.36256L1.84853 20.8344C1.84041 20.8429 1.8378 20.8539 1.82997 20.8623C0.0333666 22.6783 -0.49544 25.396 0.489404 27.753C1.47396 30.11 3.77908 31.644 6.33353 31.6419H22.1667C22.5166 31.6419 22.8002 31.3584 22.8002 31.0088C22.8002 30.6588 22.5166 30.3753 22.1667 30.3753H21.1624L22.4291 29.1086H24.7C25.0499 29.1086 25.3334 28.8251 25.3334 28.4755C25.3334 28.1255 25.0499 27.842 24.7 27.842H23.6957L24.9624 26.5754H27.2333C27.5832 26.5754 27.8667 26.2918 27.8667 25.9422C27.8667 25.5923 27.5832 25.3087 27.2333 25.3087H26.229L27.4956 24.0421H29.7668C30.1165 24.0421 30.4 23.7585 30.4 23.4086C30.4 23.059 30.1165 22.7754 29.7668 22.7754H28.7623L30.0289 21.5088H32.3001C32.6498 21.5088 32.9333 21.2253 32.9333 20.8753C32.9333 20.5257 32.6498 20.2422 32.3001 20.2422H31.2956L32.5622 18.9755H34.8334C35.183 18.9755 35.4666 18.692 35.4666 18.342C35.4666 17.9924 35.183 17.7089 34.8334 17.7089H33.8288L35.0958 16.4422H37.3667C37.7166 16.4422 38.0002 16.1587 38.0002 15.8088C38.0002 15.4591 37.7166 15.1753 37.3667 15.1753ZM24.0668 12.642C24.0717 13.9858 23.5368 15.275 22.5819 16.2204L22.5813 16.2213L22.5801 16.2219L12.5951 26.2095C12.8966 24.2323 12.2391 22.2295 10.8246 20.8156C9.40982 19.4017 7.40679 18.745 5.42986 19.0474L15.2296 9.25869C15.2334 9.25492 15.2345 9.24942 15.2383 9.24565C15.2421 9.24159 15.2476 9.23985 15.2516 9.23579C16.6589 7.6859 18.8744 7.16144 20.8273 7.9158C22.7799 8.67045 24.0674 10.5485 24.0668 12.642ZM1.26696 25.3087C1.26696 22.5105 3.53526 20.2422 6.33353 20.2422C9.13179 20.2422 11.4001 22.5105 11.4001 25.3087C11.4001 28.107 9.13179 30.3753 6.33353 30.3753C3.53671 30.3721 1.27015 28.1055 1.26696 25.3087ZM10.7342 29.8537C10.7426 29.8462 10.753 29.8439 10.7611 29.8358L23.4757 17.1177L23.4762 17.1171C23.6859 16.9055 23.8804 16.6794 24.0584 16.4405L24.0668 16.4422H33.3044L21.7188 28.0278L19.371 30.3753H10.1175C10.3338 30.2147 10.5396 30.0404 10.7342 29.8537Z"/>
</g>

</symbol><symbol id="address" viewBox="0 0 22 22">
<path d="M11 0C6.45012 0 2.75 3.70012 2.75 8.25C2.75 13.9686 10.197 21.4816 10.5132 21.7992C10.648 21.9326 10.824 22 11 22C11.176 22 11.352 21.9326 11.4867 21.7992C11.803 21.4816 19.25 13.9686 19.25 8.25C19.25 3.70012 15.5499 0 11 0ZM11 20.3184C9.35825 18.5611 4.125 12.6184 4.125 8.25C4.125 4.45913 7.20913 1.375 11 1.375C14.7909 1.375 17.875 4.45913 17.875 8.25C17.875 12.6143 12.6418 18.5611 11 20.3184Z"/>
<path d="M11 4.125C8.72575 4.125 6.875 5.97575 6.875 8.25C6.875 10.5243 8.72575 12.375 11 12.375C13.2743 12.375 15.125 10.5243 15.125 8.25C15.125 5.97575 13.2743 4.125 11 4.125ZM11 11C9.48337 11 8.25 9.76662 8.25 8.25C8.25 6.73337 9.48337 5.5 11 5.5C12.5166 5.5 13.75 6.73337 13.75 8.25C13.75 9.76662 12.5166 11 11 11Z"/>
</symbol><symbol id="armchair" viewBox="0 0 37 39">
<path d="M35.9932 12.6877H33.5724V4.06903C33.5724 1.81548 31.707 9.4559e-06 29.4531 9.4559e-06H7.67177C6.59173 -0.00231893 5.55493 0.425439 4.79056 1.18915C4.02651 1.95253 3.59742 2.98899 3.59876 4.06903V12.6877H1.00793C0.831637 12.6877 0.662995 12.7596 0.541254 12.887C0.419513 13.0143 0.354983 13.186 0.362966 13.3619V31.227C0.362966 31.6032 0.631728 31.9325 1.00793 31.9325H1.5551V38.3369C1.55876 38.5168 1.63393 38.6881 1.76399 38.8125C1.89405 38.9369 2.06867 39.0044 2.24863 38.9998H7.9555C8.13279 39.0034 8.30376 38.9349 8.42982 38.8099C8.55555 38.6848 8.62507 38.5142 8.62274 38.3369V31.9321H28.2078V38.3369C28.2078 38.7131 28.5454 38.9998 28.9216 38.9998H34.6285C34.8038 39.0025 34.9724 38.9329 35.0948 38.8075C35.2172 38.6821 35.2824 38.5118 35.2754 38.3369V31.9321H35.9932C36.3694 31.9321 36.6379 31.6032 36.6379 31.2266V13.3619C36.6458 13.1857 36.5813 13.0143 36.4596 12.887C36.3378 12.7596 36.1692 12.6877 35.9932 12.6877ZM4.96119 4.06903C4.95953 3.35022 5.24459 2.66002 5.75351 2.1521C6.26243 1.64385 6.95296 1.35979 7.67177 1.36245H29.4531C30.9556 1.36245 32.2099 2.56655 32.2099 4.06903V12.6877H28.9216C28.5454 12.6877 28.2078 12.9857 28.2078 13.3619V24.1833H8.79305V13.3619C8.79305 12.9857 8.45577 12.6877 8.07957 12.6877H4.96119V4.06903ZM7.26031 37.6374H2.91754V31.9321H7.26031V37.6374ZM33.913 37.6374H29.5702V31.9321H33.913V37.6374ZM35.2754 30.5697H1.7254V14.0501H7.43061V24.8998C7.42462 25.0734 7.49115 25.2414 7.61422 25.3641C7.73729 25.4865 7.90593 25.5524 8.07957 25.5457H28.9216C29.0952 25.5524 29.2639 25.4865 29.3869 25.3641C29.5097 25.2414 29.5762 25.0734 29.5702 24.8998V14.0501H35.2754V30.5697Z"/>
</symbol><symbol id="bad" viewBox="0 0 46 31">
<path d="M42.7143 11.809V7.83396C42.7143 3.66968 39.7571 0.357178 36.225 0.357178H9.775C6.24286 0.357178 3.28571 3.76432 3.28571 7.83396V11.809C1.39643 12.2822 0 14.175 0 16.4465V25.9107C0 26.4786 0.328571 26.8572 0.821429 26.8572H1.64286V29.6965C1.64286 30.2643 1.97143 30.6429 2.46429 30.6429C2.95714 30.6429 3.28571 30.2643 3.28571 29.6965V26.8572H42.7143V29.6965C42.7143 30.2643 43.0429 30.6429 43.5357 30.6429C44.0286 30.6429 44.3571 30.2643 44.3571 29.6965V26.8572H45.1786C45.6714 26.8572 46 26.4786 46 25.9107V16.4465C46 14.175 44.6036 12.2822 42.7143 11.809ZM4.92857 7.83396C4.92857 4.71075 7.14643 2.25003 9.775 2.25003H36.1429C38.8536 2.25003 40.9893 4.80539 40.9893 7.83396V11.7143H37.6214C37.375 9.53753 35.7321 7.92861 33.8429 7.92861H30.0643C28.175 7.92861 26.5321 9.53753 26.2857 11.7143H19.6321C19.3857 9.53753 17.7429 7.92861 15.8536 7.92861H12.075C10.1857 7.92861 8.54286 9.53753 8.29643 11.7143H4.92857V7.83396ZM36.0607 11.7143H28.0107C28.2571 10.5786 29.1607 9.82146 30.1464 9.82146H33.925C34.9107 9.82146 35.8143 10.5786 36.0607 11.7143ZM17.9893 11.7143H9.93929C10.1857 10.5786 11.0893 9.82146 12.075 9.82146H15.8536C16.8393 9.82146 17.7429 10.5786 17.9893 11.7143ZM44.3571 24.9643H1.64286V16.4465C1.64286 14.8375 2.71071 13.6072 4.10714 13.6072H41.8929C43.2893 13.6072 44.3571 14.8375 44.3571 16.4465V24.9643Z"/>
</symbol><symbol id="chair" viewBox="0 0 38 39">
<path d="M34.9426 19.5765H34.8651L35.549 8.07635C35.5678 7.76115 35.2584 7.49371 34.858 7.47901C34.4576 7.46385 34.1178 7.70783 34.0991 8.02295L33.4119 19.5765H4.40158L3.7144 8.02295C3.46463 3.82276 3.47895 4.09462 3.47895 3.99598C3.47895 2.42265 5.10696 1.14258 7.10803 1.14258H30.7053C32.7063 1.14258 34.3344 2.42265 34.3344 3.99598C34.3344 4.08944 34.1808 6.64869 34.0769 8.3966C34.0581 8.71173 34.3675 8.97917 34.7679 8.99394C35.1682 9.00925 35.508 8.7652 35.5268 8.45C35.6305 6.70704 35.7859 4.12486 35.7859 3.99598C35.7859 1.79255 33.5068 0 30.7053 0H7.10813C4.30665 0 2.02746 1.79255 2.02746 3.99598C2.02746 4.13126 2.01236 3.83685 2.26455 8.07635L2.94854 19.5765H2.87103C1.5103 19.5765 0.40332 20.4478 0.40332 21.5189V24.3515C0.40332 25.4226 1.5103 26.2939 2.87103 26.2939H3.37047V32.825C3.37047 33.1405 3.69543 33.3963 4.09627 33.3963C4.4971 33.3963 4.82206 33.1405 4.82206 32.825V26.2939H7.0009L5.99534 37.4279C5.97356 37.6687 5.71624 37.8574 5.40938 37.8574C5.08548 37.8574 4.82206 37.65 4.82206 37.3951V32.5781C4.82206 32.2626 4.4971 32.0068 4.09627 32.0068C3.69543 32.0068 3.37047 32.2626 3.37047 32.5781V37.3951C3.37047 38.2801 4.28517 39 5.40938 39C6.47436 39 7.36767 38.345 7.44325 37.5089L8.45617 26.2939H29.3577L30.3706 37.5089C30.4459 38.345 31.3393 39 32.4042 39C33.5285 39 34.4431 38.28 34.4431 37.3951V26.2939H34.9426C36.3033 26.2939 37.4103 25.4226 37.4103 24.3515V21.5189C37.4103 20.4478 36.3033 19.5765 34.9426 19.5765ZM32.9915 37.3951C32.9915 37.6501 32.728 37.8574 32.4042 37.8574C32.0975 37.8574 31.84 37.6687 31.8183 37.4279L30.8127 26.2939H32.9915V37.3951ZM35.9587 24.3515C35.9587 24.7926 35.5029 25.1513 34.9426 25.1513C32.6978 25.1513 5.09564 25.1513 2.87083 25.1513C2.31052 25.1513 1.85472 24.7926 1.85472 24.3515V21.5189C1.85472 21.0778 2.31052 20.7191 2.87083 20.7191H34.9426C35.5029 20.7191 35.9587 21.0778 35.9587 21.5189V24.3515Z"/>
</symbol><symbol id="cupboard" viewBox="0 0 40 32">
<path d="M39.2729 0.481445H1.02333C0.71752 0.481445 0.469727 0.729312 0.469727 1.03505V31.4464C0.469727 31.7521 0.71752 32 1.02333 32H39.2729C39.5787 32 39.8265 31.7521 39.8265 31.4464V1.03505C39.8265 0.729312 39.5787 0.481445 39.2729 0.481445ZM38.7193 8.08427H21.9795V1.58865H38.7193V8.08427ZM21.9795 16.7943H38.7193V23.2899H21.9795V16.7943ZM21.9795 15.6871V9.19148H38.7193V15.6871H21.9795ZM1.57693 1.58865H20.8723V30.8928H1.57693V1.58865ZM21.9795 30.8928V24.3971H38.7193V30.8928H21.9795Z"/>
<path d="M19.285 13.6941C18.9792 13.6941 18.7314 13.942 18.7314 14.2477V18.2336C18.7314 18.5394 18.9792 18.7872 19.285 18.7872C19.5909 18.7872 19.8387 18.5394 19.8387 18.2336V14.2477C19.8387 13.942 19.5909 13.6941 19.285 13.6941Z"/>
</symbol><symbol id="facebook" viewBox="0 0 31 31">
<path d="M15.2782 -8.15847e-09C6.84028 -3.65266e-09 -3.29843e-09 6.84028 -7.36727e-09 15.2782C-1.14361e-08 23.7162 6.84028 30.5564 15.2782 30.5564C23.7162 30.5564 30.5564 23.7162 30.5564 15.2782C30.5564 6.84028 23.7162 -1.26643e-08 15.2782 -8.15847e-09ZM19.5413 9.28094C19.5413 9.28094 18.1042 9.28094 17.5262 9.28094C16.8117 9.28094 16.6671 9.56996 16.6671 10.3086C16.6671 10.9187 16.6671 12.0829 16.6671 12.0829L19.5413 12.0829L19.2684 15.1979L16.6752 15.1979L16.6752 24.511L12.958 24.511L12.958 15.2381L11.0231 15.2381L11.0231 12.0829L12.958 12.0829C12.958 12.0829 12.958 11.6253 12.958 9.59405C12.958 7.25776 14.2024 6.04545 16.9722 6.04545C17.4218 6.04545 19.5494 6.04545 19.5494 6.04545L19.5494 9.28094L19.5413 9.28094Z"/>
</symbol><symbol id="find" viewBox="0 0 24 24">
<path d="M22.8454 22.8447C23.1183 22.5715 23.1182 22.1205 22.8451 21.8473L17.5304 16.5327C18.9543 14.8795 19.8151 12.7301 19.8151 10.3826C19.8151 5.17818 15.582 0.95 10.3826 0.95C5.17818 0.95 0.95 5.18309 0.95 10.3826C0.95 15.5821 5.18308 19.8151 10.3826 19.8151C12.7301 19.8151 14.8795 18.9543 16.5327 17.5304L21.8473 22.8451C21.9835 22.9813 22.167 23.0549 22.3462 23.0549C22.5244 23.0549 22.7084 22.9868 22.8454 22.8447ZM22.8454 22.8447C22.8453 22.8449 22.8452 22.845 22.8451 22.8451L22.8097 22.8097L22.8457 22.8444C22.8456 22.8445 22.8455 22.8446 22.8454 22.8447ZM2.36249 10.3826C2.36249 5.96044 5.9604 2.36737 10.3777 2.36737C14.7998 2.36737 18.3929 5.96528 18.3929 10.3826C18.3929 14.7999 14.7998 18.4027 10.3777 18.4027C5.96044 18.4027 2.36249 14.8047 2.36249 10.3826Z" stroke-width="0.1"/>
</symbol><symbol id="insta" viewBox="0 0 31 31">
<path d="M15.2782 12.4843C13.7368 12.4843 12.4843 13.7367 12.4843 15.2782C12.4843 16.8197 13.7368 18.0721 15.2782 18.0721C16.8197 18.0721 18.0721 16.8197 18.0721 15.2782C18.0721 13.7367 16.8197 12.4843 15.2782 12.4843Z"/>
<path d="M15.2782 0C6.84028 0 0 6.84028 0 15.2782C0 23.7162 6.84028 30.5564 15.2782 30.5564C23.7162 30.5564 30.5564 23.7162 30.5564 15.2782C30.5564 6.84028 23.7162 0 15.2782 0ZM23.6038 18.7305C23.5636 19.6216 23.4191 20.2318 23.2104 20.7617C22.9936 21.3156 22.7126 21.7813 22.247 22.247C21.7813 22.7126 21.3156 23.0016 20.7617 23.2104C20.2318 23.4191 19.6216 23.5556 18.7305 23.6038C17.8393 23.6439 17.5503 23.6519 15.2782 23.6519C13.0062 23.6519 12.7171 23.6439 11.826 23.6038C10.9348 23.5636 10.3246 23.4191 9.79476 23.2104C9.24079 22.9936 8.77514 22.7126 8.30949 22.247C7.84384 21.7813 7.55481 21.3156 7.34607 20.7617C7.13733 20.2318 7.00084 19.6216 6.95267 18.7305C6.91253 17.8393 6.9045 17.5503 6.9045 15.2782C6.9045 13.0062 6.91253 12.7171 6.95267 11.826C6.99282 10.9348 7.13733 10.3246 7.34607 9.79476C7.56284 9.24079 7.84384 8.77514 8.30949 8.30949C8.77514 7.84384 9.24079 7.55481 9.79476 7.34607C10.3246 7.13733 10.9348 7.00084 11.826 6.95267C12.7171 6.91253 13.0062 6.9045 15.2782 6.9045C17.5503 6.9045 17.8393 6.91253 18.7305 6.95267C19.6216 6.99282 20.2318 7.13733 20.7617 7.34607C21.3156 7.56284 21.7813 7.84384 22.247 8.30949C22.7126 8.77514 23.0016 9.24079 23.2104 9.79476C23.4191 10.3246 23.5556 10.9348 23.6038 11.826C23.6439 12.7171 23.6519 13.0062 23.6519 15.2782C23.6519 17.5503 23.6439 17.8393 23.6038 18.7305Z"/>
<path d="M21.8054 10.3407C21.6528 9.94729 21.4682 9.67432 21.1792 9.37726C20.8901 9.08021 20.6091 8.90358 20.2157 8.75104C19.9187 8.63864 19.4771 8.50216 18.6582 8.46201C17.7751 8.42187 17.5101 8.41384 15.2702 8.41384C13.0302 8.41384 12.7653 8.42187 11.8822 8.46201C11.0633 8.50216 10.6217 8.63864 10.3246 8.75104C9.93125 8.90358 9.65828 9.08824 9.36123 9.37726C9.0722 9.67432 8.88755 9.94729 8.735 10.3407C8.62261 10.6377 8.48612 11.0793 8.44598 11.8982C8.40584 12.7813 8.39781 13.0463 8.39781 15.2862C8.39781 17.5262 8.40584 17.7911 8.44598 18.6743C8.48612 19.4932 8.62261 19.9347 8.735 20.2318C8.88755 20.6252 9.0722 20.8981 9.36123 21.1952C9.65828 21.4842 9.93125 21.6689 10.3246 21.8214C10.6217 21.9338 11.0633 22.0703 11.8822 22.1105C12.7653 22.1506 13.0302 22.1586 15.2702 22.1586C17.5101 22.1586 17.7751 22.1506 18.6582 22.1105C19.4771 22.0703 19.9187 21.9338 20.2157 21.8214C20.6091 21.6689 20.8821 21.4842 21.1792 21.1952C21.4762 20.8981 21.6528 20.6252 21.8054 20.2318C21.9178 19.9347 22.0543 19.4932 22.0944 18.6743C22.1346 17.7911 22.1426 17.5262 22.1426 15.2862C22.1426 13.0463 22.1346 12.7813 22.0944 11.8982C22.0623 11.0793 21.9258 10.6297 21.8054 10.3407ZM15.2782 19.5815C12.9018 19.5815 10.975 17.6546 10.975 15.2782C10.975 12.9018 12.9018 10.9749 15.2782 10.9749C17.6547 10.9749 19.5815 12.9018 19.5815 15.2782C19.5815 17.6546 17.6547 19.5815 15.2782 19.5815ZM19.7501 11.8099C19.1961 11.8099 18.7465 11.3603 18.7465 10.8063C18.7465 10.2524 19.1961 9.80277 19.7501 9.80277C20.3041 9.80277 20.7537 10.2524 20.7537 10.8063C20.7537 11.3603 20.3041 11.8099 19.7501 11.8099Z"/>
</symbol><symbol id="logo-grad" viewBox="0 0 175 54">
<path d="M4.584 3.6C5.672 3.6 6.528 3.86 7.152 4.38C7.776 4.9 8.088 5.616 8.088 6.528C8.088 7.44 7.776 8.156 7.152 8.676C6.528 9.196 5.672 9.456 4.584 9.456H2.508V12H1.308V3.6H4.584ZM4.548 8.412C5.308 8.412 5.888 8.252 6.288 7.932C6.688 7.604 6.888 7.136 6.888 6.528C6.888 5.92 6.688 5.456 6.288 5.136C5.888 4.808 5.308 4.644 4.548 4.644H2.508V8.412H4.548ZM11.7746 5.58C12.6546 5.58 13.3266 5.796 13.7906 6.228C14.2626 6.66 14.4986 7.304 14.4986 8.16V12H13.4066V11.16C13.2146 11.456 12.9386 11.684 12.5786 11.844C12.2266 11.996 11.8066 12.072 11.3186 12.072C10.6066 12.072 10.0346 11.9 9.60263 11.556C9.17863 11.212 8.96663 10.76 8.96663 10.2C8.96663 9.64 9.17063 9.192 9.57863 8.856C9.98663 8.512 10.6346 8.34 11.5226 8.34H13.3466V8.112C13.3466 7.616 13.2026 7.236 12.9146 6.972C12.6266 6.708 12.2026 6.576 11.6426 6.576C11.2666 6.576 10.8986 6.64 10.5386 6.768C10.1786 6.888 9.87463 7.052 9.62663 7.26L9.14663 6.396C9.47463 6.132 9.86663 5.932 10.3226 5.796C10.7786 5.652 11.2626 5.58 11.7746 5.58ZM11.5106 11.184C11.9506 11.184 12.3306 11.088 12.6506 10.896C12.9706 10.696 13.2026 10.416 13.3466 10.056V9.168H11.5706C10.5946 9.168 10.1066 9.496 10.1066 10.152C10.1066 10.472 10.2306 10.724 10.4786 10.908C10.7266 11.092 11.0706 11.184 11.5106 11.184ZM19.9116 8.688C20.3356 8.8 20.6636 8.98 20.8956 9.228C21.1276 9.476 21.2436 9.784 21.2436 10.152C21.2436 10.528 21.1156 10.864 20.8596 11.16C20.6036 11.448 20.2476 11.676 19.7916 11.844C19.3436 12.004 18.8396 12.084 18.2796 12.084C17.8076 12.084 17.3436 12.024 16.8876 11.904C16.4396 11.776 16.0396 11.596 15.6876 11.364L16.0356 10.488C16.3396 10.68 16.6876 10.832 17.0796 10.944C17.4716 11.048 17.8676 11.1 18.2676 11.1C18.8116 11.1 19.2436 11.008 19.5636 10.824C19.8916 10.632 20.0556 10.376 20.0556 10.056C20.0556 9.76 19.9236 9.532 19.6596 9.372C19.4036 9.212 19.0396 9.132 18.5676 9.132H17.4036V8.304H18.4836C18.9156 8.304 19.2556 8.228 19.5036 8.076C19.7516 7.924 19.8756 7.716 19.8756 7.452C19.8756 7.164 19.7276 6.94 19.4316 6.78C19.1436 6.62 18.7516 6.54 18.2556 6.54C17.6236 6.54 16.9556 6.704 16.2516 7.032L15.9396 6.144C16.7156 5.752 17.5276 5.556 18.3756 5.556C18.8876 5.556 19.3476 5.628 19.7556 5.772C20.1636 5.916 20.4836 6.12 20.7156 6.384C20.9476 6.648 21.0636 6.948 21.0636 7.284C21.0636 7.596 20.9596 7.876 20.7516 8.124C20.5436 8.372 20.2636 8.56 19.9116 8.688ZM26.3669 5.58C26.9829 5.58 27.5349 5.716 28.0229 5.988C28.5109 6.26 28.8909 6.64 29.1629 7.128C29.4429 7.616 29.5829 8.18 29.5829 8.82C29.5829 9.46 29.4429 10.028 29.1629 10.524C28.8909 11.012 28.5109 11.392 28.0229 11.664C27.5349 11.936 26.9829 12.072 26.3669 12.072C25.9109 12.072 25.4909 11.984 25.1069 11.808C24.7309 11.632 24.4109 11.376 24.1469 11.04V14.328H22.9949V5.64H24.0989V6.648C24.3549 6.296 24.6789 6.032 25.0709 5.856C25.4629 5.672 25.8949 5.58 26.3669 5.58ZM26.2709 11.064C26.6789 11.064 27.0429 10.972 27.3629 10.788C27.6909 10.596 27.9469 10.332 28.1309 9.996C28.3229 9.652 28.4189 9.26 28.4189 8.82C28.4189 8.38 28.3229 7.992 28.1309 7.656C27.9469 7.312 27.6909 7.048 27.3629 6.864C27.0429 6.68 26.6789 6.588 26.2709 6.588C25.8709 6.588 25.5069 6.684 25.1789 6.876C24.8589 7.06 24.6029 7.32 24.4109 7.656C24.2269 7.992 24.1349 8.38 24.1349 8.82C24.1349 9.26 24.2269 9.652 24.4109 9.996C24.5949 10.332 24.8509 10.596 25.1789 10.788C25.5069 10.972 25.8709 11.064 26.2709 11.064ZM33.466 5.58C34.346 5.58 35.018 5.796 35.482 6.228C35.954 6.66 36.19 7.304 36.19 8.16V12H35.098V11.16C34.906 11.456 34.63 11.684 34.27 11.844C33.918 11.996 33.498 12.072 33.01 12.072C32.298 12.072 31.726 11.9 31.294 11.556C30.87 11.212 30.658 10.76 30.658 10.2C30.658 9.64 30.862 9.192 31.27 8.856C31.678 8.512 32.326 8.34 33.214 8.34H35.038V8.112C35.038 7.616 34.894 7.236 34.606 6.972C34.318 6.708 33.894 6.576 33.334 6.576C32.958 6.576 32.59 6.64 32.23 6.768C31.87 6.888 31.566 7.052 31.318 7.26L30.838 6.396C31.166 6.132 31.558 5.932 32.014 5.796C32.47 5.652 32.954 5.58 33.466 5.58ZM33.202 11.184C33.642 11.184 34.022 11.088 34.342 10.896C34.662 10.696 34.894 10.416 35.038 10.056V9.168H33.262C32.286 9.168 31.798 9.496 31.798 10.152C31.798 10.472 31.922 10.724 32.17 10.908C32.418 11.092 32.762 11.184 33.202 11.184ZM41.5044 5.856C42.0964 5.856 42.6244 5.988 43.0884 6.252C43.5524 6.516 43.9124 6.884 44.1684 7.356C44.4324 7.82 44.5644 8.352 44.5644 8.952C44.5644 9.568 44.4244 10.116 44.1444 10.596C43.8724 11.068 43.4844 11.436 42.9804 11.7C42.4844 11.964 41.9164 12.096 41.2764 12.096C40.1964 12.096 39.3604 11.728 38.7684 10.992C38.1844 10.248 37.8924 9.204 37.8924 7.86C37.8924 6.556 38.1604 5.536 38.6964 4.8C39.2324 4.056 40.0524 3.564 41.1564 3.324L44.0604 2.676L44.2284 3.732L41.5524 4.308C40.7204 4.492 40.1004 4.804 39.6924 5.244C39.2844 5.684 39.0524 6.316 38.9964 7.14C39.2684 6.732 39.6204 6.416 40.0524 6.192C40.4844 5.968 40.9684 5.856 41.5044 5.856ZM41.3004 11.136C41.7084 11.136 42.0684 11.044 42.3804 10.86C42.7004 10.676 42.9484 10.424 43.1244 10.104C43.3004 9.776 43.3884 9.404 43.3884 8.988C43.3884 8.356 43.1964 7.848 42.8124 7.464C42.4284 7.08 41.9244 6.888 41.3004 6.888C40.6764 6.888 40.1684 7.08 39.7764 7.464C39.3924 7.848 39.2004 8.356 39.2004 8.988C39.2004 9.404 39.2884 9.776 39.4644 10.104C39.6484 10.424 39.9004 10.676 40.2204 10.86C40.5404 11.044 40.9004 11.136 41.3004 11.136ZM48.9338 12.072C48.3018 12.072 47.7338 11.932 47.2298 11.652C46.7258 11.372 46.3298 10.988 46.0418 10.5C45.7618 10.004 45.6218 9.444 45.6218 8.82C45.6218 8.196 45.7618 7.64 46.0418 7.152C46.3298 6.656 46.7258 6.272 47.2298 6C47.7338 5.72 48.3018 5.58 48.9338 5.58C49.5658 5.58 50.1298 5.72 50.6258 6C51.1298 6.272 51.5218 6.656 51.8018 7.152C52.0898 7.64 52.2338 8.196 52.2338 8.82C52.2338 9.444 52.0898 10.004 51.8018 10.5C51.5218 10.988 51.1298 11.372 50.6258 11.652C50.1298 11.932 49.5658 12.072 48.9338 12.072ZM48.9338 11.064C49.3418 11.064 49.7058 10.972 50.0258 10.788C50.3538 10.596 50.6098 10.332 50.7938 9.996C50.9778 9.652 51.0698 9.26 51.0698 8.82C51.0698 8.38 50.9778 7.992 50.7938 7.656C50.6098 7.312 50.3538 7.048 50.0258 6.864C49.7058 6.68 49.3418 6.588 48.9338 6.588C48.5258 6.588 48.1578 6.68 47.8298 6.864C47.5098 7.048 47.2538 7.312 47.0618 7.656C46.8778 7.992 46.7858 8.38 46.7858 8.82C46.7858 9.26 46.8778 9.652 47.0618 9.996C47.2538 10.332 47.5098 10.596 47.8298 10.788C48.1578 10.972 48.5258 11.064 48.9338 11.064ZM58.4029 6.648H56.0749V12H54.9229V6.648H52.5949V5.64H58.4029V6.648ZM61.8488 5.58C62.7288 5.58 63.4008 5.796 63.8648 6.228C64.3368 6.66 64.5728 7.304 64.5728 8.16V12H63.4808V11.16C63.2888 11.456 63.0128 11.684 62.6528 11.844C62.3008 11.996 61.8808 12.072 61.3928 12.072C60.6808 12.072 60.1088 11.9 59.6768 11.556C59.2528 11.212 59.0408 10.76 59.0408 10.2C59.0408 9.64 59.2448 9.192 59.6528 8.856C60.0608 8.512 60.7088 8.34 61.5968 8.34H63.4208V8.112C63.4208 7.616 63.2768 7.236 62.9888 6.972C62.7008 6.708 62.2768 6.576 61.7168 6.576C61.3408 6.576 60.9728 6.64 60.6128 6.768C60.2528 6.888 59.9488 7.052 59.7008 7.26L59.2208 6.396C59.5488 6.132 59.9408 5.932 60.3968 5.796C60.8528 5.652 61.3368 5.58 61.8488 5.58ZM61.5848 11.184C62.0248 11.184 62.4048 11.088 62.7248 10.896C63.0448 10.696 63.2768 10.416 63.4208 10.056V9.168H61.6448C60.6688 9.168 60.1808 9.496 60.1808 10.152C60.1808 10.472 60.3048 10.724 60.5528 10.908C60.8008 11.092 61.1448 11.184 61.5848 11.184ZM66.6473 5.64H67.7993V8.34H71.4233V5.64H72.5753V12H71.4233V9.336H67.7993V12H66.6473V5.64ZM77.5392 12.072C76.9072 12.072 76.3392 11.932 75.8352 11.652C75.3312 11.372 74.9352 10.988 74.6472 10.5C74.3672 10.004 74.2272 9.444 74.2272 8.82C74.2272 8.196 74.3672 7.64 74.6472 7.152C74.9352 6.656 75.3312 6.272 75.8352 6C76.3392 5.72 76.9072 5.58 77.5392 5.58C78.1712 5.58 78.7352 5.72 79.2312 6C79.7352 6.272 80.1272 6.656 80.4072 7.152C80.6952 7.64 80.8392 8.196 80.8392 8.82C80.8392 9.444 80.6952 10.004 80.4072 10.5C80.1272 10.988 79.7352 11.372 79.2312 11.652C78.7352 11.932 78.1712 12.072 77.5392 12.072ZM77.5392 11.064C77.9472 11.064 78.3112 10.972 78.6312 10.788C78.9592 10.596 79.2152 10.332 79.3992 9.996C79.5832 9.652 79.6752 9.26 79.6752 8.82C79.6752 8.38 79.5832 7.992 79.3992 7.656C79.2152 7.312 78.9592 7.048 78.6312 6.864C78.3112 6.68 77.9472 6.588 77.5392 6.588C77.1312 6.588 76.7632 6.68 76.4352 6.864C76.1152 7.048 75.8592 7.312 75.6672 7.656C75.4832 7.992 75.3912 8.38 75.3912 8.82C75.3912 9.26 75.4832 9.652 75.6672 9.996C75.8592 10.332 76.1152 10.596 76.4352 10.788C76.7632 10.972 77.1312 11.064 77.5392 11.064ZM3.588 24.312H2.268V27H1.116V20.64H2.268V23.328H3.612L5.676 20.64H6.912L4.5 23.7L7.08 27H5.724L3.588 24.312ZM10.8009 27.072C10.1689 27.072 9.60094 26.932 9.09694 26.652C8.59294 26.372 8.19694 25.988 7.90894 25.5C7.62894 25.004 7.48894 24.444 7.48894 23.82C7.48894 23.196 7.62894 22.64 7.90894 22.152C8.19694 21.656 8.59294 21.272 9.09694 21C9.60094 20.72 10.1689 20.58 10.8009 20.58C11.4329 20.58 11.9969 20.72 12.4929 21C12.9969 21.272 13.3889 21.656 13.6689 22.152C13.9569 22.64 14.1009 23.196 14.1009 23.82C14.1009 24.444 13.9569 25.004 13.6689 25.5C13.3889 25.988 12.9969 26.372 12.4929 26.652C11.9969 26.932 11.4329 27.072 10.8009 27.072ZM10.8009 26.064C11.2089 26.064 11.5729 25.972 11.8929 25.788C12.2209 25.596 12.4769 25.332 12.6609 24.996C12.8449 24.652 12.9369 24.26 12.9369 23.82C12.9369 23.38 12.8449 22.992 12.6609 22.656C12.4769 22.312 12.2209 22.048 11.8929 21.864C11.5729 21.68 11.2089 21.588 10.8009 21.588C10.3929 21.588 10.0249 21.68 9.69694 21.864C9.37694 22.048 9.12094 22.312 8.92894 22.656C8.74494 22.992 8.65294 23.38 8.65294 23.82C8.65294 24.26 8.74494 24.652 8.92894 24.996C9.12094 25.332 9.37694 25.596 9.69694 25.788C10.0249 25.972 10.3929 26.064 10.8009 26.064ZM23.0964 20.64V27H22.0524V22.356L19.6764 26.28H19.1724L16.8204 22.344V27H15.7644V20.64H16.9524L19.4484 24.936L22.0164 20.64H23.0964ZM27.6067 20.58C28.4867 20.58 29.1587 20.796 29.6227 21.228C30.0947 21.66 30.3307 22.304 30.3307 23.16V27H29.2387V26.16C29.0467 26.456 28.7707 26.684 28.4107 26.844C28.0587 26.996 27.6387 27.072 27.1507 27.072C26.4387 27.072 25.8667 26.9 25.4347 26.556C25.0107 26.212 24.7987 25.76 24.7987 25.2C24.7987 24.64 25.0027 24.192 25.4107 23.856C25.8187 23.512 26.4667 23.34 27.3547 23.34H29.1787V23.112C29.1787 22.616 29.0347 22.236 28.7467 21.972C28.4587 21.708 28.0347 21.576 27.4747 21.576C27.0987 21.576 26.7307 21.64 26.3707 21.768C26.0107 21.888 25.7067 22.052 25.4587 22.26L24.9787 21.396C25.3067 21.132 25.6987 20.932 26.1547 20.796C26.6107 20.652 27.0947 20.58 27.6067 20.58ZM27.3427 26.184C27.7827 26.184 28.1627 26.088 28.4827 25.896C28.8027 25.696 29.0347 25.416 29.1787 25.056V24.168H27.4027C26.4267 24.168 25.9387 24.496 25.9387 25.152C25.9387 25.472 26.0627 25.724 26.3107 25.908C26.5587 26.092 26.9027 26.184 27.3427 26.184ZM32.4051 20.64H33.5571V23.34H37.1811V20.64H38.3331V27H37.1811V24.336H33.5571V27H32.4051V20.64ZM47.041 25.992V28.476H45.961V27H40.645V28.476H39.553V25.992H39.889C40.297 25.968 40.577 25.68 40.729 25.128C40.881 24.576 40.985 23.796 41.041 22.788L41.137 20.64H46.069V25.992H47.041ZM42.097 22.872C42.065 23.672 41.997 24.336 41.893 24.864C41.797 25.384 41.617 25.76 41.353 25.992H44.917V21.648H42.157L42.097 22.872ZM51.2658 27.072C50.6338 27.072 50.0658 26.932 49.5618 26.652C49.0578 26.372 48.6618 25.988 48.3738 25.5C48.0938 25.004 47.9538 24.444 47.9538 23.82C47.9538 23.196 48.0938 22.64 48.3738 22.152C48.6618 21.656 49.0578 21.272 49.5618 21C50.0658 20.72 50.6338 20.58 51.2658 20.58C51.8978 20.58 52.4618 20.72 52.9578 21C53.4618 21.272 53.8538 21.656 54.1338 22.152C54.4218 22.64 54.5658 23.196 54.5658 23.82C54.5658 24.444 54.4218 25.004 54.1338 25.5C53.8538 25.988 53.4618 26.372 52.9578 26.652C52.4618 26.932 51.8978 27.072 51.2658 27.072ZM51.2658 26.064C51.6738 26.064 52.0378 25.972 52.3578 25.788C52.6858 25.596 52.9418 25.332 53.1258 24.996C53.3098 24.652 53.4018 24.26 53.4018 23.82C53.4018 23.38 53.3098 22.992 53.1258 22.656C52.9418 22.312 52.6858 22.048 52.3578 21.864C52.0378 21.68 51.6738 21.588 51.2658 21.588C50.8578 21.588 50.4898 21.68 50.1618 21.864C49.8418 22.048 49.5858 22.312 49.3938 22.656C49.2098 22.992 49.1178 23.38 49.1178 23.82C49.1178 24.26 49.2098 24.652 49.3938 24.996C49.5858 25.332 49.8418 25.596 50.1618 25.788C50.4898 25.972 50.8578 26.064 51.2658 26.064ZM56.2293 20.64H57.3813V25.272L61.2813 20.64H62.3253V27H61.1733V22.368L57.2853 27H56.2293V20.64ZM59.2053 19.812C58.6133 19.812 58.1533 19.672 57.8253 19.392C57.4973 19.104 57.3293 18.692 57.3213 18.156H58.1013C58.1093 18.452 58.2093 18.692 58.4013 18.876C58.6013 19.052 58.8653 19.14 59.1933 19.14C59.5213 19.14 59.7853 19.052 59.9853 18.876C60.1853 18.692 60.2893 18.452 60.2973 18.156H61.1013C61.0933 18.692 60.9213 19.104 60.5853 19.392C60.2493 19.672 59.7893 19.812 59.2053 19.812Z"/>
<path d="M149.748 15.8647C149.748 9.24382 146.336 4.98535 140.886 4.98535H135.044V8.7047L136.218 12.2908V6.16658H140.746C145.526 6.16658 148.517 9.92681 148.517 15.8647C148.517 21.8632 145.526 25.5947 140.746 25.5947H140.572L140.947 26.7426C146.361 26.7108 149.748 22.4917 149.748 15.8647Z"/>
<path d="M125.634 4.98535L121.745 15.7997L122.336 17.6048L126.277 6.44523L130.834 19.3464H122.905L123.292 20.5276H131.254L133.461 26.7442H134.748L126.92 4.98535H125.634Z"/>
<path d="M109.673 17.0455L115.181 26.7452H116.551L110.903 16.8607C113.726 16.0838 115.376 14.1257 115.376 11.0788C115.376 7.25641 112.803 4.98633 108.415 4.98633H102.824V8.96617L103.998 12.5523V6.16604H108.303C112.16 6.16604 114.202 8.0015 114.202 11.0772C114.202 14.0924 112.16 15.9581 108.303 15.9581H105.112L105.499 17.1394H107.715C108.415 17.1409 109.059 17.1091 109.673 17.0455Z"/>
<path d="M155.735 20.7306L154.317 16.6096H154.294C154.321 16.9367 154.333 17.3245 154.333 17.7728V20.7306H153.884V16.0811H154.617L155.94 19.9158H155.964L157.298 16.0811H158.024V20.7306H157.538V17.7349C157.538 17.3911 157.552 17.0185 157.577 16.6157H157.554L156.124 20.7306H155.735Z"/>
<path d="M161.941 20.7306H159.611V16.0811H161.941V16.5612H160.097V18.059H161.829V18.5361H160.097V20.2474H161.941V20.7306Z"/>
<path d="M166.643 18.3619C166.643 19.1297 166.456 19.7159 166.081 20.1217C165.707 20.5276 165.167 20.7306 164.464 20.7306H163.307V16.0811H164.588C165.238 16.0811 165.743 16.281 166.104 16.6823C166.464 17.0837 166.643 17.6425 166.643 18.3619ZM166.129 18.3801C166.129 17.7743 165.992 17.3169 165.719 17.0094C165.445 16.702 165.039 16.549 164.499 16.549H163.792V20.2626H164.384C164.963 20.2626 165.399 20.1036 165.69 19.787C165.983 19.4705 166.129 19.001 166.129 18.3801Z"/>
<path d="M168.015 20.7306V16.0811H168.501V20.7306H168.015Z"/>
<path d="M172.715 20.7309L172.195 19.2528H170.519L170.005 20.7309H169.513L171.166 16.0635H171.575L173.219 20.7309H172.715ZM172.043 18.7652L171.557 17.325C171.494 17.1433 171.429 16.9191 171.362 16.6541C171.32 16.857 171.26 17.0812 171.183 17.325L170.691 18.7652H172.043Z"/>
<path d="M155.723 24.5108H157.144V26.7719C156.924 26.8506 156.698 26.9097 156.469 26.9506C156.24 26.9915 155.975 27.0112 155.674 27.0112C155.04 27.0112 154.549 26.8022 154.196 26.3827C153.843 25.9631 153.667 25.377 153.667 24.6228C153.667 24.1397 153.755 23.7156 153.929 23.3522C154.103 22.9887 154.355 22.7115 154.682 22.5192C155.01 22.3269 155.394 22.2314 155.834 22.2314C156.281 22.2314 156.696 22.3223 157.08 22.5041L156.892 22.9811C156.515 22.8024 156.152 22.7146 155.803 22.7146C155.294 22.7146 154.896 22.8827 154.61 23.2204C154.324 23.5581 154.181 24.0246 154.181 24.6228C154.181 25.2498 154.318 25.7269 154.594 26.051C154.869 26.3751 155.273 26.5371 155.807 26.5371C156.097 26.5371 156.38 26.5008 156.657 26.4266V24.9954H155.721V24.5108H155.723Z"/>
<path d="M159.073 25.0137V26.9473H158.587V22.2988H159.733C160.247 22.2988 160.625 22.4078 160.871 22.6259C161.116 22.8439 161.238 23.1725 161.238 23.6116C161.238 24.2263 160.958 24.6412 160.398 24.8577L161.532 26.9457H160.958L159.946 25.0122H159.073V25.0137ZM159.073 24.5489H159.739C160.082 24.5489 160.334 24.4731 160.493 24.3217C160.653 24.1703 160.733 23.9432 160.733 23.6404C160.733 23.333 160.651 23.1119 160.489 22.9757C160.326 22.8394 160.064 22.7728 159.705 22.7728H159.073V24.5489Z"/>
<path d="M166.274 24.6156C166.274 25.3592 166.106 25.9453 165.766 26.3709C165.427 26.7964 164.957 27.01 164.356 27.01C163.74 27.01 163.265 26.801 162.93 26.3815C162.595 25.9635 162.428 25.3713 162.428 24.608C162.428 23.8507 162.596 23.2646 162.932 22.8481C163.267 22.4317 163.744 22.2227 164.362 22.2227C164.963 22.2227 165.431 22.4347 165.769 22.8587C166.106 23.2843 166.274 23.8704 166.274 24.6156ZM162.943 24.6156C162.943 25.2456 163.063 25.7227 163.306 26.0483C163.547 26.3739 163.897 26.5359 164.357 26.5359C164.82 26.5359 165.17 26.3739 165.407 26.0498C165.644 25.7257 165.761 25.2471 165.761 24.6156C165.761 23.9901 165.644 23.516 165.408 23.1919C165.173 22.8693 164.824 22.7073 164.364 22.7073C163.901 22.7073 163.548 22.8709 163.307 23.195C163.066 23.5191 162.943 23.9946 162.943 24.6156Z"/>
<path d="M170.803 22.2988V25.3061C170.803 25.8361 170.658 26.2525 170.371 26.5554C170.083 26.8582 169.687 27.0097 169.185 27.0097C168.682 27.0097 168.293 26.8567 168.016 26.5524C167.741 26.2465 167.604 25.827 167.604 25.294V22.2988H168.09V25.3319C168.09 25.7195 168.185 26.0178 168.376 26.2253C168.566 26.4327 168.847 26.5372 169.216 26.5372C169.569 26.5372 169.84 26.4327 170.03 26.2238C170.221 26.0148 170.316 25.715 170.316 25.3258V22.2988H170.803Z"/>
<path d="M175 23.6522C175 24.1232 174.856 24.4851 174.567 24.738C174.278 24.9909 173.864 25.1181 173.328 25.1181H172.836V26.9459H172.35V22.2969H173.434C174.477 22.2984 175 22.7497 175 23.6522ZM172.835 24.6532H173.272C173.702 24.6532 174.014 24.5759 174.207 24.4215C174.399 24.267 174.496 24.0187 174.496 23.6779C174.496 23.3705 174.405 23.1419 174.225 22.9904C174.044 22.8405 173.762 22.7648 173.379 22.7648H172.836V24.6532H172.835Z"/>
<path d="M91.3641 5.18113C94.16 5.18113 96.2287 6.39254 97.8493 9.06673L98.8272 8.38228C97.2065 5.55515 94.6339 4 91.3368 4C88.7138 4 86.528 5.19021 85 7.19813L85.4617 8.60791C86.8072 6.44402 88.88 5.18113 91.3641 5.18113Z"/>
<path d="M98.7713 23.0536V15.0967H91.8952V16.2779H97.5973V22.5568C96.339 24.2969 93.908 25.3222 91.7263 25.3222C91.4512 25.3222 91.1815 25.3071 90.9187 25.2813L91.315 26.4929C91.4417 26.4974 91.5683 26.5035 91.6977 26.5035C94.2989 26.505 97.122 25.3555 98.7713 23.0536Z"/>
</symbol><symbol id="phone" viewBox="0 0 24 24">
<path d="M21.5903 14.9797L21.5898 14.9796L18.0092 14.584L17.9981 14.6834L18.0091 14.584L18.0091 14.584C17.4993 14.527 16.9929 14.7166 16.646 15.0942C16.2991 15.4718 16.1535 15.9922 16.254 16.4949L16.2539 16.4949L16.2547 16.4984C16.2868 16.6333 16.2373 16.7744 16.1281 16.8599C15.2464 17.4577 14.0423 17.5681 12.7632 17.2376C11.484 16.907 10.14 16.1374 8.99441 14.9929C7.84876 13.8484 7.078 12.5058 6.74686 11.2278C6.41575 9.9499 6.52616 8.74697 7.12507 7.86595C7.20986 7.75759 7.35004 7.70814 7.48434 7.73953L7.48433 7.73958L7.48744 7.74021C7.9906 7.84111 8.51175 7.69579 8.8899 7.34912C9.26805 7.00243 9.45768 6.49609 9.40015 5.98652L9.00203 2.40699L9.002 2.40676C8.89918 1.5015 8.09976 0.838846 7.19062 0.904478C5.5378 0.958945 3.9635 1.62224 2.77079 2.76676L2.77078 2.76674L2.76932 2.7682C1.05822 4.47918 0.56037 7.06703 1.11851 9.84814C1.67677 12.6299 3.29274 15.6177 5.8298 18.1522C8.06032 20.4685 10.9073 22.0994 14.035 22.8526L14.0373 22.8531C14.7668 23.0104 15.5106 23.0916 16.2568 23.0954C18.1008 23.1632 19.894 22.4837 21.229 21.2111L21.2291 21.2112L21.2322 21.208C22.3774 20.0162 23.0412 18.4435 23.0958 16.7923C23.1593 15.8834 22.4963 15.0851 21.5903 14.9797ZM6.70219 17.2863L6.70073 17.2848C4.38686 14.974 2.89192 12.2828 2.34244 9.80731C1.79275 7.33091 2.19114 5.08563 3.63869 3.63976C4.61946 2.7087 5.90973 2.17202 7.26215 2.13263H7.29928V2.13265L7.30114 2.13262C7.5447 2.12809 7.75241 2.30749 7.7833 2.5486L8.18128 6.12682C8.18129 6.12692 8.1813 6.12702 8.18131 6.12712C8.19367 6.24656 8.14847 6.36479 8.05947 6.4456C7.97055 6.52634 7.8485 6.5601 7.73065 6.53653C7.11212 6.40368 6.47401 6.6538 6.11095 7.17159L6.11094 7.17158L6.11017 7.17273C5.33252 8.3151 5.16961 9.82247 5.53194 11.3717C5.89444 12.9216 6.78397 14.5216 8.12468 15.861C9.46538 17.2004 11.0671 18.0891 12.6186 18.4512C14.1693 18.8131 15.6781 18.6501 16.8214 17.8725L16.8225 17.8717C17.3405 17.5087 17.5907 16.8712 17.4576 16.2532C17.4335 16.1354 17.4678 16.0133 17.5498 15.9251L17.5506 15.9243C17.6317 15.8349 17.7508 15.7895 17.8709 15.8023C17.871 15.8023 17.8711 15.8023 17.8712 15.8023L21.4518 16.1993C21.4521 16.1993 21.4523 16.1994 21.4526 16.1994C21.7064 16.2326 21.8895 16.4587 21.869 16.7134L21.8689 16.7134L21.8687 16.7186C21.8302 18.0708 21.2934 19.3612 20.3611 20.3423C18.9884 21.7128 16.8384 22.1872 14.2924 21.6507C11.3979 20.9478 8.76451 19.4336 6.70219 17.2863ZM17.4765 15.8571C17.5792 15.7439 17.7298 15.6866 17.8818 15.7029L17.4765 15.8571Z" stroke-width="0.2"/>
</symbol><symbol id="sofa" viewBox="0 0 49 31">
<path d="M46.3619 30.0834H42.4772C42.2063 30.0834 41.9865 29.8673 41.9865 29.6011V28.375H7.59596V29.6011C7.59596 29.8673 7.37612 30.0834 7.10525 30.0834H3.22056C2.94969 30.0834 2.72985 29.8673 2.72985 29.6011V28.375H1.07372C0.802845 28.375 0.583008 28.1589 0.583008 27.8927V12.2874C0.583008 11.3621 1.349 10.6094 2.29018 10.6094H3.94632C4.20566 10.6094 4.45175 10.6665 4.67208 10.7688V6.96901C4.67208 3.63178 7.43427 0.916748 10.8295 0.916748H38.753C42.1482 0.916748 44.9104 3.63178 44.9104 6.96901V10.7688C45.1307 10.6668 45.3768 10.6096 45.6361 10.6096H47.2923C48.2337 10.6096 48.9997 11.3623 48.9997 12.2877V27.8929C48.9997 28.1592 48.7798 28.3752 48.509 28.3752H46.8528V29.6013C46.8526 29.8676 46.633 30.0834 46.3619 30.0834ZM42.9679 29.1188H45.8714V28.375H42.9679V29.1188ZM3.71127 29.1188H6.61454V28.375H3.71127V29.1188ZM46.3619 27.4103H48.018V12.2874C48.018 11.8941 47.6924 11.574 47.292 11.574H45.6359C45.2357 11.574 44.9101 11.8941 44.9101 12.2874V27.4103H46.3619ZM42.4772 27.4103H43.9289V20.7151H5.65374V27.4103H42.4772ZM3.22056 27.4103H4.67232V12.2874C4.67232 11.8941 4.34674 11.574 3.94656 11.574H2.29043C1.89001 11.574 1.56442 11.8943 1.56442 12.2874V27.4103H3.22056ZM6.70508 19.7507H42.8774C43.4571 19.7507 43.9287 19.2872 43.9287 18.7173V16.9255C43.9287 16.3556 43.4571 15.8921 42.8774 15.8921H6.70508C6.12531 15.8921 5.65349 16.3556 5.65349 16.9255V18.7173C5.65374 19.2872 6.12531 19.7507 6.70508 19.7507ZM42.8774 14.9274H43.9287V6.96901C43.9287 4.16379 41.6067 1.88141 38.7527 1.88141H10.8295C7.97552 1.88141 5.65349 4.16379 5.65349 6.96901V14.9274H42.8774Z"/>
</symbol><symbol id="table" viewBox="0 0 40 40">
<path d="M38.0645 9.67725H1.93547C0.850312 9.67725 0 10.5276 0 11.6127V13.3332C0 14.4183 0.850312 15.2687 1.93547 15.2687H38.0645C39.1497 15.2687 40 14.4183 40 13.3332V11.6127C40 10.5276 39.1497 9.67725 38.0645 9.67725ZM38.7097 13.3332C38.7097 13.7069 38.4383 13.9783 38.0645 13.9783H1.93547C1.56172 13.9783 1.29031 13.7069 1.29031 13.3332V11.6127C1.29031 11.239 1.56172 10.9676 1.93547 10.9676H38.0645C38.4383 10.9676 38.7097 11.239 38.7097 11.6127V13.3332Z"/>
<path d="M7.18781 13.9849C6.83641 13.9367 6.50828 14.1798 6.45789 14.5324L4.38648 29.0323H3.4407V14.6237C3.4407 14.2671 3.15211 13.9785 2.79555 13.9785C2.43898 13.9785 2.15039 14.2671 2.15039 14.6237V29.6774C2.15039 30.0335 2.43898 30.3226 2.79555 30.3226H4.94609C5.26734 30.3226 5.53922 30.0865 5.58477 29.7686L7.73531 14.7148C7.78563 14.3622 7.54047 14.0352 7.18781 13.9849Z"/>
<path d="M37.2041 13.9786C36.848 13.9786 36.559 14.2672 36.559 14.6237V29.0323H35.6132L33.5418 14.5326C33.491 14.1799 33.1615 13.9326 32.8119 13.9851C32.4592 14.0354 32.214 14.3622 32.2644 14.715L34.4149 29.7687C34.4605 30.0865 34.7327 30.3227 35.0536 30.3227H37.2041C37.5602 30.3227 37.8493 30.0336 37.8493 29.6776V14.6237C37.8493 14.2672 37.5602 13.9786 37.2041 13.9786Z"/>
<path d="M32.9027 18.2795H7.09633C6.73977 18.2795 6.45117 18.5681 6.45117 18.9247C6.45117 19.2813 6.73977 19.5699 7.09633 19.5699H32.9028C33.2589 19.5699 33.548 19.2813 33.548 18.9247C33.548 18.5681 33.2589 18.2795 32.9027 18.2795Z"/>
</symbol><symbol id="write" viewBox="0 0 24 24">
<path d="M0.949776 21.9883L0.94973 21.9883L0.948682 21.9913C0.844967 22.2842 0.912815 22.6105 1.1247 22.8378L1.19785 22.7696L1.1247 22.8378C1.33659 23.0651 1.65733 23.1557 1.95682 23.0728L1.95776 23.0725L6.63883 21.727C10.6922 23.9605 15.7081 23.4457 19.2237 20.4313C22.7498 17.408 24.0213 12.5092 22.4106 8.15261C20.7999 3.79602 16.6476 0.902482 12.0028 0.9L12.0027 0.9L11.9027 0.899947V0.900488C7.90435 0.937923 4.23121 3.12274 2.29116 6.625C0.343084 10.1418 0.447988 14.4354 2.5622 17.8518L0.949776 21.9883ZM12.0027 22.1719H12.0026C10.2233 22.174 8.47479 21.7074 6.93312 20.8191C6.82249 20.7553 6.69091 20.7386 6.56785 20.7726L6.56667 20.773L1.89704 22.1278L3.51783 17.9706C3.57244 17.8305 3.55628 17.6728 3.47442 17.5468L3.47438 17.5467C0.936831 13.6457 1.37043 8.52007 4.52724 5.10079C7.68405 1.68152 12.7588 0.840789 16.8496 3.05936C20.9405 5.27794 23.0038 9.9899 21.8599 14.5008C20.7159 19.0117 16.6564 22.1709 12.0027 22.1719Z" stroke-width="0.2"/>
<path d="M15.7802 13.0575C15.4775 13.0237 15.1769 13.1362 14.9709 13.3604C14.7649 13.5846 14.6784 13.8936 14.7381 14.1921L14.738 14.1921L14.7388 14.1956C14.753 14.2552 14.7314 14.3174 14.6836 14.3556C14.1974 14.6845 13.5294 14.7479 12.8128 14.5627C12.096 14.3774 11.3409 13.9455 10.6964 13.3017C10.0519 12.6578 9.61935 11.9035 9.43381 11.1874C9.24831 10.4715 9.31166 9.80412 9.64121 9.31835C9.67896 9.27096 9.74077 9.2494 9.80002 9.26325L9.80001 9.2633L9.80312 9.26393C10.1019 9.32384 10.4113 9.23756 10.6358 9.03171C10.8603 8.82589 10.9729 8.5253 10.9388 8.22276C10.9388 8.2227 10.9388 8.22265 10.9388 8.22259L10.7132 6.19377L10.7131 6.19354C10.6523 5.65759 10.1792 5.26526 9.64113 5.30366C8.69393 5.33508 7.79177 5.71529 7.10822 6.37122L7.10821 6.37121L7.10675 6.37266C6.12341 7.35593 5.84104 8.83935 6.15922 10.4248C6.47752 12.0108 7.39809 13.7116 8.84116 15.1534C10.1111 16.4721 11.732 17.4005 13.5127 17.8294L13.5127 17.8294L13.515 17.8299C13.9312 17.9196 14.3555 17.966 14.7813 17.9682C15.8379 18.0068 16.8653 17.6174 17.6303 16.8882L17.6304 16.8883L17.6334 16.8851C18.2898 16.2021 18.6703 15.3008 18.7018 14.3545C18.739 13.8165 18.3464 13.3442 17.8102 13.2818L17.8097 13.2817L15.7802 13.0575ZM15.7802 13.0575L15.7691 13.1569M15.7802 13.0575L15.7801 13.0575L15.7691 13.1569M15.7691 13.1569L17.7987 13.3811L9.56037 9.25938C8.85568 10.2937 9.3143 12.0623 10.6257 13.3724C11.9372 14.6825 13.7075 15.1398 14.7425 14.4364C14.8229 14.3745 14.8596 14.2712 14.8361 14.1725C14.7827 13.9054 14.8601 13.6288 15.0445 13.4281C15.2289 13.2273 15.4981 13.1266 15.7691 13.1569ZM9.70499 5.98637H9.68312C8.90208 6.00891 8.15689 6.31885 7.5906 6.85669M9.70499 5.98637L9.32567 14.6715C6.68968 12.039 5.9118 8.53266 7.5906 6.85669M9.70499 5.98637C9.87208 5.98327 10.0146 6.10648 10.0356 6.27211L9.70499 5.98637ZM7.5906 6.85669L7.65947 6.9292C7.65977 6.92891 7.66007 6.92862 7.66037 6.92834M7.5906 6.85669L7.66125 6.92746C7.66096 6.92775 7.66067 6.92804 7.66037 6.92834M7.66037 6.92834C8.20834 6.40833 8.92908 6.10853 9.68457 6.08637H9.70499V6.08639L9.70685 6.08635C9.82271 6.0842 9.92147 6.16945 9.93632 6.28399L10.1618 8.31147C10.1618 8.31157 10.1618 8.31166 10.1619 8.31175C10.1674 8.36569 10.147 8.41908 10.1067 8.45559C10.0666 8.49205 10.0115 8.50734 9.95826 8.49678C9.59077 8.41798 9.21169 8.56663 8.99597 8.87429L8.99596 8.87428L8.99518 8.87543C8.54576 9.53562 8.45377 10.4033 8.66107 11.2897C8.86853 12.1767 9.37708 13.0906 10.1422 13.855C10.9073 14.6194 11.8222 15.1275 12.7101 15.3347C13.5973 15.5417 14.4658 15.4497 15.1265 15.0003L15.1265 15.0003L15.1276 14.9995C15.4354 14.7838 15.5842 14.405 15.5052 14.0377C15.4944 13.9848 15.5099 13.9299 15.5467 13.8902L15.5475 13.8893C15.5842 13.8489 15.638 13.8284 15.6924 13.8342C15.6925 13.8342 15.6925 13.8342 15.6926 13.8342L17.722 14.0592C17.8427 14.0752 17.9297 14.1828 17.92 14.304L17.9199 14.304L17.9197 14.3092C17.8982 15.0648 17.5983 15.7858 17.0775 16.3341C16.3132 17.097 15.1117 17.3656 13.6783 17.0637C12.0459 16.6672 10.5609 15.8132 9.39779 14.6022L9.39781 14.6022L9.39633 14.6007C8.08978 13.2959 7.24712 11.7776 6.93771 10.3837C6.6281 8.98887 6.85434 7.73375 7.66037 6.92834Z" stroke-width="0.2"/>
</symbol><symbol id="youtube" viewBox="0 0 31 31">
<path d="M15.2782 -8.15847e-09C6.84028 -3.65266e-09 -3.29843e-09 6.84028 -7.36727e-09 15.2782C-1.14361e-08 23.7162 6.84028 30.5564 15.2782 30.5564C23.7162 30.5564 30.5564 23.7162 30.5564 15.2782C30.5564 6.84028 23.7162 -1.26643e-08 15.2782 -8.15847e-09ZM24.1738 19.7742C23.957 20.577 23.3308 21.2113 22.536 21.428C21.0908 21.8214 15.2862 21.8214 15.2862 21.8214C15.2862 21.8214 9.48165 21.8214 8.03652 21.428C7.22564 21.2113 6.59942 20.577 6.38265 19.7742C5.99728 18.321 5.99728 15.2782 5.99728 15.2782C5.99728 15.2782 5.99728 12.2354 6.38265 10.7823C6.59942 9.97942 7.22564 9.34516 8.02046 9.1284C9.46559 8.735 15.2702 8.735 15.2702 8.735C15.2702 8.735 21.0748 8.735 22.5199 9.1284C23.3147 9.34516 23.949 9.97942 24.1577 10.7823C24.5431 12.2354 24.5431 15.2782 24.5431 15.2782C24.5431 15.2782 24.5592 18.321 24.1738 19.7742Z"/>
<path d="M12.7814 18.9151L19.1721 15.2782L12.7814 11.6413L12.7814 18.9151Z"/>
</symbol></svg>