<svg xmlns="http://www.w3.org/2000/svg" xmlns:xlink="http://www.w3.org/1999/xlink"><defs>
<clipPath id="clip0">
<rect width="38" height="38"/>
</clipPath>
</defs><symbol id="accessories" viewBox="0 0 38 38">
<g clip-path="url(#clip0)">
<path d="M8.86639 25.3089C8.86639 23.9098 7.73224 22.7756 6.3331 22.7756C4.93396 22.7756 3.7998 23.9098 3.7998 25.3089C3.7998 26.7081 4.93396 27.8422 6.3331 27.8422C7.73166 27.8408 8.86494 26.7075 8.86639 25.3089ZM5.06645 25.3089C5.06645 24.6094 5.63353 24.0423 6.3331 24.0423C7.03267 24.0423 7.59975 24.6094 7.59975 25.3089C7.59975 26.0085 7.03267 26.5756 6.3331 26.5756C5.63382 26.575 5.06703 26.0082 5.06645 25.3089Z"/>
<path d="M37.3667 15.1753H24.8035C26.0434 12.3396 25.0511 9.02328 22.4578 7.33452C19.8642 5.64547 16.4298 6.07948 14.3378 8.36024L14.3346 8.36256L1.84853 20.8344C1.84041 20.8429 1.8378 20.8539 1.82997 20.8623C0.0333666 22.6783 -0.49544 25.396 0.489404 27.753C1.47396 30.11 3.77908 31.644 6.33353 31.6419H22.1667C22.5166 31.6419 22.8002 31.3584 22.8002 31.0088C22.8002 30.6588 22.5166 30.3753 22.1667 30.3753H21.1624L22.4291 29.1086H24.7C25.0499 29.1086 25.3334 28.8251 25.3334 28.4755C25.3334 28.1255 25.0499 27.842 24.7 27.842H23.6957L24.9624 26.5754H27.2333C27.5832 26.5754 27.8667 26.2918 27.8667 25.9422C27.8667 25.5923 27.5832 25.3087 27.2333 25.3087H26.229L27.4956 24.0421H29.7668C30.1165 24.0421 30.4 23.7585 30.4 23.4086C30.4 23.059 30.1165 22.7754 29.7668 22.7754H28.7623L30.0289 21.5088H32.3001C32.6498 21.5088 32.9333 21.2253 32.9333 20.8753C32.9333 20.5257 32.6498 20.2422 32.3001 20.2422H31.2956L32.5622 18.9755H34.8334C35.183 18.9755 35.4666 18.692 35.4666 18.342C35.4666 17.9924 35.183 17.7089 34.8334 17.7089H33.8288L35.0958 16.4422H37.3667C37.7166 16.4422 38.0002 16.1587 38.0002 15.8088C38.0002 15.4591 37.7166 15.1753 37.3667 15.1753ZM24.0668 12.642C24.0717 13.9858 23.5368 15.275 22.5819 16.2204L22.5813 16.2213L22.5801 16.2219L12.5951 26.2095C12.8966 24.2323 12.2391 22.2295 10.8246 20.8156C9.40982 19.4017 7.40679 18.745 5.42986 19.0474L15.2296 9.25869C15.2334 9.25492 15.2345 9.24942 15.2383 9.24565C15.2421 9.24159 15.2476 9.23985 15.2516 9.23579C16.6589 7.6859 18.8744 7.16144 20.8273 7.9158C22.7799 8.67045 24.0674 10.5485 24.0668 12.642ZM1.26696 25.3087C1.26696 22.5105 3.53526 20.2422 6.33353 20.2422C9.13179 20.2422 11.4001 22.5105 11.4001 25.3087C11.4001 28.107 9.13179 30.3753 6.33353 30.3753C3.53671 30.3721 1.27015 28.1055 1.26696 25.3087ZM10.7342 29.8537C10.7426 29.8462 10.753 29.8439 10.7611 29.8358L23.4757 17.1177L23.4762 17.1171C23.6859 16.9055 23.8804 16.6794 24.0584 16.4405L24.0668 16.4422H33.3044L21.7188 28.0278L19.371 30.3753H10.1175C10.3338 30.2147 10.5396 30.0404 10.7342 29.8537Z"/>
</g>

</symbol><symbol id="armchair" viewBox="0 0 37 39">
<path d="M35.9932 12.6877H33.5724V4.06903C33.5724 1.81548 31.707 9.4559e-06 29.4531 9.4559e-06H7.67177C6.59173 -0.00231893 5.55493 0.425439 4.79056 1.18915C4.02651 1.95253 3.59742 2.98899 3.59876 4.06903V12.6877H1.00793C0.831637 12.6877 0.662995 12.7596 0.541254 12.887C0.419513 13.0143 0.354983 13.186 0.362966 13.3619V31.227C0.362966 31.6032 0.631728 31.9325 1.00793 31.9325H1.5551V38.3369C1.55876 38.5168 1.63393 38.6881 1.76399 38.8125C1.89405 38.9369 2.06867 39.0044 2.24863 38.9998H7.9555C8.13279 39.0034 8.30376 38.9349 8.42982 38.8099C8.55555 38.6848 8.62507 38.5142 8.62274 38.3369V31.9321H28.2078V38.3369C28.2078 38.7131 28.5454 38.9998 28.9216 38.9998H34.6285C34.8038 39.0025 34.9724 38.9329 35.0948 38.8075C35.2172 38.6821 35.2824 38.5118 35.2754 38.3369V31.9321H35.9932C36.3694 31.9321 36.6379 31.6032 36.6379 31.2266V13.3619C36.6458 13.1857 36.5813 13.0143 36.4596 12.887C36.3378 12.7596 36.1692 12.6877 35.9932 12.6877ZM4.96119 4.06903C4.95953 3.35022 5.24459 2.66002 5.75351 2.1521C6.26243 1.64385 6.95296 1.35979 7.67177 1.36245H29.4531C30.9556 1.36245 32.2099 2.56655 32.2099 4.06903V12.6877H28.9216C28.5454 12.6877 28.2078 12.9857 28.2078 13.3619V24.1833H8.79305V13.3619C8.79305 12.9857 8.45577 12.6877 8.07957 12.6877H4.96119V4.06903ZM7.26031 37.6374H2.91754V31.9321H7.26031V37.6374ZM33.913 37.6374H29.5702V31.9321H33.913V37.6374ZM35.2754 30.5697H1.7254V14.0501H7.43061V24.8998C7.42462 25.0734 7.49115 25.2414 7.61422 25.3641C7.73729 25.4865 7.90593 25.5524 8.07957 25.5457H28.9216C29.0952 25.5524 29.2639 25.4865 29.3869 25.3641C29.5097 25.2414 29.5762 25.0734 29.5702 24.8998V14.0501H35.2754V30.5697Z"/>
</symbol><symbol id="bad" viewBox="0 0 46 31">
<path d="M42.7143 11.809V7.83396C42.7143 3.66968 39.7571 0.357178 36.225 0.357178H9.775C6.24286 0.357178 3.28571 3.76432 3.28571 7.83396V11.809C1.39643 12.2822 0 14.175 0 16.4465V25.9107C0 26.4786 0.328571 26.8572 0.821429 26.8572H1.64286V29.6965C1.64286 30.2643 1.97143 30.6429 2.46429 30.6429C2.95714 30.6429 3.28571 30.2643 3.28571 29.6965V26.8572H42.7143V29.6965C42.7143 30.2643 43.0429 30.6429 43.5357 30.6429C44.0286 30.6429 44.3571 30.2643 44.3571 29.6965V26.8572H45.1786C45.6714 26.8572 46 26.4786 46 25.9107V16.4465C46 14.175 44.6036 12.2822 42.7143 11.809ZM4.92857 7.83396C4.92857 4.71075 7.14643 2.25003 9.775 2.25003H36.1429C38.8536 2.25003 40.9893 4.80539 40.9893 7.83396V11.7143H37.6214C37.375 9.53753 35.7321 7.92861 33.8429 7.92861H30.0643C28.175 7.92861 26.5321 9.53753 26.2857 11.7143H19.6321C19.3857 9.53753 17.7429 7.92861 15.8536 7.92861H12.075C10.1857 7.92861 8.54286 9.53753 8.29643 11.7143H4.92857V7.83396ZM36.0607 11.7143H28.0107C28.2571 10.5786 29.1607 9.82146 30.1464 9.82146H33.925C34.9107 9.82146 35.8143 10.5786 36.0607 11.7143ZM17.9893 11.7143H9.93929C10.1857 10.5786 11.0893 9.82146 12.075 9.82146H15.8536C16.8393 9.82146 17.7429 10.5786 17.9893 11.7143ZM44.3571 24.9643H1.64286V16.4465C1.64286 14.8375 2.71071 13.6072 4.10714 13.6072H41.8929C43.2893 13.6072 44.3571 14.8375 44.3571 16.4465V24.9643Z"/>
</symbol><symbol id="chair" viewBox="0 0 38 39">
<path d="M34.9426 19.5765H34.8651L35.549 8.07635C35.5678 7.76115 35.2584 7.49371 34.858 7.47901C34.4576 7.46385 34.1178 7.70783 34.0991 8.02295L33.4119 19.5765H4.40158L3.7144 8.02295C3.46463 3.82276 3.47895 4.09462 3.47895 3.99598C3.47895 2.42265 5.10696 1.14258 7.10803 1.14258H30.7053C32.7063 1.14258 34.3344 2.42265 34.3344 3.99598C34.3344 4.08944 34.1808 6.64869 34.0769 8.3966C34.0581 8.71173 34.3675 8.97917 34.7679 8.99394C35.1682 9.00925 35.508 8.7652 35.5268 8.45C35.6305 6.70704 35.7859 4.12486 35.7859 3.99598C35.7859 1.79255 33.5068 0 30.7053 0H7.10813C4.30665 0 2.02746 1.79255 2.02746 3.99598C2.02746 4.13126 2.01236 3.83685 2.26455 8.07635L2.94854 19.5765H2.87103C1.5103 19.5765 0.40332 20.4478 0.40332 21.5189V24.3515C0.40332 25.4226 1.5103 26.2939 2.87103 26.2939H3.37047V32.825C3.37047 33.1405 3.69543 33.3963 4.09627 33.3963C4.4971 33.3963 4.82206 33.1405 4.82206 32.825V26.2939H7.0009L5.99534 37.4279C5.97356 37.6687 5.71624 37.8574 5.40938 37.8574C5.08548 37.8574 4.82206 37.65 4.82206 37.3951V32.5781C4.82206 32.2626 4.4971 32.0068 4.09627 32.0068C3.69543 32.0068 3.37047 32.2626 3.37047 32.5781V37.3951C3.37047 38.2801 4.28517 39 5.40938 39C6.47436 39 7.36767 38.345 7.44325 37.5089L8.45617 26.2939H29.3577L30.3706 37.5089C30.4459 38.345 31.3393 39 32.4042 39C33.5285 39 34.4431 38.28 34.4431 37.3951V26.2939H34.9426C36.3033 26.2939 37.4103 25.4226 37.4103 24.3515V21.5189C37.4103 20.4478 36.3033 19.5765 34.9426 19.5765ZM32.9915 37.3951C32.9915 37.6501 32.728 37.8574 32.4042 37.8574C32.0975 37.8574 31.84 37.6687 31.8183 37.4279L30.8127 26.2939H32.9915V37.3951ZM35.9587 24.3515C35.9587 24.7926 35.5029 25.1513 34.9426 25.1513C32.6978 25.1513 5.09564 25.1513 2.87083 25.1513C2.31052 25.1513 1.85472 24.7926 1.85472 24.3515V21.5189C1.85472 21.0778 2.31052 20.7191 2.87083 20.7191H34.9426C35.5029 20.7191 35.9587 21.0778 35.9587 21.5189V24.3515Z"/>
</symbol><symbol id="cupboard" viewBox="0 0 40 32">
<path d="M39.2729 0.481445H1.02333C0.71752 0.481445 0.469727 0.729312 0.469727 1.03505V31.4464C0.469727 31.7521 0.71752 32 1.02333 32H39.2729C39.5787 32 39.8265 31.7521 39.8265 31.4464V1.03505C39.8265 0.729312 39.5787 0.481445 39.2729 0.481445ZM38.7193 8.08427H21.9795V1.58865H38.7193V8.08427ZM21.9795 16.7943H38.7193V23.2899H21.9795V16.7943ZM21.9795 15.6871V9.19148H38.7193V15.6871H21.9795ZM1.57693 1.58865H20.8723V30.8928H1.57693V1.58865ZM21.9795 30.8928V24.3971H38.7193V30.8928H21.9795Z"/>
<path d="M19.285 13.6941C18.9792 13.6941 18.7314 13.942 18.7314 14.2477V18.2336C18.7314 18.5394 18.9792 18.7872 19.285 18.7872C19.5909 18.7872 19.8387 18.5394 19.8387 18.2336V14.2477C19.8387 13.942 19.5909 13.6941 19.285 13.6941Z"/>
</symbol><symbol id="facebook" viewBox="0 0 31 31">
<path d="M15.2782 -8.15847e-09C6.84028 -3.65266e-09 -3.29843e-09 6.84028 -7.36727e-09 15.2782C-1.14361e-08 23.7162 6.84028 30.5564 15.2782 30.5564C23.7162 30.5564 30.5564 23.7162 30.5564 15.2782C30.5564 6.84028 23.7162 -1.26643e-08 15.2782 -8.15847e-09ZM19.5413 9.28094C19.5413 9.28094 18.1042 9.28094 17.5262 9.28094C16.8117 9.28094 16.6671 9.56996 16.6671 10.3086C16.6671 10.9187 16.6671 12.0829 16.6671 12.0829L19.5413 12.0829L19.2684 15.1979L16.6752 15.1979L16.6752 24.511L12.958 24.511L12.958 15.2381L11.0231 15.2381L11.0231 12.0829L12.958 12.0829C12.958 12.0829 12.958 11.6253 12.958 9.59405C12.958 7.25776 14.2024 6.04545 16.9722 6.04545C17.4218 6.04545 19.5494 6.04545 19.5494 6.04545L19.5494 9.28094L19.5413 9.28094Z"/>
</symbol><symbol id="insta" viewBox="0 0 31 31">
<path d="M15.2782 12.4843C13.7368 12.4843 12.4843 13.7367 12.4843 15.2782C12.4843 16.8197 13.7368 18.0721 15.2782 18.0721C16.8197 18.0721 18.0721 16.8197 18.0721 15.2782C18.0721 13.7367 16.8197 12.4843 15.2782 12.4843Z"/>
<path d="M15.2782 0C6.84028 0 0 6.84028 0 15.2782C0 23.7162 6.84028 30.5564 15.2782 30.5564C23.7162 30.5564 30.5564 23.7162 30.5564 15.2782C30.5564 6.84028 23.7162 0 15.2782 0ZM23.6038 18.7305C23.5636 19.6216 23.4191 20.2318 23.2104 20.7617C22.9936 21.3156 22.7126 21.7813 22.247 22.247C21.7813 22.7126 21.3156 23.0016 20.7617 23.2104C20.2318 23.4191 19.6216 23.5556 18.7305 23.6038C17.8393 23.6439 17.5503 23.6519 15.2782 23.6519C13.0062 23.6519 12.7171 23.6439 11.826 23.6038C10.9348 23.5636 10.3246 23.4191 9.79476 23.2104C9.24079 22.9936 8.77514 22.7126 8.30949 22.247C7.84384 21.7813 7.55481 21.3156 7.34607 20.7617C7.13733 20.2318 7.00084 19.6216 6.95267 18.7305C6.91253 17.8393 6.9045 17.5503 6.9045 15.2782C6.9045 13.0062 6.91253 12.7171 6.95267 11.826C6.99282 10.9348 7.13733 10.3246 7.34607 9.79476C7.56284 9.24079 7.84384 8.77514 8.30949 8.30949C8.77514 7.84384 9.24079 7.55481 9.79476 7.34607C10.3246 7.13733 10.9348 7.00084 11.826 6.95267C12.7171 6.91253 13.0062 6.9045 15.2782 6.9045C17.5503 6.9045 17.8393 6.91253 18.7305 6.95267C19.6216 6.99282 20.2318 7.13733 20.7617 7.34607C21.3156 7.56284 21.7813 7.84384 22.247 8.30949C22.7126 8.77514 23.0016 9.24079 23.2104 9.79476C23.4191 10.3246 23.5556 10.9348 23.6038 11.826C23.6439 12.7171 23.6519 13.0062 23.6519 15.2782C23.6519 17.5503 23.6439 17.8393 23.6038 18.7305Z"/>
<path d="M21.8054 10.3407C21.6528 9.94729 21.4682 9.67432 21.1792 9.37726C20.8901 9.08021 20.6091 8.90358 20.2157 8.75104C19.9187 8.63864 19.4771 8.50216 18.6582 8.46201C17.7751 8.42187 17.5101 8.41384 15.2702 8.41384C13.0302 8.41384 12.7653 8.42187 11.8822 8.46201C11.0633 8.50216 10.6217 8.63864 10.3246 8.75104C9.93125 8.90358 9.65828 9.08824 9.36123 9.37726C9.0722 9.67432 8.88755 9.94729 8.735 10.3407C8.62261 10.6377 8.48612 11.0793 8.44598 11.8982C8.40584 12.7813 8.39781 13.0463 8.39781 15.2862C8.39781 17.5262 8.40584 17.7911 8.44598 18.6743C8.48612 19.4932 8.62261 19.9347 8.735 20.2318C8.88755 20.6252 9.0722 20.8981 9.36123 21.1952C9.65828 21.4842 9.93125 21.6689 10.3246 21.8214C10.6217 21.9338 11.0633 22.0703 11.8822 22.1105C12.7653 22.1506 13.0302 22.1586 15.2702 22.1586C17.5101 22.1586 17.7751 22.1506 18.6582 22.1105C19.4771 22.0703 19.9187 21.9338 20.2157 21.8214C20.6091 21.6689 20.8821 21.4842 21.1792 21.1952C21.4762 20.8981 21.6528 20.6252 21.8054 20.2318C21.9178 19.9347 22.0543 19.4932 22.0944 18.6743C22.1346 17.7911 22.1426 17.5262 22.1426 15.2862C22.1426 13.0463 22.1346 12.7813 22.0944 11.8982C22.0623 11.0793 21.9258 10.6297 21.8054 10.3407ZM15.2782 19.5815C12.9018 19.5815 10.975 17.6546 10.975 15.2782C10.975 12.9018 12.9018 10.9749 15.2782 10.9749C17.6547 10.9749 19.5815 12.9018 19.5815 15.2782C19.5815 17.6546 17.6547 19.5815 15.2782 19.5815ZM19.7501 11.8099C19.1961 11.8099 18.7465 11.3603 18.7465 10.8063C18.7465 10.2524 19.1961 9.80277 19.7501 9.80277C20.3041 9.80277 20.7537 10.2524 20.7537 10.8063C20.7537 11.3603 20.3041 11.8099 19.7501 11.8099Z"/>
</symbol><symbol id="sofa" viewBox="0 0 49 31">
<path d="M46.3619 30.0834H42.4772C42.2063 30.0834 41.9865 29.8673 41.9865 29.6011V28.375H7.59596V29.6011C7.59596 29.8673 7.37612 30.0834 7.10525 30.0834H3.22056C2.94969 30.0834 2.72985 29.8673 2.72985 29.6011V28.375H1.07372C0.802845 28.375 0.583008 28.1589 0.583008 27.8927V12.2874C0.583008 11.3621 1.349 10.6094 2.29018 10.6094H3.94632C4.20566 10.6094 4.45175 10.6665 4.67208 10.7688V6.96901C4.67208 3.63178 7.43427 0.916748 10.8295 0.916748H38.753C42.1482 0.916748 44.9104 3.63178 44.9104 6.96901V10.7688C45.1307 10.6668 45.3768 10.6096 45.6361 10.6096H47.2923C48.2337 10.6096 48.9997 11.3623 48.9997 12.2877V27.8929C48.9997 28.1592 48.7798 28.3752 48.509 28.3752H46.8528V29.6013C46.8526 29.8676 46.633 30.0834 46.3619 30.0834ZM42.9679 29.1188H45.8714V28.375H42.9679V29.1188ZM3.71127 29.1188H6.61454V28.375H3.71127V29.1188ZM46.3619 27.4103H48.018V12.2874C48.018 11.8941 47.6924 11.574 47.292 11.574H45.6359C45.2357 11.574 44.9101 11.8941 44.9101 12.2874V27.4103H46.3619ZM42.4772 27.4103H43.9289V20.7151H5.65374V27.4103H42.4772ZM3.22056 27.4103H4.67232V12.2874C4.67232 11.8941 4.34674 11.574 3.94656 11.574H2.29043C1.89001 11.574 1.56442 11.8943 1.56442 12.2874V27.4103H3.22056ZM6.70508 19.7507H42.8774C43.4571 19.7507 43.9287 19.2872 43.9287 18.7173V16.9255C43.9287 16.3556 43.4571 15.8921 42.8774 15.8921H6.70508C6.12531 15.8921 5.65349 16.3556 5.65349 16.9255V18.7173C5.65374 19.2872 6.12531 19.7507 6.70508 19.7507ZM42.8774 14.9274H43.9287V6.96901C43.9287 4.16379 41.6067 1.88141 38.7527 1.88141H10.8295C7.97552 1.88141 5.65349 4.16379 5.65349 6.96901V14.9274H42.8774Z"/>
</symbol><symbol id="table" viewBox="0 0 40 40">
<path d="M38.0645 9.67725H1.93547C0.850312 9.67725 0 10.5276 0 11.6127V13.3332C0 14.4183 0.850312 15.2687 1.93547 15.2687H38.0645C39.1497 15.2687 40 14.4183 40 13.3332V11.6127C40 10.5276 39.1497 9.67725 38.0645 9.67725ZM38.7097 13.3332C38.7097 13.7069 38.4383 13.9783 38.0645 13.9783H1.93547C1.56172 13.9783 1.29031 13.7069 1.29031 13.3332V11.6127C1.29031 11.239 1.56172 10.9676 1.93547 10.9676H38.0645C38.4383 10.9676 38.7097 11.239 38.7097 11.6127V13.3332Z"/>
<path d="M7.18781 13.9849C6.83641 13.9367 6.50828 14.1798 6.45789 14.5324L4.38648 29.0323H3.4407V14.6237C3.4407 14.2671 3.15211 13.9785 2.79555 13.9785C2.43898 13.9785 2.15039 14.2671 2.15039 14.6237V29.6774C2.15039 30.0335 2.43898 30.3226 2.79555 30.3226H4.94609C5.26734 30.3226 5.53922 30.0865 5.58477 29.7686L7.73531 14.7148C7.78563 14.3622 7.54047 14.0352 7.18781 13.9849Z"/>
<path d="M37.2041 13.9786C36.848 13.9786 36.559 14.2672 36.559 14.6237V29.0323H35.6132L33.5418 14.5326C33.491 14.1799 33.1615 13.9326 32.8119 13.9851C32.4592 14.0354 32.214 14.3622 32.2644 14.715L34.4149 29.7687C34.4605 30.0865 34.7327 30.3227 35.0536 30.3227H37.2041C37.5602 30.3227 37.8493 30.0336 37.8493 29.6776V14.6237C37.8493 14.2672 37.5602 13.9786 37.2041 13.9786Z"/>
<path d="M32.9027 18.2795H7.09633C6.73977 18.2795 6.45117 18.5681 6.45117 18.9247C6.45117 19.2813 6.73977 19.5699 7.09633 19.5699H32.9028C33.2589 19.5699 33.548 19.2813 33.548 18.9247C33.548 18.5681 33.2589 18.2795 32.9027 18.2795Z"/>
</symbol><symbol id="youtube" viewBox="0 0 31 31">
<path d="M15.2782 -8.15847e-09C6.84028 -3.65266e-09 -3.29843e-09 6.84028 -7.36727e-09 15.2782C-1.14361e-08 23.7162 6.84028 30.5564 15.2782 30.5564C23.7162 30.5564 30.5564 23.7162 30.5564 15.2782C30.5564 6.84028 23.7162 -1.26643e-08 15.2782 -8.15847e-09ZM24.1738 19.7742C23.957 20.577 23.3308 21.2113 22.536 21.428C21.0908 21.8214 15.2862 21.8214 15.2862 21.8214C15.2862 21.8214 9.48165 21.8214 8.03652 21.428C7.22564 21.2113 6.59942 20.577 6.38265 19.7742C5.99728 18.321 5.99728 15.2782 5.99728 15.2782C5.99728 15.2782 5.99728 12.2354 6.38265 10.7823C6.59942 9.97942 7.22564 9.34516 8.02046 9.1284C9.46559 8.735 15.2702 8.735 15.2702 8.735C15.2702 8.735 21.0748 8.735 22.5199 9.1284C23.3147 9.34516 23.949 9.97942 24.1577 10.7823C24.5431 12.2354 24.5431 15.2782 24.5431 15.2782C24.5431 15.2782 24.5592 18.321 24.1738 19.7742Z"/>
<path d="M12.7814 18.9151L19.1721 15.2782L12.7814 11.6413L12.7814 18.9151Z"/>
</symbol></svg>