<svg width="40" height="40" fill="none" xmlns="http://www.w3.org/2000/svg"><path d="M38.065 9.677H1.934C.85 9.677 0 10.527 0 11.613v1.72c0 1.085.85 1.936 1.935 1.936h36.13c1.085 0 1.935-.85 1.935-1.936v-1.72c0-1.085-.85-1.936-1.935-1.936zm.645 3.656a.624.624 0 01-.645.645H1.934a.624.624 0 01-.645-.645v-1.72c0-.374.272-.645.645-.645h36.13c.373 0 .645.271.645.645v1.72z" fill="#000"/><path d="M7.188 13.985a.648.648 0 00-.73.547l-2.072 14.5h-.945V14.624a.645.645 0 10-1.29 0v15.053c0 .357.288.646.645.646h2.15a.645.645 0 00.639-.554l2.15-15.054a.645.645 0 00-.547-.73zm30.016-.006a.645.645 0 00-.645.645v14.408h-.946l-2.071-14.5a.646.646 0 00-1.278.183l2.15 15.054a.646.646 0 00.64.554h2.15c.356 0 .645-.29.645-.645V14.624a.645.645 0 00-.645-.645z" fill="#000"/><path d="M32.903 18.28H7.096a.645.645 0 100 1.29h25.807a.645.645 0 100-1.29z" fill="#000"/></svg>